<svg xmlns="http://www.w3.org/2000/svg" viewBox="0 0 400 300"><g id="_178_coding_flatline" data-name="#178_coding_flatline"><rect x="115.8" y="130.59" width="164.15" height="96.13" rx="9.26" fill="#fff"/><path d="M270.68,227.22H125.06a9.77,9.77,0,0,1-9.76-9.76v-77.6a9.78,9.78,0,0,1,9.76-9.77H270.68a9.78,9.78,0,0,1,9.76,9.77v77.6A9.77,9.77,0,0,1,270.68,227.22ZM125.06,131.09a8.77,8.77,0,0,0-8.76,8.77v77.6a8.77,8.77,0,0,0,8.76,8.76H270.68a8.77,8.77,0,0,0,8.76-8.76v-77.6a8.77,8.77,0,0,0-8.76-8.77Z" fill="#231f20"/><rect x="169.08" y="192.4" width="57.59" height="27.52" rx="3.22" fill="#fff"/><path d="M223.45,220.42H172.29a3.72,3.72,0,0,1-3.71-3.72V195.61a3.71,3.71,0,0,1,3.71-3.71h51.16a3.71,3.71,0,0,1,3.71,3.71V216.7A3.72,3.72,0,0,1,223.45,220.42ZM172.29,192.9a2.71,2.71,0,0,0-2.71,2.71V216.7a2.71,2.71,0,0,0,2.71,2.72h51.16a2.71,2.71,0,0,0,2.71-2.72V195.61a2.71,2.71,0,0,0-2.71-2.71Z" fill="#d1d3d4"/><rect x="125.32" y="137.39" width="145.1" height="47.46" rx="5.14" fill="#fff"/><path d="M265.28,185.35H130.46a5.65,5.65,0,0,1-5.64-5.64V142.54a5.65,5.65,0,0,1,5.64-5.65H265.28a5.65,5.65,0,0,1,5.64,5.65v37.17A5.65,5.65,0,0,1,265.28,185.35ZM130.46,137.89a4.65,4.65,0,0,0-4.64,4.65v37.17a4.64,4.64,0,0,0,4.64,4.64H265.28a4.64,4.64,0,0,0,4.64-4.64V142.54a4.65,4.65,0,0,0-4.64-4.65Z" fill="#d1d3d4"/><path d="M127.7,234h34.18a43.94,43.94,0,0,1,3.31-6.47c5.44-7.71,12.93-12.47,17-23.35s5.44-19.5,2.26-21.09-7,11.11-11.11,14.29c0,0-3.09-15.27-.6-22.07s7.58-11.9,6.9-16-2.57-3-5.61-.42c-1.59,1.36-4.24,5.74-4.24,5.74a15.05,15.05,0,0,1,2.19-6.27c3.1-4.61-4.23-6.65-9.67,1.51,0,0,2.12-8.39-2-5.9s-8.32,12.1-8.32,12.1,2.27-12.7-2.94-9.3-7.18,19.73-6.5,27,2.2,24.11-2.42,30.16C138.66,215.91,133.69,224,127.7,234Z" fill="#fff"/><path d="M161.88,234.5H127.7a.52.52,0,0,1-.44-.25.49.49,0,0,1,0-.51c7-11.57,11.16-18.34,12.51-20.12,4.56-6,2.94-23.28,2.33-29.8-.72-7.66,1.28-23.9,6.71-27.45,1.13-.73,2.08-.86,2.82-.36,1.49,1,1.52,4.46,1.29,7.09,1.6-3.08,4.38-7.83,7.17-9.53,1-.62,1.82-.71,2.42-.26,1,.74.94,2.85.71,4.54,2.63-3.09,5.4-4.12,7.3-4a2.8,2.8,0,0,1,2.46,1.43,3.39,3.39,0,0,1-.58,3.38,12.72,12.72,0,0,0-1.58,3.46,20.36,20.36,0,0,1,2.88-3.59c2.1-1.8,3.55-2.76,4.74-2.32.86.31,1.39,1.27,1.69,3,.43,2.59-1.24,5.45-3.17,8.77a47.64,47.64,0,0,0-3.75,7.46c-2.08,5.67-.14,17.61.46,20.93a34.64,34.64,0,0,0,4.37-6.81c2.36-4.33,4.41-8.07,6.64-7,4.65,2.33.13,16-2,21.71-2.71,7.22-6.91,11.8-11,16.22a75.13,75.13,0,0,0-6.09,7.25,43.75,43.75,0,0,0-3.27,6.38A.5.5,0,0,1,161.88,234.5Zm-33.3-1h33a43,43,0,0,1,3.23-6.26A74.58,74.58,0,0,1,171,219.9c4-4.36,8.13-8.86,10.77-15.9,4.23-11.28,5.19-19.12,2.51-20.46-1.37-.7-3.47,3.15-5.32,6.54-1.67,3.07-3.41,6.25-5.26,7.69a.47.47,0,0,1-.48.07.49.49,0,0,1-.32-.36c-.12-.63-3.09-15.49-.58-22.34a47.93,47.93,0,0,1,3.83-7.62c1.83-3.15,3.41-5.87,3-8.11-.22-1.31-.58-2.1-1-2.27-.77-.27-2.26.87-3.75,2.15s-4.1,5.58-4.13,5.62a.5.5,0,0,1-.58.22.52.52,0,0,1-.35-.52,15.45,15.45,0,0,1,2.28-6.51,2.49,2.49,0,0,0,.52-2.38,1.85,1.85,0,0,0-1.63-.87c-1.85-.14-5,1.2-7.73,5.32a.5.5,0,0,1-.9-.4c.49-2,.85-5.09.08-5.66-.31-.23-.95.1-1.3.31-3.91,2.39-8.08,11.78-8.12,11.87a.5.5,0,0,1-.6.28.52.52,0,0,1-.35-.57c.55-3.06.9-8.25-.47-9.16-.37-.25-1-.13-1.71.37-4.85,3.16-7,19.09-6.27,26.52.68,7.24,2.27,24.22-2.52,30.5C139.28,215.94,135.24,222.42,128.58,233.5Z" fill="#231f20"/><path d="M223.11,174.12c-2.11-1.51-4.53,3.63-3,11.19s10.58,23.58,17.53,30.23c1.83,1.74,4.58,7.58,7.66,15.24h33.21c-8.18-15.46-15.17-28.61-15.77-29.45-1.52-2.12-3.11-15.54-2.69-23.43a89.69,89.69,0,0,0-1.58-21.54c-1.07-4.69-2.76-6.23-5.11-6.23s-1.18,9.31-1.18,9.31v0c-1.06-5.55-4.69-11.95-7.89-12.59S245,158,245,158c-1.28-3.41-8.26-14.32-11.36-12.59-1,.56-3.53,1.3.52,8.77s4,11.53,4,11.53c-8.43-14.4-15-13.91-17.08-10.89s3.32,4.84,7.56,11.25,1.81,22.61,1.81,22.61C225.83,185.61,225.23,175.63,223.11,174.12Zm29.08-14.53v0Zm.44,2.29v0Zm0-.19,0-.11Zm-.07-.36-.1-.54Zm-.16-.86c0-.16-.06-.33-.1-.52Z" fill="#fff"/><path d="M278.49,231.28H245.28a.5.5,0,0,1-.46-.32c-3.4-8.46-5.94-13.53-7.54-15.06-6.83-6.53-16.08-22.49-17.68-30.5-1.22-6.09,0-10.59,1.79-11.74a1.71,1.71,0,0,1,2,.05c1,.71,1.59,2.7,2.36,5.22.94,3.07,2.09,6.83,4.22,8.77.42-3.41,1.68-16-1.85-21.4a33.21,33.21,0,0,0-5.08-5.82c-2.31-2.23-4-3.84-2.47-6a4.59,4.59,0,0,1,4.1-1.93c2.25.09,6.76,1.66,12.56,10.78a35.19,35.19,0,0,0-3.57-9c-1.92-3.53-2.61-6-2.14-7.58a2.92,2.92,0,0,1,1.65-1.77l.17-.1a2.29,2.29,0,0,1,2-.06c2.48.91,5.7,5.15,7.87,8.68-.63-2.71-1.06-5.74-.14-6.78a1.34,1.34,0,0,1,1.32-.4c2.64.53,5.35,4.38,7,8.62,0-2,.19-4,.94-4.87a1.34,1.34,0,0,1,1-.48c2.83,0,4.55,2,5.59,6.62a90.16,90.16,0,0,1,1.6,21.68c-.43,8,1.24,21.21,2.59,23.11.54.75,5.71,10.4,15.81,29.5a.5.5,0,0,1,0,.49A.52.52,0,0,1,278.49,231.28Zm-32.87-1h32c-12.05-22.79-15-28.18-15.35-28.66-1.62-2.27-3.21-15.81-2.78-23.75a89.07,89.07,0,0,0-1.57-21.4c-1.17-5.15-3-5.84-4.62-5.84a.34.34,0,0,0-.28.15c-.94,1.06-.75,5.83-.4,8.59v.07h0a.38.38,0,0,1,0,.21.41.41,0,0,1,.08.19l.1.52a.43.43,0,0,1,0,.16.44.44,0,0,1,.06.16l.11.53a.4.4,0,0,0,0,.25h0l-.07,0,.07.09h0a.22.22,0,0,1,0,.08s0,0,0,0h0a.5.5,0,0,1-.39.44.52.52,0,0,1-.52-.21h0a.28.28,0,0,1,0-.09.19.19,0,0,1,0-.08h0v-.09h0v0a.57.57,0,0,1,0-.13.5.5,0,0,1-.05-.13L252,161h0l0-.08h0a.49.49,0,0,1,0-.12.46.46,0,0,1-.08-.19l-.1-.52a.6.6,0,0,1,0-.19.48.48,0,0,1-.07-.18h0v0h0v0a.07.07,0,0,1,0-.05v0h0c-1.1-5.7-4.74-11.63-7.5-12.18-.25-.05-.33,0-.37.09-.91,1,.41,6.67,1.63,10.36a.5.5,0,0,1-.94.33c-1.12-3-6.3-11.14-9.52-12.32a1.28,1.28,0,0,0-1.12,0l-.2.1a1.94,1.94,0,0,0-1.15,1.18c-.39,1.28.3,3.57,2.06,6.81,4.07,7.5,4,11.61,4,11.78a.51.51,0,0,1-.38.47.49.49,0,0,1-.55-.23c-6.17-10.54-10.8-12.26-13-12.35a3.57,3.57,0,0,0-3.24,1.5c-1,1.39,0,2.45,2.35,4.7a34.18,34.18,0,0,1,5.21,6c4.29,6.5,2,22.29,1.89,23a.48.48,0,0,1-.29.38.51.51,0,0,1-.48,0c-2.85-1.9-4.19-6.3-5.27-9.83-.66-2.15-1.28-4.18-2-4.69a.71.71,0,0,0-.89,0c-1.24.81-2.54,4.77-1.35,10.71,1.54,7.7,10.8,23.67,17.39,30C239.68,216.81,242.18,221.75,245.62,230.28Z" fill="#231f20"/><path d="M169.08,230.78c-.81,0-37.43-12.44-37.43-12.44S115,248.41,109.93,257.81l48.18,7.73Z" fill="#000000"/><polygon points="274.26 216.19 235.71 223.38 246.18 260.71 295.11 257 274.26 216.19" fill="#000000"/><rect x="115.8" y="34.46" width="164.15" height="96.13" rx="9.26" fill="#fff"/><path d="M270.68,131.09H125.06a9.77,9.77,0,0,1-9.76-9.76V43.72A9.77,9.77,0,0,1,125.06,34H270.68a9.77,9.77,0,0,1,9.76,9.76v77.61A9.77,9.77,0,0,1,270.68,131.09ZM125.06,35a8.77,8.77,0,0,0-8.76,8.76v77.61a8.77,8.77,0,0,0,8.76,8.76H270.68a8.77,8.77,0,0,0,8.76-8.76V43.72A8.77,8.77,0,0,0,270.68,35Z" fill="#231f20"/><rect x="123.96" y="42.62" width="149.18" height="80.26" fill="#000000"/><path d="M273.14,123.38H124a.5.5,0,0,1-.5-.5V42.62a.5.5,0,0,1,.5-.5H273.14a.5.5,0,0,1,.5.5v80.26A.5.5,0,0,1,273.14,123.38Zm-148.68-1H272.64V43.12H124.46Z" fill="#231f20"/><path d="M273.14,52.8H124a.5.5,0,0,1-.5-.5.5.5,0,0,1,.5-.5H273.14a.5.5,0,0,1,.5.5A.5.5,0,0,1,273.14,52.8Z" fill="#231f20"/><circle cx="129.65" cy="47.3" r="1.65" fill="#231f20"/><path d="M129.65,49.45a2.15,2.15,0,1,1,2.15-2.15A2.14,2.14,0,0,1,129.65,49.45Zm0-3.29a1.15,1.15,0,1,0,1.15,1.14A1.14,1.14,0,0,0,129.65,46.16Z" fill="#231f20"/><circle cx="137.14" cy="47.3" r="1.65" fill="#231f20"/><path d="M137.14,49.45a2.15,2.15,0,1,1,2.14-2.15A2.15,2.15,0,0,1,137.14,49.45Zm0-3.29a1.15,1.15,0,1,0,1.14,1.14A1.15,1.15,0,0,0,137.14,46.16Z" fill="#231f20"/><circle cx="144.62" cy="47.3" r="1.65" fill="#231f20"/><path d="M144.62,49.45a2.15,2.15,0,1,1,2.15-2.15A2.15,2.15,0,0,1,144.62,49.45Zm0-3.29a1.15,1.15,0,1,0,1.15,1.14A1.15,1.15,0,0,0,144.62,46.16Z" fill="#231f20"/><path d="M135.49,123.38a.5.5,0,0,1-.5-.5V52.3a.5.5,0,0,1,1,0v70.58A.5.5,0,0,1,135.49,123.38Z" fill="#231f20"/><path d="M162.89,58h-21a.5.5,0,0,1-.5-.5.5.5,0,0,1,.5-.5h21a.5.5,0,0,1,.5.5A.5.5,0,0,1,162.89,58Z" fill="#fff"/><path d="M174.94,58h-6.85a.5.5,0,0,1-.5-.5.5.5,0,0,1,.5-.5h6.85a.5.5,0,0,1,.5.5A.5.5,0,0,1,174.94,58Z" fill="#231f20"/><path d="M193.54,58H179.05a.5.5,0,0,1-.5-.5.5.5,0,0,1,.5-.5h14.49a.5.5,0,0,1,.5.5A.5.5,0,0,1,193.54,58Z" fill="#231f20"/><path d="M156.19,64.32H141.85a.5.5,0,0,1-.5-.5.5.5,0,0,1,.5-.5h14.34a.5.5,0,0,1,.5.5A.51.51,0,0,1,156.19,64.32Z" fill="#fff"/><path d="M219.73,64.32H160.55a.51.51,0,0,1-.5-.5.5.5,0,0,1,.5-.5h59.18a.5.5,0,0,1,.5.5A.5.5,0,0,1,219.73,64.32Z" fill="#231f20"/><path d="M253.14,64.32H224.25a.5.5,0,0,1-.5-.5.5.5,0,0,1,.5-.5h28.89a.5.5,0,0,1,.5.5A.51.51,0,0,1,253.14,64.32Z" fill="#fff"/><path d="M193.54,70.34H141.85a.5.5,0,0,1-.5-.5.5.5,0,0,1,.5-.5h51.69a.5.5,0,0,1,.5.5A.5.5,0,0,1,193.54,70.34Z" fill="#fff"/><path d="M215.83,70.34H198.06a.5.5,0,0,1-.5-.5.51.51,0,0,1,.5-.5h17.77a.5.5,0,0,1,.5.5A.5.5,0,0,1,215.83,70.34Z" fill="#231f20"/><path d="M149,81.25h-7.17a.5.5,0,0,1-.5-.5.5.5,0,0,1,.5-.5H149a.51.51,0,0,1,.5.5A.5.5,0,0,1,149,81.25Z" fill="#fff"/><path d="M171.51,81.25H153.38a.5.5,0,0,1-.5-.5.51.51,0,0,1,.5-.5h18.13a.5.5,0,0,1,.5.5A.5.5,0,0,1,171.51,81.25Z" fill="#231f20"/><path d="M157.12,86.87H141.85a.5.5,0,0,1-.5-.5.5.5,0,0,1,.5-.5h15.27a.5.5,0,0,1,.5.5A.5.5,0,0,1,157.12,86.87Z" fill="#fff"/><path d="M190.14,86.87H160.55a.51.51,0,0,1-.5-.5.5.5,0,0,1,.5-.5h29.59a.5.5,0,0,1,.5.5A.5.5,0,0,1,190.14,86.87Z" fill="#231f20"/><path d="M210.32,86.87h-16a.51.51,0,0,1-.5-.5.5.5,0,0,1,.5-.5h16a.5.5,0,0,1,.5.5A.5.5,0,0,1,210.32,86.87Z" fill="#fff"/><path d="M163.57,92.89H141.85a.5.5,0,0,1-.5-.5.5.5,0,0,1,.5-.5h21.72a.51.51,0,0,1,.5.5A.5.5,0,0,1,163.57,92.89Z" fill="#fff"/><path d="M204.3,92.89H168.09a.5.5,0,0,1-.5-.5.5.5,0,0,1,.5-.5H204.3a.51.51,0,0,1,.5.5A.5.5,0,0,1,204.3,92.89Z" fill="#231f20"/><path d="M238.69,92.89h-29.2a.5.5,0,0,1-.5-.5.51.51,0,0,1,.5-.5h29.2a.5.5,0,0,1,.5.5A.5.5,0,0,1,238.69,92.89Z" fill="#fff"/><path d="M163.57,103.65H141.85a.5.5,0,0,1-.5-.5.5.5,0,0,1,.5-.5h21.72a.5.5,0,0,1,.5.5A.51.51,0,0,1,163.57,103.65Z" fill="#fff"/><path d="M175.35,103.65H167.7a.5.5,0,0,1-.5-.5.5.5,0,0,1,.5-.5h7.65a.5.5,0,0,1,.5.5A.51.51,0,0,1,175.35,103.65Z" fill="#231f20"/><path d="M194.32,103.65H179.05a.5.5,0,0,1-.5-.5.5.5,0,0,1,.5-.5h15.27a.5.5,0,0,1,.5.5A.5.5,0,0,1,194.32,103.65Z" fill="#231f20"/><path d="M156.19,109.26H141.85a.5.5,0,0,1-.5-.5.5.5,0,0,1,.5-.5h14.34a.5.5,0,0,1,.5.5A.51.51,0,0,1,156.19,109.26Z" fill="#fff"/><path d="M219.73,109.26h-59.8a.5.5,0,0,1-.5-.5.5.5,0,0,1,.5-.5h59.8a.5.5,0,0,1,.5.5A.5.5,0,0,1,219.73,109.26Z" fill="#231f20"/><path d="M255,109.26H224.25a.5.5,0,0,1-.5-.5.5.5,0,0,1,.5-.5H255a.5.5,0,0,1,.5.5A.51.51,0,0,1,255,109.26Z" fill="#231f20"/><path d="M193.54,115.54H140.71a.5.5,0,0,1-.5-.5.5.5,0,0,1,.5-.5h52.83a.5.5,0,0,1,.5.5A.5.5,0,0,1,193.54,115.54Z" fill="#fff"/><path d="M214.27,115.54H198.06a.5.5,0,0,1-.5-.5.51.51,0,0,1,.5-.5h16.21a.5.5,0,0,1,.5.5A.5.5,0,0,1,214.27,115.54Z" fill="#231f20"/><circle cx="129.25" cy="57.87" r="1.64" fill="#fff"/><circle cx="129.25" cy="63.82" r="1.64" fill="#fff"/><circle cx="129.25" cy="69.77" r="1.64" fill="#fff"/><circle cx="129.25" cy="80.86" r="1.64" fill="#fff"/><circle cx="129.25" cy="86.81" r="1.64" fill="#fff"/><circle cx="129.25" cy="92.76" r="1.64" fill="#fff"/><circle cx="129.25" cy="103.15" r="1.64" fill="#fff"/><circle cx="129.25" cy="109.1" r="1.64" fill="#fff"/><circle cx="129.25" cy="115.04" r="1.64" fill="#fff"/><rect x="59.67" y="47" width="40.56" height="36.21" fill="#fff"/><path d="M100.23,83.71H59.67a.5.5,0,0,1-.5-.5V47a.5.5,0,0,1,.5-.5h40.56a.51.51,0,0,1,.5.5V83.21A.5.5,0,0,1,100.23,83.71Zm-40.06-1H99.73V47.5H60.17Z" fill="#d1d3d4"/><path d="M72.77,72.47a.5.5,0,0,1-.33-.13l-7.09-6.25a.53.53,0,0,1-.17-.36.52.52,0,0,1,.14-.36l7.09-7.47a.5.5,0,0,1,.71,0,.49.49,0,0,1,0,.7L66.4,65.68l6.7,5.91a.51.51,0,0,1,.05.71A.52.52,0,0,1,72.77,72.47Z" fill="#d1d3d4"/><path d="M85.73,72.47a.5.5,0,0,1-.34-.88l6.7-5.91-6.73-7.09a.49.49,0,0,1,0-.7.51.51,0,0,1,.71,0l7.09,7.47a.47.47,0,0,1,.13.36.48.48,0,0,1-.16.36l-7.09,6.25A.5.5,0,0,1,85.73,72.47Z" fill="#d1d3d4"/><path d="M74.64,74.42a.46.46,0,0,1-.23-.06.49.49,0,0,1-.21-.67L83,56.77a.5.5,0,1,1,.88.47L75.08,74.15A.5.5,0,0,1,74.64,74.42Z" fill="#d1d3d4"/><rect x="293.41" y="48.76" width="62.72" height="92.46" fill="#fff"/><path d="M356.12,141.72H293.41a.5.5,0,0,1-.5-.5V48.76a.5.5,0,0,1,.5-.5h62.71a.5.5,0,0,1,.5.5v92.46A.5.5,0,0,1,356.12,141.72Zm-62.21-1h61.71V49.26H293.91Z" fill="#d1d3d4"/><path d="M356.12,55.36H293.41a.5.5,0,0,1,0-1h62.71a.5.5,0,0,1,0,1Z" fill="#d1d3d4"/><path d="M321.68,72.28H301.81a.5.5,0,0,1-.5-.5V60.66a.5.5,0,0,1,.5-.5h19.87a.5.5,0,0,1,.5.5V71.78A.5.5,0,0,1,321.68,72.28Zm-19.37-1h18.87V61.16H302.31Z" fill="#d1d3d4"/><path d="M349.63,98.21H329.76a.5.5,0,0,1-.5-.5V86.59a.5.5,0,0,1,.5-.5h19.87a.5.5,0,0,1,.5.5V97.71A.5.5,0,0,1,349.63,98.21Zm-19.37-1h18.87V87.09H330.26Z" fill="#d1d3d4"/><path d="M321.68,103.77H301.81a.5.5,0,0,1-.5-.5V92.15a.5.5,0,0,1,.5-.5h19.87a.51.51,0,0,1,.5.5v11.12A.5.5,0,0,1,321.68,103.77Zm-19.37-1h18.87V92.65H302.31Z" fill="#d1d3d4"/><path d="M336.61,133H316.74a.5.5,0,0,1-.5-.5V121.4a.5.5,0,0,1,.5-.5h19.87a.51.51,0,0,1,.5.5v11.12A.5.5,0,0,1,336.61,133Zm-19.37-1h18.87V121.9H317.24Z" fill="#d1d3d4"/><path d="M339.7,87.09a.5.5,0,0,1-.5-.5V80.85H311.74a.5.5,0,0,1-.5-.5V71.78a.5.5,0,0,1,.5-.5.5.5,0,0,1,.5.5v8.07H339.7a.51.51,0,0,1,.5.5v6.24A.5.5,0,0,1,339.7,87.09Z" fill="#d1d3d4"/><path d="M311.74,92.65a.5.5,0,0,1-.5-.5V80.35a.51.51,0,0,1,.5-.5.5.5,0,0,1,.5.5v11.8A.5.5,0,0,1,311.74,92.65Z" fill="#d1d3d4"/><path d="M327.51,121.39a.5.5,0,0,1-.5-.5v-7.26H311.74a.5.5,0,0,1-.5-.5v-9.86a.51.51,0,0,1,.5-.5.5.5,0,0,1,.5.5v9.36h15.27a.5.5,0,0,1,.5.5v7.76A.5.5,0,0,1,327.51,121.39Z" fill="#d1d3d4"/><path d="M100.23,52.37H59.67a.5.5,0,0,1-.5-.5.5.5,0,0,1,.5-.5h40.56a.51.51,0,0,1,.5.5A.5.5,0,0,1,100.23,52.37Z" fill="#d1d3d4"/><rect x="43.88" y="104.87" width="62.49" height="65.05" fill="#fff"/><path d="M106.36,170.42H43.88a.5.5,0,0,1-.5-.5v-65a.5.5,0,0,1,.5-.5h62.48a.5.5,0,0,1,.5.5v65A.5.5,0,0,1,106.36,170.42Zm-62-1h61.48v-64H44.38Z" fill="#d1d3d4"/><path d="M106.36,111.8H43.88a.5.5,0,0,1-.5-.5.5.5,0,0,1,.5-.5h62.48a.5.5,0,0,1,.5.5A.5.5,0,0,1,106.36,111.8Z" fill="#d1d3d4"/><path d="M57,117H49.35a.5.5,0,0,1-.5-.5.5.5,0,0,1,.5-.5H57a.5.5,0,0,1,.5.5A.5.5,0,0,1,57,117Z" fill="#d1d3d4"/><path d="M76.23,117H61a.5.5,0,0,1-.5-.5.51.51,0,0,1,.5-.5H76.23a.5.5,0,0,1,.5.5A.5.5,0,0,1,76.23,117Z" fill="#d1d3d4"/><path d="M80.82,122.79H65.59a.5.5,0,0,1-.5-.5.5.5,0,0,1,.5-.5H80.82a.5.5,0,0,1,.5.5A.5.5,0,0,1,80.82,122.79Z" fill="#d1d3d4"/><path d="M58.78,122.79H51.14a.5.5,0,0,1-.5-.5.51.51,0,0,1,.5-.5h7.64a.51.51,0,0,1,.5.5A.5.5,0,0,1,58.78,122.79Z" fill="#d1d3d4"/><path d="M59.07,128.58H52.93a.5.5,0,0,1-.5-.5.51.51,0,0,1,.5-.5h6.14a.51.51,0,0,1,.5.5A.5.5,0,0,1,59.07,128.58Z" fill="#d1d3d4"/><path d="M83.54,128.58H64.48a.5.5,0,0,1-.5-.5.5.5,0,0,1,.5-.5H83.54a.5.5,0,0,1,.5.5A.5.5,0,0,1,83.54,128.58Z" fill="#d1d3d4"/><path d="M62.36,134.37H54.73a.5.5,0,0,1-.5-.5.5.5,0,0,1,.5-.5h7.63a.5.5,0,0,1,.5.5A.5.5,0,0,1,62.36,134.37Z" fill="#d1d3d4"/><path d="M87.49,134.37H64.82a.5.5,0,0,1-.5-.5.5.5,0,0,1,.5-.5H87.49a.51.51,0,0,1,.5.5A.5.5,0,0,1,87.49,134.37Z" fill="#d1d3d4"/><path d="M60.33,140.16H52.7a.5.5,0,0,1-.5-.5.5.5,0,0,1,.5-.5h7.63a.5.5,0,0,1,.5.5A.5.5,0,0,1,60.33,140.16Z" fill="#d1d3d4"/><path d="M75.55,140.16H63.26a.5.5,0,0,1-.5-.5.5.5,0,0,1,.5-.5H75.55a.5.5,0,0,1,.5.5A.5.5,0,0,1,75.55,140.16Z" fill="#d1d3d4"/><path d="M92.54,140.16H80.25a.5.5,0,0,1-.5-.5.5.5,0,0,1,.5-.5H92.54a.5.5,0,0,1,.5.5A.5.5,0,0,1,92.54,140.16Z" fill="#d1d3d4"/><path d="M55.33,146H52.7a.5.5,0,0,1-.5-.5.5.5,0,0,1,.5-.5h2.63a.5.5,0,0,1,.5.5A.5.5,0,0,1,55.33,146Z" fill="#d1d3d4"/><path d="M75.55,146H59.81a.5.5,0,0,1-.5-.5.51.51,0,0,1,.5-.5H75.55a.5.5,0,0,1,.5.5A.5.5,0,0,1,75.55,146Z" fill="#d1d3d4"/><path d="M81.75,146H77.36a.5.5,0,0,1-.5-.5.5.5,0,0,1,.5-.5h4.39a.5.5,0,0,1,.5.5A.5.5,0,0,1,81.75,146Z" fill="#d1d3d4"/><path d="M56.83,151.74H52.7a.5.5,0,0,1-.5-.5.5.5,0,0,1,.5-.5h4.13a.5.5,0,0,1,.5.5A.5.5,0,0,1,56.83,151.74Z" fill="#d1d3d4"/><path d="M79.4,151.74H60.72a.5.5,0,0,1-.5-.5.51.51,0,0,1,.5-.5H79.4a.5.5,0,0,1,.5.5A.5.5,0,0,1,79.4,151.74Z" fill="#d1d3d4"/><path d="M88.88,151.74H81.25a.5.5,0,0,1-.5-.5.5.5,0,0,1,.5-.5h7.63a.5.5,0,0,1,.5.5A.5.5,0,0,1,88.88,151.74Z" fill="#d1d3d4"/><path d="M55,157.53H50.91a.5.5,0,0,1-.5-.5.5.5,0,0,1,.5-.5H55a.51.51,0,0,1,.5.5A.5.5,0,0,1,55,157.53Z" fill="#d1d3d4"/><path d="M77.36,157.53H59.67a.5.5,0,0,1-.5-.5.51.51,0,0,1,.5-.5H77.36a.5.5,0,0,1,.5.5A.5.5,0,0,1,77.36,157.53Z" fill="#d1d3d4"/><path d="M58.54,163.32H50.91a.5.5,0,0,1-.5-.5.5.5,0,0,1,.5-.5h7.63a.5.5,0,0,1,.5.5A.5.5,0,0,1,58.54,163.32Z" fill="#d1d3d4"/><path d="M100.89,134.37H90.57a.5.5,0,0,1-.5-.5.5.5,0,0,1,.5-.5h10.32a.5.5,0,0,1,.5.5A.5.5,0,0,1,100.89,134.37Z" fill="#d1d3d4"/><path d="M85.44,117c-5.17,0-5.28,0-5.34,0a.5.5,0,0,1-.33-.62.49.49,0,0,1,.55-.35c.61,0,10.6,0,17.2,0h0a.5.5,0,0,1,.5.5.5.5,0,0,1-.5.5C91.83,117,88,117,85.44,117Z" fill="#d1d3d4"/><path d="M87.13,157.53H79.4a.5.5,0,0,1-.5-.5.51.51,0,0,1,.5-.5h7.73a.51.51,0,0,1,.5.5A.5.5,0,0,1,87.13,157.53Z" fill="#d1d3d4"/><path d="M69.41,163.32H63.72a.5.5,0,0,1-.5-.5.51.51,0,0,1,.5-.5h5.69a.51.51,0,0,1,.5.5A.5.5,0,0,1,69.41,163.32Z" fill="#d1d3d4"/><path d="M85.07,163.32H71.56a.5.5,0,0,1-.5-.5.51.51,0,0,1,.5-.5H85.07a.51.51,0,0,1,.5.5A.5.5,0,0,1,85.07,163.32Z" fill="#d1d3d4"/><circle cx="322.18" cy="177.89" r="25.22" fill="#fff"/><path d="M322.18,203.61a25.72,25.72,0,1,1,25.72-25.72A25.75,25.75,0,0,1,322.18,203.61Zm0-50.43a24.72,24.72,0,1,0,24.72,24.71A24.74,24.74,0,0,0,322.18,153.18Z" fill="#231f20"/><rect x="328.01" y="186.04" width="4.97" height="11.02" rx="2.48" transform="translate(712.49 191.38) rotate(149.88)" fill="#fff"/><path d="M332,197.15a2.86,2.86,0,0,1-.77-.1,2.94,2.94,0,0,1-1.81-1.39l-3-5.23a3,3,0,0,1,1.08-4.08,3,3,0,0,1,4.08,1.08l3,5.24a3,3,0,0,1-1.09,4.08A3,3,0,0,1,332,197.15ZM329,187a2.06,2.06,0,0,0-1,.26,2,2,0,0,0-.72,2.72l3,5.23a2,2,0,0,0,3.43-2l-3-5.23a2,2,0,0,0-1.2-.93A2.24,2.24,0,0,0,329,187Z" fill="#231f20"/><circle cx="322.18" cy="177.21" r="15.83" fill="#fff"/><path d="M322.21,193.55A16.41,16.41,0,0,1,318,193a16.24,16.24,0,0,1-9.94-7.59h0a16.33,16.33,0,1,1,14.16,8.14Zm0-31.66a15.32,15.32,0,0,0-13.24,23h0a15.33,15.33,0,1,0,13.24-23Z" fill="#231f20"/><circle cx="322.18" cy="177.21" r="12.99" fill="#231f20"/></g></svg>