<svg width="125" height="125" viewBox="0 0 125 125" fill="none" xmlns="http://www.w3.org/2000/svg">
<circle cx="62.5" cy="62.5" r="62" fill="white" stroke="#363333"/>
<path d="M92.3801 53.8C92.3801 57.5333 91.4801 61.0333 89.6801 64.3C87.9467 67.5667 85.1801 70.2 81.3801 72.2C77.6467 74.2 72.9134 75.2 67.1801 75.2H55.4801V102H41.4801V32.2H67.1801C72.5801 32.2 77.1801 33.1333 80.9801 35C84.7801 36.8667 87.6134 39.4333 89.4801 42.7C91.4134 45.9667 92.3801 49.6667 92.3801 53.8ZM66.5801 63.9C70.4467 63.9 73.3134 63.0333 75.1801 61.3C77.0467 59.5 77.9801 57 77.9801 53.8C77.9801 47 74.1801 43.6 66.5801 43.6H55.4801V63.9H66.5801Z" fill="#363333"/>
</svg>
