<svg version="1.0" xmlns="http://www.w3.org/2000/svg"
 width="539.000000pt" height="549.000000pt" viewBox="0 0 539.000000 549.000000"
 preserveAspectRatio="xMidYMid meet">
<g transform="translate(0.000000,549.000000) scale(0.100000,-0.100000)"
fill="#000000" stroke="none">
<path d="M2470 5484 c-170 -20 -221 -28 -328 -50 -489 -100 -950 -351 -1318
-719 -152 -152 -232 -250 -356 -435 -238 -357 -390 -773 -444 -1219 -20 -171
-15 -559 11 -721 97 -615 374 -1156 811 -1581 350 -340 742 -560 1209 -679
245 -62 353 -75 645 -75 285 0 393 12 630 71 781 191 1440 733 1791 1469 193
405 279 818 266 1270 -13 438 -115 835 -313 1215 -129 248 -292 468 -494 670
-356 357 -761 588 -1243 711 -210 53 -349 70 -602 74 -126 2 -246 1 -265 -1z
m415 -264 c419 -39 794 -170 1129 -394 1058 -708 1420 -2111 834 -3236 -566
-1088 -1815 -1593 -2943 -1191 -345 124 -638 312 -910 585 -374 376 -618 868
-701 1411 -26 167 -26 542 -1 705 42 272 118 513 236 755 198 404 484 731 856
980 141 94 385 213 554 269 197 65 349 96 591 119 80 8 252 6 355 -3z"/>
<path d="M3486 4529 c-68 -16 -182 -77 -258 -138 -125 -99 -209 -211 -303
-406 -77 -160 -105 -249 -170 -542 -32 -144 -61 -266 -64 -272 -4 -6 -135 8
-371 40 -200 27 -367 45 -371 41 -7 -9 -52 -212 -47 -216 1 -2 165 -25 363
-51 198 -26 363 -51 367 -54 7 -6 -54 -296 -64 -307 -3 -3 -169 17 -369 44
-200 27 -365 49 -366 48 -4 -4 -52 -220 -50 -223 2 -1 166 -24 366 -52 199
-27 364 -51 366 -53 2 -2 -33 -170 -79 -373 -175 -774 -240 -927 -431 -1020
-72 -36 -171 -45 -225 -22 l-35 14 45 12 c104 29 199 119 240 228 22 57 54
212 46 220 -2 3 -55 -11 -118 -30 -62 -20 -162 -47 -223 -61 -135 -31 -191
-59 -229 -114 -24 -33 -31 -56 -34 -105 -3 -55 -1 -67 25 -104 54 -80 178
-155 313 -189 151 -38 327 13 491 144 114 90 197 199 284 372 86 171 114 262
196 624 44 193 82 352 84 355 3 3 166 -17 361 -43 196 -26 359 -44 363 -39 13
14 52 206 44 213 -6 6 -688 101 -714 100 -3 0 10 72 30 159 35 159 35 160 60
155 113 -20 696 -93 701 -87 8 10 53 213 48 218 -1 1 -165 24 -364 51 l-360
48 12 55 c7 31 38 169 69 306 109 482 189 714 278 811 71 78 177 129 266 129
36 -1 80 -7 96 -14 l30 -13 -46 -12 c-98 -26 -175 -90 -225 -187 -29 -58 -64
-186 -64 -235 l0 -33 83 29 c45 16 142 42 215 59 135 31 211 58 246 89 27 25
66 111 66 150 0 104 -120 213 -299 271 -69 23 -201 27 -275 10z"/>
</g>
</svg>