<svg xmlns="http://www.w3.org/2000/svg" viewBox="0 0 400 300"><g id="_004" data-name="004"><polyline points="284.87 279.59 285.99 246.55 261.22 242.8 259.71 279.96" fill="#fff"/><path d="M259.71,280.47h0a.5.5,0,0,1-.48-.51l1.51-37.17a.49.49,0,0,1,.18-.37.46.46,0,0,1,.39-.1l24.78,3.75a.5.5,0,0,1,.42.51l-1.12,33a.5.5,0,0,1-.52.48.5.5,0,0,1-.48-.52L285.48,247l-23.79-3.6L260.21,280A.5.5,0,0,1,259.71,280.47Z" fill="#231f20"/><polyline points="163.99 265.32 192.33 231.72 217.67 237.92 185.38 270.95" fill="#fff"/><path d="M185.38,271.46a.5.5,0,0,1-.35-.15.49.49,0,0,1,0-.7L216.7,238.2l-24.19-5.92-28.14,33.37a.52.52,0,0,1-.71.06.51.51,0,0,1-.06-.71L192,231.4a.49.49,0,0,1,.5-.16l25.34,6.19a.53.53,0,0,1,.36.35.52.52,0,0,1-.12.49l-32.29,33A.52.52,0,0,1,185.38,271.46Z" fill="#231f20"/><path d="M273.82,96.17s-38.52,10.56-38.15,12.06,7.89,29.28,7.89,29.28l24-6Z" fill="#000000"/><path d="M274.6,95.94s-12.23,3.28-19.73,7.6-5.44,50.36-5.44,50.36L305,165.1s10.58-29.9,9.86-43.55S305.7,88.54,274.6,95.94Z" fill="#000000"/><path d="M246.93,131.46a.43.43,0,0,1-.19,0,.52.52,0,0,1-.28-.67c3.63-8.93,9.1-22.55,9.25-23.5a.5.5,0,0,1,.52-.49.53.53,0,0,1,.51.53c0,.86-6.52,17-9.33,23.85A.51.51,0,0,1,246.93,131.46Z" fill="#231f20"/><path d="M278,90.33l-3.92,11.78s-.1,7,7.67,6.39a15.54,15.54,0,0,0,11.48-6.76l3.28-21.12a6.3,6.3,0,0,1-2.12-4.05,10.21,10.21,0,0,1,.1-3.53,17.14,17.14,0,0,1,1.73-4.46,16.48,16.48,0,0,1-9.61-5.15,26.58,26.58,0,0,1-1.68-2.29c-.24-.37-5.17,1.94-5.69,2.2A14.5,14.5,0,0,0,273,68.6,18.46,18.46,0,0,0,271.1,75a50.08,50.08,0,0,0-.88,9.3C270.28,90.25,278,90.33,278,90.33Z" fill="#fff"/><path d="M280.78,109a7.06,7.06,0,0,1-5-1.75,7.47,7.47,0,0,1-2.14-5.14.7.7,0,0,1,0-.14l3.73-11.21c-1.9-.18-7.55-1.15-7.6-6.43a50.49,50.49,0,0,1,.89-9.37,18.89,18.89,0,0,1,2-6.58A14.78,14.78,0,0,1,279,62.93c5.75-2.84,6.13-2.26,6.27-2,0,0,1,1.56,1.64,2.24a15.88,15.88,0,0,0,9.36,5,.45.45,0,0,1,.31.66,16.73,16.73,0,0,0-1.69,4.34,10.1,10.1,0,0,0-.09,3.38,5.79,5.79,0,0,0,1.94,3.75.43.43,0,0,1,.18.43l-3.28,21.12a.49.49,0,0,1-.06.17,15.83,15.83,0,0,1-11.84,7C281.43,109,281.1,109,280.78,109Zm-6.26-6.81a6.61,6.61,0,0,0,1.85,4.4,6.69,6.69,0,0,0,5.32,1.46,15.2,15.2,0,0,0,11.08-6.46L296,80.81a6.87,6.87,0,0,1-2.08-4.17A10.65,10.65,0,0,1,294,73a16.24,16.24,0,0,1,1.5-4,16.73,16.73,0,0,1-9.28-5.16c-.52-.59-1.29-1.73-1.59-2.17a43.34,43.34,0,0,0-5.23,2.18,14.22,14.22,0,0,0-6,5.08,18.4,18.4,0,0,0-1.88,6.27,50.62,50.62,0,0,0-.88,9.21c.06,5.42,7,5.56,7.32,5.57a.44.44,0,0,1,.36.19.46.46,0,0,1,.07.41Z" fill="#231f20"/><path d="M292.37,78.73a4.4,4.4,0,0,1,1.81-2,7.51,7.51,0,0,1,2.47-.78,3.06,3.06,0,0,1,1.41,0,2.51,2.51,0,0,1,.87.49,3.3,3.3,0,0,1,1.31,1.89,4,4,0,0,1-.21,1.88,7.8,7.8,0,0,1-.82,1.9,5.22,5.22,0,0,1-7.26,1.6" fill="#fff"/><path d="M294.8,84.87a5.67,5.67,0,0,1-3.07-.9.4.4,0,0,1-.12-.55.39.39,0,0,1,.55-.12,4.85,4.85,0,0,0,3.67.66,4.9,4.9,0,0,0,3-2.14,7.37,7.37,0,0,0,.78-1.81,3.74,3.74,0,0,0,.2-1.68,3,3,0,0,0-1.16-1.66,2.42,2.42,0,0,0-.74-.42,2.87,2.87,0,0,0-1.23,0,7.32,7.32,0,0,0-2.34.74,3.93,3.93,0,0,0-1.64,1.85.39.39,0,0,1-.52.21.38.38,0,0,1-.21-.52,4.69,4.69,0,0,1,2-2.23,8.13,8.13,0,0,1,2.59-.83,3.6,3.6,0,0,1,1.6,0,3.32,3.32,0,0,1,1,.55,3.71,3.71,0,0,1,1.45,2.14,4.27,4.27,0,0,1-.22,2.06,8.21,8.21,0,0,1-.86,2,5.65,5.65,0,0,1-3.55,2.5A5.44,5.44,0,0,1,294.8,84.87Z" fill="#231f20"/><path d="M276,96.55a12.44,12.44,0,0,0,8.11-2c3.8-2.65,4-6,4-6A22.11,22.11,0,0,1,278,90.33Z" fill="#231f20"/><path d="M277.14,97.05a8.88,8.88,0,0,1-1.22-.07.44.44,0,0,1-.36-.57l2-6.21a.46.46,0,0,1,.44-.31,21.91,21.91,0,0,0,9.87-1.82.46.46,0,0,1,.44,0,.45.45,0,0,1,.2.39c0,.15-.24,3.64-4.17,6.39A12.71,12.71,0,0,1,277.14,97.05Zm-.57-.9a12,12,0,0,0,7.26-2,8.8,8.8,0,0,0,3.66-4.94,23.44,23.44,0,0,1-9.19,1.59Z" fill="#231f20"/><path d="M283.21,70.12s-5,5-4.3,6.24,3.45,1,3.45,1" fill="#fff"/><path d="M282,77.84c-.86,0-2.78-.13-3.46-1.25-.82-1.34,2.78-5.19,4.37-6.78a.44.44,0,0,1,.63,0,.45.45,0,0,1,0,.63C281,73,279,75.61,279.29,76.13c.47.79,2.4.85,3,.82a.46.46,0,0,1,.47.42.44.44,0,0,1-.42.46Z" fill="#231f20"/><path d="M275.54,80.29l9.73-.13s-.44,6.6-6.1,7S275.54,80.29,275.54,80.29Z" fill="#231f20"/><path d="M285.51,70.13a1.74,1.74,0,0,1,1.41-1c1.12-.18,1.69,1.13,1.69,1.13" fill="#fff"/><path d="M288.61,70.66a.44.44,0,0,1-.41-.26s-.44-1-1.21-.87a1.32,1.32,0,0,0-1.06.74.45.45,0,0,1-.57.27.44.44,0,0,1-.27-.55,2.15,2.15,0,0,1,1.75-1.33c1.44-.24,2.14,1.32,2.17,1.39a.44.44,0,0,1-.23.58Z" fill="#231f20"/><path d="M276.5,69.28a1.74,1.74,0,0,1,1.41-1c1.12-.19,1.69,1.13,1.69,1.13" fill="#fff"/><path d="M279.6,69.82a.44.44,0,0,1-.41-.27s-.44-1-1.21-.86a1.3,1.3,0,0,0-1.06.74.45.45,0,0,1-.57.27.45.45,0,0,1-.27-.56,2.17,2.17,0,0,1,1.75-1.33c1.44-.24,2.14,1.33,2.17,1.39a.43.43,0,0,1-.23.58A.38.38,0,0,1,279.6,69.82Z" fill="#231f20"/><polygon points="303.89 164.39 295.93 270.6 163.61 243.55 251.57 153.31 303.89 164.39" fill="#231f20"/><polygon points="246.93 86.48 91.53 112.38 159.89 42.9 246.93 86.48" fill="#231f20"/><path d="M91.53,112.88a.5.5,0,0,1-.36-.85l68.36-69.49a.5.5,0,0,1,.58-.09l87,43.59a.47.47,0,0,1,.27.52A.5.5,0,0,1,247,87L91.61,112.87ZM160,43.51,93,111.63,245.33,86.24Z" fill="#231f20"/><polygon points="261.28 190.73 114.69 217.1 91.73 113.3 247.05 87.4 261.28 190.73" fill="#231f20"/><path d="M114.7,217.6a.49.49,0,0,1-.49-.39l-23-103.81a.51.51,0,0,1,.07-.38.49.49,0,0,1,.34-.22L247,86.9a.52.52,0,0,1,.38.09.5.5,0,0,1,.2.34l14.23,103.33a.49.49,0,0,1-.41.56L114.78,217.59ZM92.33,113.7l22.75,102.83,145.64-26.21L246.63,88Z" fill="#231f20"/><path d="M127,182.75S100,99.41,87,74.07L231.73,34.65l9,129Z" fill="#000000"/><path d="M112.35,88.65a.49.49,0,0,1-.48-.38.5.5,0,0,1,.35-.61L218.65,60.07a.5.5,0,1,1,.25,1L112.47,88.63Z" fill="#fff"/><path d="M116.85,106.1a.48.48,0,0,1-.48-.39.49.49,0,0,1,.38-.59L219.8,82a.5.5,0,0,1,.21,1L117,106.09Z" fill="#fff"/><path d="M125.68,122.43a.49.49,0,0,1-.49-.4.5.5,0,0,1,.39-.59l98.55-19.14a.49.49,0,0,1,.58.39.49.49,0,0,1-.39.59l-98.55,19.14Z" fill="#fff"/><path d="M130.37,143.27a.5.5,0,0,1-.08-1l93.48-15.21a.5.5,0,0,1,.16,1l-93.48,15.2Z" fill="#fff"/><polygon points="179.65 153.45 91.73 113.3 114.69 217.1 261.28 190.73 247.05 87.4 179.65 153.45" fill="#fff"/><path d="M114.7,217.6a.49.49,0,0,1-.49-.39l-23-103.81a.5.5,0,0,1,.7-.56l87.61,40L246.7,87a.5.5,0,0,1,.85.29l14.23,103.33a.49.49,0,0,1-.41.56L114.78,217.59ZM92.43,114.17l22.65,102.36,145.64-26.21-14-101.87L180,153.81a.5.5,0,0,1-.56.09Z" fill="#231f20"/><polygon points="261.29 190.73 114.7 217.1 179.66 153.45 261.29 190.73" fill="#fff"/><path d="M114.7,217.6a.5.5,0,0,1-.45-.27.49.49,0,0,1,.1-.58l65-63.66a.5.5,0,0,1,.56-.09l81.62,37.27a.51.51,0,0,1,.29.52.5.5,0,0,1-.4.43L114.79,217.6Zm65.06-63.55-63.55,62.27,143.41-25.8Z" fill="#231f20"/><polygon points="261.29 190.73 114.7 217.1 179.66 153.45 261.29 190.73" fill="#fff"/><path d="M114.7,217.6a.5.5,0,0,1-.45-.27.49.49,0,0,1,.1-.58l65-63.66a.5.5,0,0,1,.56-.09l81.62,37.27a.51.51,0,0,1,.29.52.5.5,0,0,1-.4.43L114.79,217.6Zm65.06-63.55-63.55,62.27,143.41-25.8Z" fill="#231f20"/><path d="M251.09,47.7s-2.13,8-8.86,8.2c0,0,7.1,2,8.59,8.66a12.34,12.34,0,0,1,8.24-7.71A13.93,13.93,0,0,1,251.09,47.7Z" fill="#d1d3d4"/><path d="M57.83,108.49s5.37,7.68.61,13.62c0,0,6.89-4.68,13.73-1.11a13.92,13.92,0,0,1-.65-12.72S65.67,111.82,57.83,108.49Z" fill="#d1d3d4"/><path d="M106,45.87s1.13,13.38-9,17.31c0,0,11.89-.84,17.8,8.5,0,0-.42-10.24,8.34-16.21C123.06,55.47,113.28,55.65,106,45.87Z" fill="#d1d3d4"/><path d="M298.46,113.21s-77.71,39.41-89.54,41.67-25.9-1.69-25.34,1.69,7.32,5.06,7.32,5.06-21.39,3.38-20.27,5.64,15.21-.57,15.21-.57-17.46,5.07-13.52,7.32,16.33-2.81,16.33-2.81-18.58,9.57-13.51,10.13,14.08-4.5,14.08-4.5-14.08,7.32-8.45,7.88,89.53-29.28,117.69-46.17" fill="#fff"/><path d="M180.94,185.23h-.22c-1.05-.11-1.65-.47-1.76-1.07-.17-.9,1.08-2.16,2.82-3.44a16.84,16.84,0,0,1-6.7,1.13c-.77-.09-1.21-.38-1.3-.89-.28-1.5,4.64-4.67,9.21-7.26-3.87,1.13-8.64,2.07-10.92.77a1.34,1.34,0,0,1-.82-1.34c.19-1.58,4.25-3.43,8.16-4.85-4.1.51-8.49.68-9.23-.78a.9.9,0,0,1,0-.83c1-2,13.15-4.27,18.58-5.18-2.15-.81-5.28-2.4-5.69-4.83a1.33,1.33,0,0,1,.32-1.16c1-1.11,4.06-.93,8.72-.66,4.92.28,11,.63,16.7-.44,11.62-2.22,88.63-41.24,89.4-41.63a.51.51,0,0,1,.68.22.5.5,0,0,1-.22.67c-3.18,1.61-77.91,39.48-89.67,41.72-5.78,1.1-12,.74-17,.46-3.73-.22-7.25-.42-7.92.32a.35.35,0,0,0-.07.33c.42,2.51,5.15,4.22,6.95,4.67a.5.5,0,0,1-.05,1c-9.21,1.45-19.44,3.77-19.9,5,.59,1.1,8.07.41,14.66-.91a.5.5,0,0,1,.24,1c-6.49,1.88-13.58,4.73-13.74,6.06,0,.13.2.27.33.35,3.06,1.75,12.51-1.46,15.89-2.85a.51.51,0,0,1,.65.26.5.5,0,0,1-.23.65c-6.73,3.47-14,7.92-14.12,9.11a3.51,3.51,0,0,0,.43.09c3.78.42,10-2.51,12.61-3.83l1.18-.63a.5.5,0,0,1,.67.21.49.49,0,0,1-.19.67c-.08,0-.54.31-1.26.68-4.67,2.54-8.41,5.24-8.26,6,0,0,.18.19.88.26H181c3,0,23.51-6.52,50-16.52,14.48-5.46,50-19.27,67.21-29.59a.5.5,0,1,1,.52.85C271.57,155.26,188.85,185.23,180.94,185.23Z" fill="#231f20"/><path d="M284.1,146.52s-12-28.15-10.89-28.53,24-15.39,25.91-14.26,9,22.9,6.75,29.28S284.1,146.52,284.1,146.52Z" fill="#000000"/><path d="M287.1,146.66a.52.52,0,0,1-.49-.35.52.52,0,0,1,.33-.65c.17-.06,16.83-5.68,23.41-14.1a.51.51,0,0,1,.72-.08.5.5,0,0,1,.09.72c-6.77,8.66-23.2,14.21-23.89,14.44A.5.5,0,0,1,287.1,146.66Z" fill="#231f20"/><path d="M300.41,85.49a.51.51,0,0,1-.13-1,13,13,0,0,0,8.33-7.57,20.36,20.36,0,0,0,1-11.61,19.72,19.72,0,0,0-4.7-10.12,12.33,12.33,0,0,0-10-4l-.73.1a11,11,0,0,1-1.65.15,10.56,10.56,0,0,1-2-.29l-.43-.09A21.34,21.34,0,0,0,265.2,77.11c.24,1,.82,2.59,2.05,2.74a.5.5,0,0,1,.45.57.51.51,0,0,1-.57.45c-1.37-.17-2.41-1.41-2.93-3.51A22.38,22.38,0,0,1,290.32,50l.45.09a9.19,9.19,0,0,0,1.84.27,11,11,0,0,0,1.48-.14c.26,0,.51-.08.77-.1a13.12,13.12,0,0,1,10.83,4.33,20.69,20.69,0,0,1,5,10.65,21.34,21.34,0,0,1-1.09,12.2,14,14,0,0,1-9,8.16Z" fill="#231f20"/><path d="M292.6,50.9s5.2-3.86,13.65-1.8S317.89,66.56,310,74.82C310,74.82,311.23,52.31,292.6,50.9Z" fill="#231f20"/><path d="M322.67,99.18h-.05a19.94,19.94,0,0,1-11-4.15,13.14,13.14,0,0,1-5-10.53.5.5,0,0,1,.54-.49.51.51,0,0,1,.49.54,12.1,12.1,0,0,0,4.6,9.68,18.11,18.11,0,0,0,8.41,3.66,6.26,6.26,0,0,1-1.54-3.38,11.93,11.93,0,0,1,.85-5.56,54.28,54.28,0,0,1,4.39-8.59c2.49-4.25,4.84-8.26,5.36-12.92a16.59,16.59,0,0,0-20.85-17.87.53.53,0,0,1-.64-.36.51.51,0,0,1,.36-.63,17.63,17.63,0,0,1,22.16,19c-.55,4.87-3.07,9.16-5.5,13.32A53.92,53.92,0,0,0,321,89.29a10.55,10.55,0,0,0-.8,5.07,4.73,4.73,0,0,0,2.67,3.82.52.52,0,0,1-.19,1Z" fill="#231f20"/><path d="M276.78,122.17a.52.52,0,0,1-.27-1l20.55-12.67a.52.52,0,0,1,.71.17.51.51,0,0,1-.17.71l-20.55,12.67A.53.53,0,0,1,276.78,122.17Z" fill="#231f20"/><line x1="84.21" y1="157.39" x2="53.24" y2="159.08" fill="#fff"/><path d="M53.24,159.54a.46.46,0,0,1,0-.92l31-1.69a.44.44,0,0,1,.49.44.46.46,0,0,1-.43.48l-31,1.69Z" fill="#d1d3d4"/><line x1="142.77" y1="230.6" x2="127.57" y2="254.25" fill="#fff"/><path d="M127.57,254.71a.45.45,0,0,1-.25-.07.47.47,0,0,1-.14-.64l15.21-23.65a.46.46,0,1,1,.77.5L128,254.5A.46.46,0,0,1,127.57,254.71Z" fill="#d1d3d4"/><line x1="93.22" y1="203.01" x2="70.13" y2="215.96" fill="#fff"/><path d="M70.13,216.42a.46.46,0,0,1-.4-.24.45.45,0,0,1,.18-.62L93,202.6a.47.47,0,0,1,.63.18.46.46,0,0,1-.17.63l-23.09,13A.46.46,0,0,1,70.13,216.42Z" fill="#d1d3d4"/><line x1="241.32" y1="36.32" x2="246.95" y2="21.12" fill="#fff"/><path d="M241.32,36.78a.46.46,0,0,1-.43-.62L246.52,21a.46.46,0,0,1,.86.32l-5.63,15.2A.45.45,0,0,1,241.32,36.78Z" fill="#d1d3d4"/><line x1="326.35" y1="128.11" x2="350.56" y2="124.17" fill="#fff"/><path d="M326.35,128.57a.45.45,0,0,1-.45-.38.46.46,0,0,1,.38-.53l24.21-4a.47.47,0,0,1,.53.38.46.46,0,0,1-.38.53l-24.22,3.95Z" fill="#d1d3d4"/><line x1="310.58" y1="209.2" x2="325.79" y2="228.35" fill="#fff"/><path d="M325.79,228.81a.44.44,0,0,1-.36-.18l-15.21-19.14a.47.47,0,0,1,.08-.65.45.45,0,0,1,.64.07l15.21,19.15a.46.46,0,0,1-.08.65A.48.48,0,0,1,325.79,228.81Z" fill="#d1d3d4"/><line x1="89.08" y1="65.77" x2="78.21" y2="56.43" fill="#fff"/><path d="M89.08,66.23a.45.45,0,0,1-.3-.11L77.91,56.78a.47.47,0,0,1,0-.65.45.45,0,0,1,.65-.05l10.87,9.34a.45.45,0,0,1,.05.65A.44.44,0,0,1,89.08,66.23Z" fill="#d1d3d4"/><path d="M280.46,182.1a.5.5,0,0,1-.24-.06.49.49,0,0,1-.2-.67l10.89-19.9a.49.49,0,0,1,.56-.24.48.48,0,0,1,.37.48v17.64a.5.5,0,1,1-1,0V163.66l-10,18.19A.5.5,0,0,1,280.46,182.1Z" fill="#fff"/></g></svg>