<svg xmlns="http://www.w3.org/2000/svg" viewBox="0 0 400 300"><g id="_289_note_taking_flatline" data-name="#289_note_taking_flatline"><rect x="90.21" y="46.72" width="57.94" height="55.02" fill="#fff"/><path d="M148.14,102.26H90.21a.51.51,0,0,1-.52-.51v-55a.51.51,0,0,1,.52-.51h57.93a.51.51,0,0,1,.52.51v55A.51.51,0,0,1,148.14,102.26Zm-57.42-1h56.91v-54H90.72Z" fill="#d1d3d4"/><path d="M136.85,56.52H106.5a.52.52,0,1,1,0-1h30.35a.52.52,0,1,1,0,1Z" fill="#d1d3d4"/><path d="M101.12,56.52H100a.52.52,0,0,1,0-1h1.1a.52.52,0,1,1,0,1Z" fill="#d1d3d4"/><path d="M125.36,63.42H106.5a.52.52,0,1,1,0-1h18.86a.52.52,0,1,1,0,1Z" fill="#d1d3d4"/><path d="M101.12,63.42H100a.52.52,0,0,1,0-1h1.1a.52.52,0,1,1,0,1Z" fill="#d1d3d4"/><path d="M139.85,70.33H106.5a.52.52,0,0,1-.52-.52.52.52,0,0,1,.52-.52h33.35a.53.53,0,0,1,.52.52A.52.52,0,0,1,139.85,70.33Z" fill="#d1d3d4"/><path d="M101.12,70.33H100a.51.51,0,0,1-.51-.52.52.52,0,0,1,.51-.52h1.1a.52.52,0,0,1,.52.52A.52.52,0,0,1,101.12,70.33Z" fill="#d1d3d4"/><path d="M129.31,77.23H106.5a.52.52,0,1,1,0-1h22.81a.52.52,0,0,1,0,1Z" fill="#d1d3d4"/><path d="M101.12,77.23H100a.52.52,0,0,1,0-1h1.1a.52.52,0,1,1,0,1Z" fill="#d1d3d4"/><path d="M137.85,84.14H106.5a.52.52,0,0,1,0-1h31.35a.52.52,0,0,1,0,1Z" fill="#d1d3d4"/><path d="M101.12,84.14H100a.52.52,0,0,1,0-1h1.1a.52.52,0,1,1,0,1Z" fill="#d1d3d4"/><path d="M134.09,91H106.5a.52.52,0,1,1,0-1h27.59a.52.52,0,1,1,0,1Z" fill="#d1d3d4"/><path d="M101.12,91H100a.52.52,0,0,1,0-1h1.1a.52.52,0,1,1,0,1Z" fill="#d1d3d4"/><rect x="265.33" y="45.71" width="41.9" height="60.84" fill="#fff"/><path d="M307.22,107.06H265.33a.51.51,0,0,1-.52-.51V45.71a.52.52,0,0,1,.52-.52h41.89a.52.52,0,0,1,.52.52v60.84A.51.51,0,0,1,307.22,107.06Zm-41.38-1h40.87V46.23H265.84Z" fill="#d1d3d4"/><rect x="270.34" y="53.76" width="8.34" height="8.34" fill="#fff"/><path d="M278.68,62.62h-8.34a.52.52,0,0,1-.52-.52V53.76a.52.52,0,0,1,.52-.52h8.34a.51.51,0,0,1,.51.52V62.1A.52.52,0,0,1,278.68,62.62Zm-7.83-1h7.31V54.27h-7.31Z" fill="#d1d3d4"/><path d="M273.65,60.51a.3.3,0,0,1-.13,0,.52.52,0,0,1-.34-.29l-1.11-2.61a.52.52,0,0,1,.95-.4l.86,2,6.21-4.51a.51.51,0,0,1,.72.12.51.51,0,0,1-.12.72L274,60.41A.5.5,0,0,1,273.65,60.51Z" fill="#d1d3d4"/><path d="M302.21,58.07H283.5a.52.52,0,1,1,0-1h18.71a.52.52,0,1,1,0,1Z" fill="#d1d3d4"/><rect x="270.34" y="65.89" width="8.34" height="8.34" fill="#fff"/><path d="M278.68,74.75h-8.34a.52.52,0,0,1-.52-.52V65.89a.51.51,0,0,1,.52-.51h8.34a.51.51,0,0,1,.51.51v8.34A.51.51,0,0,1,278.68,74.75Zm-7.83-1h7.31V66.41h-7.31Z" fill="#d1d3d4"/><path d="M273.65,72.64h-.13a.53.53,0,0,1-.34-.3l-1.11-2.6a.52.52,0,0,1,.95-.41l.86,2,6.21-4.51a.52.52,0,0,1,.72.12.51.51,0,0,1-.12.72L274,72.55A.56.56,0,0,1,273.65,72.64Z" fill="#d1d3d4"/><path d="M302.21,70.2H283.5a.52.52,0,1,1,0-1h18.71a.52.52,0,1,1,0,1Z" fill="#d1d3d4"/><rect x="270.34" y="78.02" width="8.34" height="8.34" fill="#fff"/><path d="M278.68,86.88h-8.34a.51.51,0,0,1-.52-.51V78a.51.51,0,0,1,.52-.51h8.34a.51.51,0,0,1,.51.51v8.35A.51.51,0,0,1,278.68,86.88Zm-7.83-1h7.31V78.54h-7.31Z" fill="#d1d3d4"/><path d="M273.65,84.78l-.13,0a.51.51,0,0,1-.34-.3l-1.11-2.6a.52.52,0,0,1,.28-.68.51.51,0,0,1,.67.28l.86,2,6.21-4.5a.51.51,0,1,1,.6.83L274,84.68A.5.5,0,0,1,273.65,84.78Z" fill="#d1d3d4"/><path d="M302.21,82.33H283.5a.52.52,0,1,1,0-1h18.71a.52.52,0,1,1,0,1Z" fill="#d1d3d4"/><rect x="270.34" y="90.16" width="8.34" height="8.34" fill="#fff"/><path d="M278.68,99h-8.34a.51.51,0,0,1-.52-.51V90.16a.52.52,0,0,1,.52-.52h8.34a.51.51,0,0,1,.51.52V98.5A.51.51,0,0,1,278.68,99Zm-7.83-1h7.31V90.67h-7.31Z" fill="#d1d3d4"/><path d="M273.65,96.91a.3.3,0,0,1-.13,0,.52.52,0,0,1-.34-.29L272.07,94a.52.52,0,0,1,.95-.4l.86,2,6.21-4.51a.51.51,0,0,1,.72.12.51.51,0,0,1-.12.72L274,96.81A.5.5,0,0,1,273.65,96.91Z" fill="#d1d3d4"/><path d="M302.21,94.47H283.5a.52.52,0,1,1,0-1h18.71a.52.52,0,1,1,0,1Z" fill="#d1d3d4"/><rect x="250.99" y="139.53" width="58.81" height="35.62" fill="#fff"/><path d="M309.79,175.67H251a.52.52,0,0,1-.52-.52V139.53A.51.51,0,0,1,251,139h58.8a.51.51,0,0,1,.52.51v35.62A.52.52,0,0,1,309.79,175.67Zm-58.29-1h57.78V140.05H251.5Z" fill="#d1d3d4"/><path d="M309.79,147.69H251a.52.52,0,1,1,0-1h58.8a.52.52,0,1,1,0,1Z" fill="#d1d3d4"/><path d="M260.37,175.41a.51.51,0,0,1-.51-.52V139.53a.52.52,0,0,1,1,0v35.36A.52.52,0,0,1,260.37,175.41Z" fill="#d1d3d4"/><circle cx="104.52" cy="143.3" r="11.06" fill="#fff"/><path d="M104.52,154.88A11.59,11.59,0,1,1,116.1,143.3,11.6,11.6,0,0,1,104.52,154.88Zm0-22.13a10.55,10.55,0,1,0,10.55,10.55A10.56,10.56,0,0,0,104.52,132.75Z" fill="#d1d3d4"/><polyline points="103.73 137.59 103.73 143.3 110.15 138.62" fill="#fff"/><path d="M103.73,143.81a.59.59,0,0,1-.23-.05.52.52,0,0,1-.29-.46v-5.71a.52.52,0,0,1,.52-.52.52.52,0,0,1,.52.52v4.69l5.6-4.07a.52.52,0,1,1,.61.83L104,143.71A.47.47,0,0,1,103.73,143.81Z" fill="#d1d3d4"/><path d="M138.4,138.28H122.07a.52.52,0,0,1-.51-.52.51.51,0,0,1,.51-.52H138.4a.52.52,0,0,1,.52.52A.52.52,0,0,1,138.4,138.28Z" fill="#d1d3d4"/><path d="M138.4,143.55H122.07a.52.52,0,0,1,0-1H138.4a.52.52,0,1,1,0,1Z" fill="#d1d3d4"/><path d="M131.75,148.82h-9.68a.52.52,0,0,1,0-1h9.68a.52.52,0,0,1,0,1Z" fill="#d1d3d4"/><circle cx="104.52" cy="171.13" r="11.06" fill="#fff"/><path d="M104.52,182.71a11.58,11.58,0,1,1,11.58-11.58A11.59,11.59,0,0,1,104.52,182.71Zm0-22.13a10.55,10.55,0,1,0,10.55,10.55A10.56,10.56,0,0,0,104.52,160.58Z" fill="#d1d3d4"/><polyline points="103.73 165.43 103.73 171.13 110.15 166.46" fill="#fff"/><path d="M103.73,171.65a.46.46,0,0,1-.23-.06.51.51,0,0,1-.29-.46v-5.7a.52.52,0,0,1,.52-.52.52.52,0,0,1,.52.52v4.69l5.6-4.08a.51.51,0,0,1,.72.11.52.52,0,0,1-.11.73L104,171.55A.54.54,0,0,1,103.73,171.65Z" fill="#d1d3d4"/><path d="M138.4,166.11H122.07a.52.52,0,0,1,0-1H138.4a.52.52,0,1,1,0,1Z" fill="#d1d3d4"/><path d="M138.4,171.38H122.07a.52.52,0,0,1,0-1H138.4a.52.52,0,1,1,0,1Z" fill="#d1d3d4"/><path d="M131.75,176.66h-9.68a.52.52,0,0,1,0-1h9.68a.52.52,0,0,1,0,1Z" fill="#d1d3d4"/><path d="M215.46,180.47s8.15,24.71,3.75,24.74-15.37-13.38-15.37-13.38l8.82-11.34" fill="#fff"/><path d="M219.19,205.67c-4.57,0-15.25-13-15.7-13.55a.45.45,0,0,1,0-.57l8.82-11.34a.46.46,0,1,1,.72.56l-8.59,11c3.19,3.86,11.4,12.94,14.76,12.94a.47.47,0,0,0,.46-.25c1.64-2.28-1.86-15.54-4.62-23.9a.46.46,0,1,1,.87-.29c.72,2.18,6.93,21.33,4.49,24.72a1.41,1.41,0,0,1-1.18.63Z" fill="#231f20"/><path d="M186.6,123s-33.78,42.79-35.91,58,48.8,13.1,48.8,13.1l6-22.28s-26.72,1.91-23.66-2.9,21.81-23,21.81-23l2.84-25.44Z" fill="#231f20"/><path d="M193,194.65c-11.43,0-34.33-.94-40.93-8.22a6.5,6.5,0,0,1-1.77-5.49c2.11-15.16,34.61-56.48,36-58.23a.41.41,0,0,1,.29-.16l19.9-2.5a.43.43,0,0,1,.36.12.42.42,0,0,1,.13.36L204.1,146a.47.47,0,0,1-.14.27c-.18.18-18.75,18.19-21.74,22.91-.25.39-.19.6-.1.74,1.31,2.2,15,2.08,23.36,1.48a.44.44,0,0,1,.37.16.42.42,0,0,1,.09.4l-6,22.27a.44.44,0,0,1-.4.33C199.12,194.55,196.63,194.65,193,194.65Zm-6.12-71.25c-2.14,2.72-33.69,43.17-35.71,57.67a5.61,5.61,0,0,0,1.55,4.77c8,8.85,42.74,7.95,46.47,7.83l5.78-21.37c-4.05.27-21.67,1.23-23.57-1.94a1.52,1.52,0,0,1,.11-1.68c3-4.65,20.05-21.29,21.77-23L206,121Z" fill="#231f20"/><path d="M198.88,120.55c0,1.77-14.8,83.72-22.16,117L182,267.8s21-39.36,31.91-76.34,13.51-63.92,13.51-63.92Z" fill="#231f20"/><path d="M182,268.24h-.07a.44.44,0,0,1-.37-.36l-5.25-30.24a.48.48,0,0,1,0-.17c7.53-34.05,22.14-115.27,22.15-116.9a.43.43,0,0,1,.17-.35.41.41,0,0,1,.37-.09l28.52,7a.44.44,0,0,1,.34.47c0,.27-2.72,27.41-13.53,64s-31.74,76-31.95,76.41A.42.42,0,0,1,182,268.24Zm-4.81-30.67,5,28.87c3.51-6.75,21.52-42.09,31.27-75.1,10.09-34.17,13.1-60.06,13.46-63.47l-27.66-6.77C198.24,128.63,184.14,206,177.17,237.57Z" fill="#231f20"/><path d="M218.49,64.8s-21.84-.46-32.12,7.79-27.2,32.6-24.72,38.21,11.94,9.81,24.86.5l-3.82,16.76,45.9,7.15s12.49-55,11.24-58.94C238.3,72.82,228.69,64.25,218.49,64.8Z" fill="#000000"/><path d="M190.11,96.24a.45.45,0,0,1-.25-.07.46.46,0,0,1-.17-.57c.23-.87,1.27-12.49,1.91-20.14a.47.47,0,0,1,.49-.42.46.46,0,0,1,.42.49c-1.11,13.26-1.79,20.16-2,20.5A.44.44,0,0,1,190.11,96.24Z" fill="#231f20"/><path d="M207.64,59.78c-.82.16-3.8-5.81-4.06-6.78-.4-1.46-.25-3.06-.6-4.45-.43-1.74-1.83-3.31-2.88-4.71a12.6,12.6,0,0,1-2.72-5.33c-.32-2,.49-4.3,2.33-5.1,2.4-1,5.85.59,7.46-1.47a8.18,8.18,0,0,1,.84-1.16,2.78,2.78,0,0,1,2.25-.35,17.72,17.72,0,0,1,6.93,2.62,2.22,2.22,0,0,0,1.5.54c.48-.08.83-.47,1.28-.64a2.83,2.83,0,0,1,2.35.45c4.94,2.78,7.13,6.67,6.51,12.24l-1.11,10Z" fill="#fff"/><path d="M207.56,60.25c-.35,0-1-.36-2.56-3.21a27.92,27.92,0,0,1-1.86-3.92,12.59,12.59,0,0,1-.34-2.42,11.71,11.71,0,0,0-.26-2,11.15,11.15,0,0,0-2.25-3.82l-.56-.73a13,13,0,0,1-2.8-5.53c-.33-2.07.45-4.66,2.6-5.59a8.18,8.18,0,0,1,3.56-.4c1.57,0,2.93.08,3.72-.93.1-.13.19-.27.28-.41a3.12,3.12,0,0,1,.63-.81,3.17,3.17,0,0,1,2.61-.47,18.4,18.4,0,0,1,7.1,2.7,2.05,2.05,0,0,0,1.19.47,1.78,1.78,0,0,0,.59-.29,4.24,4.24,0,0,1,.59-.33,3.27,3.27,0,0,1,2.74.49c5.17,2.9,7.37,7.05,6.75,12.68l-1.11,10a.46.46,0,0,1-.36.39l-20.09,4.12h0A.86.86,0,0,1,207.56,60.25Zm0-.92Zm-5.4-25.85a5.69,5.69,0,0,0-2.25.35c-1.7.74-2.33,2.92-2.06,4.61a12.29,12.29,0,0,0,2.63,5.12l.55.72a12.09,12.09,0,0,1,2.42,4.16,12.38,12.38,0,0,1,.28,2.19,12.7,12.7,0,0,0,.31,2.25c.27,1,2.81,5.93,3.61,6.43l19.68-4,1.07-9.69c.59-5.3-1.41-9-6.28-11.79a2.53,2.53,0,0,0-2-.43,2.38,2.38,0,0,0-.44.25,2.41,2.41,0,0,1-.93.42,2.6,2.6,0,0,1-1.82-.6,17.3,17.3,0,0,0-6.76-2.56,2.37,2.37,0,0,0-1.88.25,2.68,2.68,0,0,0-.45.6,4.2,4.2,0,0,1-.33.49c-1.08,1.38-2.8,1.33-4.46,1.28Z" fill="#231f20"/><path d="M211.19,63.84l-.5,8.33s.58,4.7,5.73,3.56a10.49,10.49,0,0,0,7.06-5.6s1.12-20,1.51-25.25c-3.21-.23-6.23.64-9.53,0a53.47,53.47,0,0,1-8.27-2.48c-.59,5.78-2.44,11-1.57,16.79C206.22,63.18,211.19,63.84,211.19,63.84Z" fill="#fff"/><path d="M214.9,76.37a4.6,4.6,0,0,1-2.7-.8,5.24,5.24,0,0,1-2-3.34l.48-8c-1.27-.27-5-1.34-5.54-4.94-.6-4,.05-7.62.73-11.46.32-1.77.65-3.59.84-5.45A.43.43,0,0,1,207,42a.44.44,0,0,1,.4,0,54.49,54.49,0,0,0,8.19,2.47,20.82,20.82,0,0,0,5.4.07,26.25,26.25,0,0,1,4.08-.11.43.43,0,0,1,.31.16.5.5,0,0,1,.12.33c-.39,5.22-1.5,25-1.51,25.24a.75.75,0,0,1,0,.16,10.88,10.88,0,0,1-7.38,5.87A7.92,7.92,0,0,1,214.9,76.37Zm-3.76-4.18a3.86,3.86,0,0,0,5.18,3.1A10.09,10.09,0,0,0,223,70c.08-1.39,1.07-19.06,1.47-24.7a29.1,29.1,0,0,0-3.5.13,20.91,20.91,0,0,1-5.63-.09A50.26,50.26,0,0,1,207.58,43c-.2,1.69-.49,3.34-.78,4.94-.67,3.76-1.31,7.32-.73,11.16.54,3.59,5.14,4.24,5.18,4.25a.45.45,0,0,1,.4.48l-.51,8.33Z" fill="#231f20"/><path d="M211,67.93a8,8,0,0,0,5.67-1.8,5.82,5.82,0,0,0,2.1-4.42,16.26,16.26,0,0,1-7.6,2.13Z" fill="#231f20"/><path d="M211.55,68.39a4.84,4.84,0,0,1-.58,0,.43.43,0,0,1-.39-.45l.17-4.1a.43.43,0,0,1,.46-.42,16,16,0,0,0,7.35-2.07.45.45,0,0,1,.67.34A6.23,6.23,0,0,1,217,66.46,8.15,8.15,0,0,1,211.55,68.39Zm-.07-.88h0a7.33,7.33,0,0,0,4.88-1.7,5.86,5.86,0,0,0,1.91-3.33,16.29,16.29,0,0,1-6.68,1.8Z" fill="#231f20"/><path d="M215.2,52.38s-2.9,3.85-2.3,4.58,2.41.37,2.41.37" fill="#fff"/><path d="M214.35,57.87a2.3,2.3,0,0,1-1.79-.62c-.68-.83.87-3.25,2.29-5.14a.46.46,0,0,1,.62-.09.44.44,0,0,1,.09.62c-1.33,1.77-2.4,3.68-2.29,4.08.27.32,1.31.31,1.95.18a.46.46,0,0,1,.53.35.45.45,0,0,1-.35.52A5.68,5.68,0,0,1,214.35,57.87Z" fill="#231f20"/><path d="M214.13,61a5,5,0,0,1-3.64-1.77.44.44,0,1,1,.64-.61,4.11,4.11,0,0,0,3.2,1.48c2.33-.13,4.19-2.58,4.21-2.6a.44.44,0,0,1,.62-.09.45.45,0,0,1,.09.62c-.09.11-2.13,2.8-4.86,3Z" fill="#231f20"/><path d="M207.43,52.21a1.86,1.86,0,0,1-1.32-.55,1.84,1.84,0,0,1-.56-1.33l0-1.71a1.88,1.88,0,0,1,.54-1.33,1.92,1.92,0,0,1,1.33-.57l4.71,0h0a1.89,1.89,0,0,1,1.33.54,2,2,0,0,1,.56,1.34v1.7a1.9,1.9,0,0,1-1.87,1.91h0l-4.71,0Zm4.73-.49h0Zm0-4.15h0l-4.71,0a1,1,0,0,0-.71.3,1,1,0,0,0-.28.71v1.71a1,1,0,0,0,.3.7.94.94,0,0,0,.71.29l4.71,0a1,1,0,0,0,1-1l0-1.71a1,1,0,0,0-1-1Z" fill="#231f20"/><path d="M216.85,52.13A1.9,1.9,0,0,1,215,50.25l0-1.7a1.91,1.91,0,0,1,1.88-1.91l4.71,0h0a1.9,1.9,0,0,1,1.33.55,1.84,1.84,0,0,1,.56,1.33v1.7a1.82,1.82,0,0,1-.54,1.34,1.89,1.89,0,0,1-1.33.57h0l-4.71,0Zm4.73-.48h0Zm0-4.16h0l-4.71,0a1,1,0,0,0-1,1v1.71a1,1,0,0,0,.3.7.94.94,0,0,0,.71.29l4.71,0a1,1,0,0,0,1-1V48.48a1,1,0,0,0-.3-.7A1,1,0,0,0,221.55,47.49Z" fill="#231f20"/><path d="M213.58,49a.44.44,0,1,1,0-.88l1.82,0h0a.44.44,0,0,1,.44.44.46.46,0,0,1-.44.45Z" fill="#231f20"/><path d="M227.71,52a.46.46,0,0,1-.25-.08l-4.71-3.11a.44.44,0,0,1,.49-.74L228,51.23a.45.45,0,0,1,.13.61A.45.45,0,0,1,227.71,52Z" fill="#231f20"/><path d="M223.25,52.63c1-1.2,2.46-3.38,4.27-2.59a3,3,0,0,1,1.19,1c1.39,1.83,1,4.15-.05,6-.93,1.62-3.72,4-5.42,1.8" fill="#fff"/><path d="M224.91,60.2a2.51,2.51,0,0,1-2-1.06.46.46,0,1,1,.72-.56,1.6,1.6,0,0,0,1.43.7,5,5,0,0,0,3.23-2.45c1.16-2,1.19-4.06.09-5.51a2.61,2.61,0,0,0-1-.86c-1.24-.54-2.35.71-3.49,2.16l-.23.3a.46.46,0,1,1-.71-.57l.22-.29c1-1.24,2.59-3.31,4.58-2.44a3.52,3.52,0,0,1,1.38,1.15c1.33,1.76,1.32,4.19,0,6.52-.62,1.06-2.24,2.79-4,2.91Z" fill="#231f20"/><ellipse cx="211.18" cy="50.16" rx="0.52" ry="1.09" transform="translate(-0.41 1.75) rotate(-0.48)" fill="#231f20"/><ellipse cx="218.7" cy="50.69" rx="0.52" ry="1.09" transform="translate(-0.41 1.82) rotate(-0.48)" fill="#231f20"/><rect x="201.78" y="77.73" width="2.37" height="18.14" transform="translate(-17.76 83.74) rotate(-22.36)" fill="#fff"/><path d="M205.32,96.1a.45.45,0,0,1-.42-.29L198,79a.44.44,0,0,1,.25-.59l2.19-.91a.47.47,0,0,1,.35,0,.45.45,0,0,1,.25.24l6.9,16.78a.43.43,0,0,1,0,.35.44.44,0,0,1-.25.25l-2.19.9A.39.39,0,0,1,205.32,96.1Zm-6.3-17L205.57,95l1.35-.55-6.55-15.94Z" fill="#231f20"/><rect x="199.48" y="78.1" width="3.23" height="8.28" transform="translate(-16.16 82.68) rotate(-22.36)" fill="#fff"/><path d="M201.18,87.13a.57.57,0,0,1-.18,0,.51.51,0,0,1-.25-.25L197.6,79.2a.47.47,0,0,1,.25-.6l3-1.23a.53.53,0,0,1,.35,0,.45.45,0,0,1,.24.25l3.15,7.66a.44.44,0,0,1-.25.59l-3,1.23A.51.51,0,0,1,201.18,87.13Zm-2.56-7.86,2.8,6.81,2.14-.88-2.8-6.81Z" fill="#231f20"/><path d="M204.82,85.19h-.11c-1.1-.27-1.25-2.07-1.42-4a8.87,8.87,0,0,0-.3-2,.39.39,0,0,0-.25-.25,1.59,1.59,0,0,0-1.06.29.47.47,0,0,1-.63-.14.45.45,0,0,1,.13-.63A2.5,2.5,0,0,1,203,78a1.26,1.26,0,0,1,.83.75,8.59,8.59,0,0,1,.38,2.33c.09,1,.27,3.06.73,3.17a.46.46,0,0,1-.11.9Z" fill="#231f20"/><path d="M193.13,92.8s3.24-5.94,6.06-5.77,7.1,7.73,7.1,7.73Z" fill="#fff"/><path d="M206.29,95.22h-.07l-13.15-2a.47.47,0,0,1-.35-.24.5.5,0,0,1,0-.43c.35-.63,3.49-6.2,6.48-6s7,7.17,7.48,8a.48.48,0,0,1,0,.49A.48.48,0,0,1,206.29,95.22Zm-12.43-2.77,11.55,1.72c-1.45-2.38-4.38-6.58-6.25-6.69S195,90.63,193.86,92.45Z" fill="#231f20"/><polygon points="223.68 130.56 217.46 94.57 186.33 90.14 192.19 125.61 223.68 130.56" fill="#231f20"/><path d="M223.68,131h-.07l-31.49-5a.45.45,0,0,1-.37-.36L185.9,90.21a.44.44,0,0,1,.11-.38.45.45,0,0,1,.38-.13l31.13,4.44a.42.42,0,0,1,.37.36l6.22,36a.41.41,0,0,1-.12.38A.4.4,0,0,1,223.68,131Zm-31.11-5.77,30.57,4.8L217.08,95l-30.22-4.3Z" fill="#231f20"/><path d="M239.83,76.27s22.15,44.72,13.74,49-28-7.38-28-7.38l-.07-9.3,14.92,1.48L229.4,100Z" fill="#000000"/><path d="M222.29,109.24l6.56,1.05a6.19,6.19,0,0,1,1.4,3.63,5.46,5.46,0,0,1-2,4.12l-5.18-1.74S224.11,111.36,222.29,109.24Z" fill="#fff"/><path d="M228.26,118.5a.4.4,0,0,1-.15,0l-5.17-1.74a.46.46,0,0,1-.31-.52s1-4.75-.69-6.67a.47.47,0,0,1-.05-.52.46.46,0,0,1,.47-.23l6.56,1a.46.46,0,0,1,.27.15,6.61,6.61,0,0,1,1.51,3.93,5.88,5.88,0,0,1-2.13,4.46A.47.47,0,0,1,228.26,118.5ZM223.6,116l4.54,1.53a4.9,4.9,0,0,0,1.65-3.59,5.71,5.71,0,0,0-1.18-3.21l-5.4-.87C224.16,111.89,223.78,114.91,223.6,116Z" fill="#231f20"/><path d="M222.29,109.24a4.42,4.42,0,0,0-1.66-.51c-1.09-.11-6.83-1-7.43.24-.46.94,0,1.12,0,1.12s-1.69,0-1.25,1.52c0,0-.74,1.69.62,2.15,0,0-.88.48.16,1.27,1.9,1.44,8.62,4.85,10.62,3.17a4.36,4.36,0,0,0,1.3-2.29C225.31,113.41,224.45,110.43,222.29,109.24Z" fill="#fff"/><path d="M221.79,119.1c-3,0-7.87-2.6-9.33-3.71a1.38,1.38,0,0,1-.68-1.18.9.9,0,0,1,.09-.33,1.52,1.52,0,0,1-.42-.55,2.49,2.49,0,0,1,0-1.75,1.52,1.52,0,0,1,.21-1.27,1.63,1.63,0,0,1,.85-.56,2.09,2.09,0,0,1,.25-1c.56-1.14,3.33-1,7.31-.56l.58.07a4.65,4.65,0,0,1,1.83.56h0c2.23,1.23,3.34,4.31,2.6,7.18a4.7,4.7,0,0,1-1.46,2.53A2.81,2.81,0,0,1,221.79,119.1Zm-8.33-9.39a.47.47,0,0,1,.2.47.46.46,0,0,1-.45.37,1.15,1.15,0,0,0-.78.31.7.7,0,0,0,0,.62.55.55,0,0,1,0,.31,1.65,1.65,0,0,0-.09,1.17.69.69,0,0,0,.44.37.45.45,0,0,1,.31.39.45.45,0,0,1-.24.44c-.05,0-.11.1-.11.13s.05.17.32.37c2.17,1.65,8.45,4.54,10.05,3.19a3.84,3.84,0,0,0,1.16-2.06c.65-2.47-.28-5.12-2.15-6.15a3.76,3.76,0,0,0-1.48-.45l-.6-.07c-5.41-.67-6.26-.19-6.38,0A1,1,0,0,0,213.46,109.71Zm-.08,0Zm0,0Z" fill="#231f20"/><line x1="213.21" y1="110.09" x2="219.41" y2="110.7" fill="#fff"/><path d="M219.41,111.16h0l-6.2-.6a.46.46,0,0,1,.08-.91l6.21.6a.47.47,0,0,1,.41.5A.47.47,0,0,1,219.41,111.16Z" fill="#231f20"/><path d="M212,111.61s4.75,1.32,6.48,1.12" fill="#fff"/><path d="M218,113.2a33.28,33.28,0,0,1-6.21-1.15.46.46,0,0,1-.31-.57.44.44,0,0,1,.56-.31c1.3.36,5,1.26,6.31,1.1a.47.47,0,0,1,.51.4.46.46,0,0,1-.4.51A3.32,3.32,0,0,1,218,113.2Z" fill="#231f20"/><path d="M212.11,113.5a15.92,15.92,0,0,0,5.62,1.72" fill="#fff"/><path d="M217.73,115.68h0a16.18,16.18,0,0,1-5.83-1.78.45.45,0,0,1-.19-.61.46.46,0,0,1,.62-.2,15.25,15.25,0,0,0,5.41,1.67.45.45,0,0,1,.45.46A.46.46,0,0,1,217.73,115.68Z" fill="#231f20"/><path d="M202.43,93.35a.44.44,0,0,1-.39-.22,15.34,15.34,0,0,0-1.89-2.62.44.44,0,1,1,.64-.6,15.76,15.76,0,0,1,2,2.79.44.44,0,0,1-.17.6A.41.41,0,0,1,202.43,93.35Z" fill="#231f20"/><path d="M199.7,93.19a.46.46,0,0,1-.35-.17,7.77,7.77,0,0,0-2-1.71.44.44,0,0,1,.45-.75,8.63,8.63,0,0,1,2.25,1.92.44.44,0,0,1-.35.71Z" fill="#231f20"/><path d="M234.5,107.66h-.08a.46.46,0,0,1-.37-.53l4.6-25.28a.45.45,0,1,1,.89.16L235,107.29A.45.45,0,0,1,234.5,107.66Z" fill="#231f20"/><path d="M249.1,113.65a.46.46,0,0,1-.38-.2c-1.24-1.87-6.43-2.75-8.33-2.94l-11.56-1.14a.46.46,0,1,1,.09-.91l11.56,1.14c.3,0,7.26.74,9,3.34a.45.45,0,0,1-.13.63A.44.44,0,0,1,249.1,113.65Z" fill="#231f20"/><path d="M166.39,105a.46.46,0,0,1-.31-.79c3.65-3.43,20.58-10.47,21.3-10.77a.47.47,0,0,1,.6.25.46.46,0,0,1-.25.6c-.17.07-17.5,7.27-21,10.58A.43.43,0,0,1,166.39,105Z" fill="#231f20"/><path d="M170,230.83c.34,0,3.06-.49,6,2.57s8.36,21.86,8.82,26.55A10.22,10.22,0,0,1,182,267.8Z" fill="#fff"/><path d="M182,268.25h-.12a.46.46,0,0,1-.32-.3l-12-37a.45.45,0,0,1,.07-.42.43.43,0,0,1,.38-.17h.13a7.92,7.92,0,0,1,6.2,2.71c3.12,3.23,8.5,22.31,8.95,26.83a10.62,10.62,0,0,1-3,8.22A.47.47,0,0,1,182,268.25Zm-11.38-37,11.56,35.63a9.66,9.66,0,0,0,2.21-6.9c-.48-4.89-5.91-23.4-8.7-26.28A7.17,7.17,0,0,0,170.6,231.27Z" fill="#231f20"/><path d="M183.44,263.82S179,241.32,175,235s-7.6-5.11-7.9,1.38,5.45,29.77,9.34,32.38S184.29,267.78,183.44,263.82Z" fill="#fff"/><path d="M179.15,270.1a5.37,5.37,0,0,1-3-1c-4.21-2.83-9.82-26.82-9.54-32.79.15-3.3,1.19-5.45,2.85-5.88s3.87,1.05,5.9,4.29c4,6.31,8.32,28,8.51,29a5.4,5.4,0,0,1-2.17,5.59A4.55,4.55,0,0,1,179.15,270.1Zm-9-38.8a1.75,1.75,0,0,0-.4,0c-1.22.32-2,2.21-2.17,5.05-.3,6.4,5.46,29.5,9.14,32a3.92,3.92,0,0,0,4.53.17,4.49,4.49,0,0,0,1.79-4.64h0c-.05-.23-4.53-22.49-8.4-28.67C173,232.73,171.39,231.3,170.11,231.3Z" fill="#231f20"/><path d="M187.12,186.07H187a.46.46,0,0,1-.37-.53L195,140.4a.46.46,0,0,1,.9.17l-8.35,45.13A.45.45,0,0,1,187.12,186.07Z" fill="#fff"/><rect x="232.91" y="202.21" width="25.06" height="26.79" fill="#fff"/><path d="M258,229.52H232.91a.51.51,0,0,1-.52-.51v-26.8a.51.51,0,0,1,.52-.51H258a.52.52,0,0,1,.52.51V229A.52.52,0,0,1,258,229.52Zm-24.54-1h24V202.73h-24Z" fill="#d1d3d4"/><path d="M258,207.28H232.91a.52.52,0,1,1,0-1H258a.52.52,0,1,1,0,1Z" fill="#d1d3d4"/><path d="M247.66,213.17v0h-7.78v-2.52H251v2.27l-5.88,10.74h-3.29Z" fill="#d1d3d4"/><path d="M239.88,205.45a.51.51,0,0,1-.26-1,3,3,0,0,0,1.32-3.26,1.64,1.64,0,0,0-1.73-1.23,2.25,2.25,0,0,0-1.67.68,2.14,2.14,0,0,0-.44,1.48.51.51,0,0,1-.45.56.49.49,0,0,1-.57-.44,3.16,3.16,0,0,1,.66-2.26,3.28,3.28,0,0,1,2.42-1.05,2.64,2.64,0,0,1,2.77,2,4,4,0,0,1-1.8,4.44A.47.47,0,0,1,239.88,205.45Z" fill="#d1d3d4"/><path d="M252.94,205.45a.5.5,0,0,1-.45-.26.52.52,0,0,1,.19-.7,3,3,0,0,0,1.32-3.26,1.63,1.63,0,0,0-1.72-1.23,2.25,2.25,0,0,0-1.69.69,2.09,2.09,0,0,0-.42,1.46.52.52,0,0,1-1,.13,3.19,3.19,0,0,1,.67-2.26,3.24,3.24,0,0,1,2.41-1.05,2.64,2.64,0,0,1,2.77,2,4,4,0,0,1-1.8,4.44A.45.45,0,0,1,252.94,205.45Z" fill="#d1d3d4"/></g></svg>