<svg xmlns="http://www.w3.org/2000/svg" viewBox="0 0 400 300"><g id="_185_marketing_flatline" data-name="#185_marketing_flatline"><path d="M310.34,239.54H87a.5.5,0,1,1,0-1H310.34a.5.5,0,0,1,0,1Z" fill="#d1d3d4"/><rect x="95.34" y="89.37" width="206.64" height="132.32" rx="6.47" fill="#fff"/><path d="M295.52,222.19H101.81a7,7,0,0,1-7-7V95.83a7,7,0,0,1,7-7H295.52a7,7,0,0,1,7,7V215.22A7,7,0,0,1,295.52,222.19ZM101.81,89.87a6,6,0,0,0-6,6V215.22a6,6,0,0,0,6,6H295.52a6,6,0,0,0,6-6V95.83a6,6,0,0,0-6-6Z" fill="#231f20"/><path d="M302,201.26H95.34a.5.5,0,0,1-.5-.5.5.5,0,0,1,.5-.5H302a.5.5,0,0,1,.5.5A.5.5,0,0,1,302,201.26Z" fill="#231f20"/><polygon points="225.07 247.26 172.25 247.26 181.99 221.69 215.33 221.69 225.07 247.26" fill="#fff"/><path d="M225.07,247.76H172.25a.49.49,0,0,1-.41-.21.48.48,0,0,1-.06-.46l9.74-25.58a.5.5,0,0,1,.47-.32h33.34a.49.49,0,0,1,.47.32l9.74,25.58a.5.5,0,0,1,0,.46A.53.53,0,0,1,225.07,247.76Zm-52.1-1h51.38L215,222.19H182.33Z" fill="#231f20"/><rect x="162.96" y="245.76" width="71.41" height="6.9" rx="3.1" fill="#fff"/><path d="M231.27,253.17H166.05a3.6,3.6,0,0,1-3.59-3.6v-.71a3.6,3.6,0,0,1,3.59-3.6h65.22a3.61,3.61,0,0,1,3.6,3.6v.71A3.61,3.61,0,0,1,231.27,253.17Zm-65.22-6.91a2.6,2.6,0,0,0-2.59,2.6v.71a2.6,2.6,0,0,0,2.59,2.6h65.22a2.61,2.61,0,0,0,2.6-2.6v-.71a2.61,2.61,0,0,0-2.6-2.6Z" fill="#231f20"/><rect x="102.72" y="95.6" width="191.89" height="97.06" fill="#000000"/><rect x="102.72" y="95.6" width="191.89" height="97.06" fill="#231f20"/><polygon points="177.17 233.37 216.5 225.73 214.96 221.69 181.62 221.69 177.17 233.37" fill="#231f20"/><path d="M177.17,233.87a.49.49,0,0,1-.38-.18.51.51,0,0,1-.09-.5l4.45-11.68a.49.49,0,0,1,.47-.32H215a.5.5,0,0,1,.47.32l1.54,4a.51.51,0,0,1,0,.42.53.53,0,0,1-.35.25l-39.33,7.64ZM182,222.19l-4,10.52,37.86-7.36-1.2-3.16Z" fill="#231f20"/><path d="M159.08,104.65A52.53,52.53,0,0,0,155,87.28c-.35-.83-1.15-1.81-1.94-1.38.46,2.53.92,5.07,1.39,7.6a44.87,44.87,0,0,1-12-11.68,3.28,3.28,0,0,0-1.15-1.16,1.07,1.07,0,0,0-1.42.39,1.53,1.53,0,0,0,.26,1.29,45.66,45.66,0,0,0,4.82,7c-2.34-3.44-7.18-9.27-8.31-7.89s1.75,6.67,4.18,9.81L135,84.81c-.54-.59-1.41-1.23-2-.72s-.21,1.45.23,2.1l4.05,6c-2.06-1.8-4.93-6.14-6.42-5.13s3.2,6.64,6.21,8.81,6.38,3.9,8.84,6.67a29.91,29.91,0,0,1,3.76,5.89" fill="#fff"/><path d="M149.6,108.94a.47.47,0,0,1-.41-.24,29.23,29.23,0,0,0-3.69-5.8,29.53,29.53,0,0,0-6.05-4.77c-.9-.59-1.83-1.2-2.72-1.84-2.66-1.93-6.72-6.53-6.69-8.58a1.14,1.14,0,0,1,.49-1c.94-.64,2.08.09,3.3,1.28l-1.05-1.56c-.77-1.15-.82-2.17-.13-2.72s1.72-.27,2.66.78l2.09,2.33c-1.2-2.3-2-4.62-1.14-5.64a1.06,1.06,0,0,1,.87-.38,4.73,4.73,0,0,1,2.41,1.42,1.73,1.73,0,0,1-.11-1.37,1.26,1.26,0,0,1,.73-.68,1.7,1.7,0,0,1,1.31.06,3.55,3.55,0,0,1,1.31,1.3,45.17,45.17,0,0,0,11,11c-.4-2.18-.8-4.35-1.19-6.53a.47.47,0,0,1,.24-.49,1.28,1.28,0,0,1,1.05-.07,3,3,0,0,1,1.52,1.68,52.94,52.94,0,0,1,4.12,17.52.46.46,0,0,1-.91.06,51.88,51.88,0,0,0-4-17.22,2.23,2.23,0,0,0-1-1.18h0q.65,3.57,1.31,7.14a.46.46,0,0,1-.2.46.45.45,0,0,1-.5,0A45.92,45.92,0,0,1,142,82.09a2.88,2.88,0,0,0-1-1,.86.86,0,0,0-.59,0,.38.38,0,0,0-.22.19c-.1.22.07.57.24.89.66,1.18,1.37,2.33,2.12,3.45,1.14,1.39,2.13,2.75,2.67,3.55a.45.45,0,0,1-.72.55,44.87,44.87,0,0,1-2.7-3.59c-2-2.38-3.95-4.31-4.79-4.34-.1,0-.1,0-.12,0-.77.94,1.31,5.52,4.19,9.24a.46.46,0,0,1-.7.59l-5.83-6.49c-.33-.37-1-1-1.41-.68s0,1.07.32,1.5l4.05,6a.46.46,0,0,1-.08.59.43.43,0,0,1-.6,0,25.14,25.14,0,0,1-2.06-2.13c-1.3-1.46-3.1-3.44-3.81-3,0,0-.08.05-.08.23,0,1.56,3.68,5.93,6.3,7.83.87.63,1.8,1.23,2.69,1.82a30.08,30.08,0,0,1,6.23,4.92,30.17,30.17,0,0,1,3.82,6,.44.44,0,0,1-.19.61A.42.42,0,0,1,149.6,108.94Z" fill="#231f20"/><path d="M258.35,87.61l-3.25-13c-3.52-14.11-8.37-28.67-23.8-33-4.57-1.3-9.22-.78-12.25,3.35-3.12-2.62-8-1.21-11.23,1.27-7.22,5.54-10.5,14.22-10.67,22.9-.2,9.85-1.23,20.14-6.46,28.74-2.13,3.5-4.89,6.6-6.73,10.25s-2.68,8.17-.75,11.77a13.91,13.91,0,0,0,4.86,4.81c10,6.53,22.63,7.22,34.52,6.41,12.18-.83,25.35-3.63,33.11-13a26.35,26.35,0,0,0,5.78-14.49C262,97.58,259.72,93.11,258.35,87.61Z" fill="#fff"/><path d="M215.1,131.76c-8.68,0-18.9-1.27-27.28-6.76a14.59,14.59,0,0,1-5-5c-1.78-3.31-1.51-7.76.74-12.2a47.08,47.08,0,0,1,3.92-6.11c1-1.35,2-2.74,2.82-4.16,5.32-8.74,6.22-19.32,6.4-28.52.19-9.63,4.15-18.11,10.85-23.25,3.22-2.48,8.09-3.95,11.43-1.55,2.8-3.52,7.2-4.64,12.45-3.15,15.69,4.45,20.52,18.92,24.12,33.37l3.25,13c.38,1.5.82,2.93,1.25,4.31,1.17,3.78,2.27,7.34,1.9,11.72a26.89,26.89,0,0,1-5.89,14.74c-6.51,7.9-17.13,12.1-33.43,13.21C220.33,131.64,217.79,131.76,215.1,131.76Zm-.16-87.83a11.88,11.88,0,0,0-6.85,2.58c-6.47,5-10.3,13.2-10.48,22.55s-1.11,20-6.53,29c-.89,1.46-1.89,2.86-2.87,4.22a47.46,47.46,0,0,0-3.85,6c-1,2-3.06,7-.74,11.35a13.23,13.23,0,0,0,4.7,4.64c10.75,7,24.69,7,34.24,6.33,16-1.09,26.45-5.19,32.78-12.88A26,26,0,0,0,261,103.45c.35-4.2-.73-7.68-1.87-11.37-.43-1.39-.87-2.84-1.25-4.36h0l-3.26-13c-3.53-14.19-8.26-28.4-23.48-32.71-3.56-1-8.49-1.28-11.75,3.18a.44.44,0,0,1-.31.18.44.44,0,0,1-.35-.1A5.81,5.81,0,0,0,214.94,43.93Z" fill="#231f20"/><path d="M197.23,104.11c-4,3.71-12.86,17.7-20.95,32.36l-16.75-35.13-13.61,4s12.31,65,24.46,67.66,28.71-26.3,28.71-26.3l18.57-51S203.18,98.54,197.23,104.11Z" fill="#000000"/><path d="M245.13,192.37c-1.81-17.84-5.59-60.05-2.11-71.11,4.44-14.15,4.31-18.09,0-19.49s-16-8.86-24,0c0,0-18.39,10.33-21.95,28.15-2.61,13.05.43,45.86,2.25,62.45Z" fill="#fff"/><path d="M208.79,192.37c1.34-19.68,3.06-34.83,3.52-41.08.66-9,3-35,5.43-46.35,3.22-7.08,1.83-9.13,1.83-9.13s-18.11-2.54-23.5,24.48c-1.32,6.66-4.37,40.19-7.61,72.08Z" fill="#000000"/><path d="M217.69,91l-.09,13.91s1.41,7.77,9.87,5.4a17.52,17.52,0,0,0,11.24-10l-1-24.08a43.36,43.36,0,0,1-1.39-12.92C226.08,63.21,218,55.45,218,55.45s-3.54,5.31-5.07,7a21.14,21.14,0,0,0-3.18,4.19c-1.43,2.68-1.37,6-1.31,9a58.35,58.35,0,0,0,1,10.47C210.84,92.64,217.69,91,217.69,91Z" fill="#fff"/><path d="M224.46,111.25a7.11,7.11,0,0,1-3.86-1,8.38,8.38,0,0,1-3.45-5.18l.08-13.45a8.17,8.17,0,0,1-5.38-1A6.56,6.56,0,0,1,209,86.18,58.41,58.41,0,0,1,208,75.62c-.07-2.85-.14-6.39,1.35-9.2a21.7,21.7,0,0,1,3.25-4.29c1.49-1.63,5-6.88,5-6.93a.43.43,0,0,1,.33-.2.44.44,0,0,1,.36.12c.08.08,8.09,7.64,18.06,7.8a.45.45,0,0,1,.33.14.41.41,0,0,1,.12.32A40.55,40.55,0,0,0,238,75.09a6.07,6.07,0,0,1,.24,1.18h0s0,.46,1,24.08a.37.37,0,0,1,0,.18,17.83,17.83,0,0,1-11.55,10.25A11.66,11.66,0,0,1,224.46,111.25Zm-6.4-6.31a7.63,7.63,0,0,0,3,4.49c1.63,1,3.74,1.18,6.26.47a17.16,17.16,0,0,0,10.9-9.61c-.07-1.64-.95-23.82-1-24a7.15,7.15,0,0,0-.21-1,40.18,40.18,0,0,1-1.19-11.5c-9-.33-16.07-6.13-17.82-7.67-.89,1.32-3.52,5.18-4.82,6.6a20.49,20.49,0,0,0-3.11,4.1c-1.39,2.6-1.31,5.87-1.25,8.75a56.39,56.39,0,0,0,1,10.39,5.68,5.68,0,0,0,2.4,3.83,7.75,7.75,0,0,0,5.25.76.45.45,0,0,1,.39.09.46.46,0,0,1,.17.36l-.08,13.91Z" fill="#231f20"/><path d="M217.77,97.86s5.64.24,9.27-3.52,3.09-7.55,3.09-7.55S224,90.88,217.69,91Z" fill="#231f20"/><path d="M218,98.3h-.27a.43.43,0,0,1-.42-.44L217.25,91a.44.44,0,0,1,.43-.45c6.13-.13,12.15-4.12,12.21-4.16a.45.45,0,0,1,.42,0,.44.44,0,0,1,.26.34c0,.16.52,4-3.21,7.92C224.05,98.08,219.22,98.3,218,98.3Zm.11-6.85.07,6c1.34,0,5.63-.39,8.52-3.38a10,10,0,0,0,3-6.47C228,88.61,223.22,91.2,218.13,91.45Z" fill="#231f20"/><path d="M222.61,71s-4.47,6.69-3.41,7.85,4,.39,4,.39" fill="#fff"/><path d="M221.26,80a3.24,3.24,0,0,1-2.39-.78c-1.17-1.28,2-6.3,3.37-8.39a.45.45,0,0,1,.62-.13.46.46,0,0,1,.12.62c-2.28,3.41-3.89,6.82-3.45,7.3.72.79,2.84.45,3.6.26a.44.44,0,0,1,.54.32.45.45,0,0,1-.32.54A9.55,9.55,0,0,1,221.26,80Z" fill="#231f20"/><ellipse cx="213.48" cy="69.89" rx="1.44" ry="0.77" transform="matrix(0.04, -1, 1, 0.04, 135.25, 280.45)" fill="#231f20"/><ellipse cx="226.09" cy="68.8" rx="1.44" ry="0.77" transform="translate(148.45 292.01) rotate(-87.75)" fill="#231f20"/><path d="M219.57,82.81l3.55-.91s.73,5.2-1.27,5.66S219.57,82.81,219.57,82.81Z" fill="#fff"/><path d="M221.6,88a1.47,1.47,0,0,1-.88-.31c-1.36-1-1.58-4.49-1.6-4.89a.44.44,0,0,1,.34-.45l3.55-.91a.45.45,0,0,1,.36.06.46.46,0,0,1,.19.31c.08.57.72,5.62-1.62,6.15A1.86,1.86,0,0,1,221.6,88ZM220,83.15c.12,1.34.51,3.33,1.22,3.86a.54.54,0,0,0,.5.11c1.1-.25,1.15-3,1-4.67Z" fill="#231f20"/><path d="M233.1,69.15c.94-2.44,4-3.34,6.4-2.87a4,4,0,0,1,3.25,3,7.59,7.59,0,0,1,0,2.89,15.06,15.06,0,0,1-1.73,5,5.35,5.35,0,0,1-1.73,2,2.72,2.72,0,0,1-3.09-.2" fill="#fff"/><path d="M238,80.1a3.55,3.55,0,0,1-2-.67.46.46,0,0,1-.11-.64.45.45,0,0,1,.63-.11,2.33,2.33,0,0,0,2.59.19A5.07,5.07,0,0,0,240.64,77a14.47,14.47,0,0,0,1.68-4.9,7,7,0,0,0,0-2.71,3.52,3.52,0,0,0-2.89-2.68c-2.23-.45-5,.4-5.88,2.59a.46.46,0,0,1-.59.26.45.45,0,0,1-.26-.59c1-2.64,4.31-3.68,6.91-3.16a4.42,4.42,0,0,1,3.6,3.36,7.81,7.81,0,0,1,0,3.07,15.31,15.31,0,0,1-1.79,5.2,5.7,5.7,0,0,1-1.88,2.18A2.93,2.93,0,0,1,238,80.1Z" fill="#231f20"/><path d="M262.76,192.37c-.07-.59-.13-1.17-.18-1.72-1.47-16.48,0-72.56-3.51-83.73-1.69-5.33-19.62-9.24-19.62-9.24S228.36,156.57,224,192.37Z" fill="#000000"/><path d="M235.87,164.59c-4.21-.72-8.07-2.68-12-4.34-1.58-.67-3.2-1.27-4.84-1.78-1.93-.6-3.77-1.74-5.84-1.8-1.27,0-.94,1.77-.47,2.44a6.6,6.6,0,0,0,1.76,1.48c1.21.83,3.75,2.34,4.18,3.79-1.55.45-3.25.21-4.85.39s-3.46.45-5.17.78-3.35.73-5,1.2a25.59,25.59,0,0,0-4.35,1.17c-.33.16-.69.42-.71.79-.08,1.3,2.85,1.15,3.59,1.07l13.51-1.36a85.09,85.09,0,0,0-14,2.53,1.83,1.83,0,0,0-1.14.65c-1.12,1.72,3.68,1.81,4.22,1.82q3.75.09,7.48-.18l-6.07,1c-1.36.23-2.73.45-4.06.79a4.09,4.09,0,0,0-2,1,.38.38,0,0,0-.13.26c0,.14.15.23.27.29a8.85,8.85,0,0,0,3.61.64,44.47,44.47,0,0,0,7.56-.5l-7.5.8a2.79,2.79,0,0,0-1.83.66,1,1,0,0,0,.45,1.17,2.86,2.86,0,0,0,1.29.39,65.52,65.52,0,0,0,8.29,0,66.31,66.31,0,0,0,9-.57,53.47,53.47,0,0,0,17-5.09" fill="#fff"/><path d="M206.79,180.34a23.16,23.16,0,0,1-3-.17,3.21,3.21,0,0,1-1.49-.46,1.49,1.49,0,0,1-.61-1.72.57.57,0,0,1,.08-.13,2.17,2.17,0,0,1,.37-.32,6.6,6.6,0,0,1-2.06-.57.79.79,0,0,1-.54-.68.86.86,0,0,1,.26-.6,4.56,4.56,0,0,1,2.23-1.1c1.14-.29,2.31-.5,3.46-.69l-.71,0c-2.71-.06-4.29-.5-4.72-1.31a1.14,1.14,0,0,1,.12-1.22,2.27,2.27,0,0,1,1.4-.84l1.24-.33-.58.06c-.46,0-2.82.24-3.72-.62a1.2,1.2,0,0,1-.37-.94,1.46,1.46,0,0,1,1-1.17,12.3,12.3,0,0,1,2.91-.85c.52-.11,1-.22,1.51-.35,1.65-.47,3.34-.87,5-1.2s3.48-.61,5.21-.8c.62-.06,1.25-.07,1.86-.08a13.26,13.26,0,0,0,2.39-.17,12.34,12.34,0,0,0-3.24-2.73l-.73-.48a6.39,6.39,0,0,1-1.69-1.48,2.75,2.75,0,0,1-.32-2.51,1.19,1.19,0,0,1,1.17-.64,11.26,11.26,0,0,1,4.11,1.12c.64.26,1.24.5,1.86.7a51,51,0,0,1,4.88,1.79l2.17.95a42.23,42.23,0,0,0,9.7,3.36.46.46,0,0,1-.15.9,43.11,43.11,0,0,1-9.92-3.42l-2.16-1c-1.62-.68-3.23-1.28-4.79-1.76a20.21,20.21,0,0,1-1.93-.73,10.88,10.88,0,0,0-3.79-1.05.36.36,0,0,0-.34.16,1.88,1.88,0,0,0,.26,1.55,5.44,5.44,0,0,0,1.46,1.25l.71.48c1.36.9,3.41,2.26,3.83,3.67a.47.47,0,0,1,0,.35.45.45,0,0,1-.27.22,11.68,11.68,0,0,1-3.16.33c-.61,0-1.19,0-1.77.08-1.71.19-3.44.45-5.14.78s-3.32.73-4.95,1.19c-.51.14-1,.25-1.57.36a11.57,11.57,0,0,0-2.7.78c-.28.14-.45.29-.46.4a.26.26,0,0,0,.1.23c.41.39,1.85.48,3,.37L215.67,168h0a.46.46,0,0,1,.09.91h0a84.6,84.6,0,0,0-13.9,2.51,1.57,1.57,0,0,0-.88.45c-.13.2-.09.28-.08.3.19.36,1.49.77,3.91.83s5,0,7.45-.19a.45.45,0,0,1,.49.4.46.46,0,0,1-.38.51l-6.07,1c-1.33.22-2.7.45-4,.79a4,4,0,0,0-1.65.72,8.77,8.77,0,0,0,3.29.54c1.18,0,2.36,0,3.54-.07l4-.43a.46.46,0,0,1,.5.4.46.46,0,0,1-.38.51c-1.33.2-2.66.34-4,.43L204,178a2.72,2.72,0,0,0-1.47.45.67.67,0,0,0,.3.56,2.64,2.64,0,0,0,1.08.31,33.24,33.24,0,0,0,5.47.09c.92,0,1.84-.07,2.77-.06a67.45,67.45,0,0,0,9-.57,53.11,53.11,0,0,0,16.86-5,.46.46,0,0,1,.61.2.47.47,0,0,1-.2.62,53.83,53.83,0,0,1-17.15,5.14,69.28,69.28,0,0,1-9.08.57c-.92,0-1.83,0-2.74.06S207.67,180.34,206.79,180.34Z" fill="#231f20"/><path d="M259.07,106.92s35.26,64.16,22.62,68.48c-5.18,1.76-51.53,4.48-51.53,4.48l-4.92-20L260,154.49Z" fill="#000000"/><path d="M213.48,78a8.12,8.12,0,1,1,8.12-8.12A8.13,8.13,0,0,1,213.48,78Zm0-15.33a7.21,7.21,0,1,0,7.2,7.21A7.22,7.22,0,0,0,213.48,62.65Z" fill="#231f20"/><path d="M229.31,76.66a8.12,8.12,0,1,1,8.12-8.12A8.13,8.13,0,0,1,229.31,76.66Zm0-15.32a7.21,7.21,0,1,0,7.2,7.2A7.21,7.21,0,0,0,229.31,61.34Z" fill="#231f20"/><path d="M225.24,160.32a.46.46,0,0,1-.45-.38.47.47,0,0,1,.39-.53l34.26-5.29-8.26-35.62a.46.46,0,0,1,.34-.55.45.45,0,0,1,.55.35l8.37,36.09a.47.47,0,0,1-.07.36.46.46,0,0,1-.31.19l-34.75,5.38Z" fill="#231f20"/><path d="M192.67,153.87h0a.46.46,0,0,1-.4-.51c1.55-12.86,4.51-37.3,4.55-37.83l.45,0,.1-.46c.42.09.42.09-.34,6.42l-3.86,31.94A.45.45,0,0,1,192.67,153.87Z" fill="#231f20"/><path d="M183,149a.46.46,0,0,1-.41-.25l-20.76-41.63a.47.47,0,0,1,.21-.62.46.46,0,0,1,.61.21l20.76,41.63a.46.46,0,0,1-.2.61A.54.54,0,0,1,183,149Z" fill="#231f20"/><path d="M237,141.56a.48.48,0,0,1-.3-.11.46.46,0,0,1,0-.64l10.31-11.88-7-7.11a.51.51,0,0,1-.13-.33.48.48,0,0,1,.15-.32l7-6.53c-2.63-4-6.47-9.72-6.83-10.11a.46.46,0,0,1,.65-.64c.47.47,6,8.89,7.16,10.57a.46.46,0,0,1-.07.58L241,121.52l6.93,7.07a.45.45,0,0,1,0,.62L237.31,141.4A.43.43,0,0,1,237,141.56Z" fill="#231f20"/><path d="M211,138.63a.45.45,0,0,1-.37-.2L202,126.19a.45.45,0,0,1,.09-.62l8.66-6.89-5.27-5.52a.47.47,0,0,1-.13-.34.48.48,0,0,1,.15-.32l9.52-8.62a.45.45,0,0,1,.61.67l-9.17,8.31,5.3,5.55a.44.44,0,0,1,.12.34.47.47,0,0,1-.17.33L203,126l8.35,11.89a.47.47,0,0,1-.11.64A.53.53,0,0,1,211,138.63Z" fill="#231f20"/><path d="M150.92,99.28a.46.46,0,0,1-.45-.42c-.31-3.64,3.6-5.68,3.77-5.76a.45.45,0,0,1,.61.19.46.46,0,0,1-.19.62s-3.54,1.85-3.28,4.88a.46.46,0,0,1-.42.49Z" fill="#231f20"/><circle cx="101.81" cy="181.42" r="21.88" fill="#fff"/><path d="M101.81,203.8a22.38,22.38,0,1,1,22.38-22.38A22.41,22.41,0,0,1,101.81,203.8Zm0-43.76a21.38,21.38,0,1,0,21.38,21.38A21.41,21.41,0,0,0,101.81,160Z" fill="#d1d3d4"/><path d="M101,165.91h1.75a.73.73,0,0,0,.2.05,14.65,14.65,0,0,1,7.39,2.5,15.16,15.16,0,0,1,6.93,14.59,14.56,14.56,0,0,1-4.22,9.1,15.23,15.23,0,0,1-12.84,4.71,14.61,14.61,0,0,1-6.93-2.5,15.35,15.35,0,0,1-6.78-10.69c-.07-.44-.11-.89-.17-1.34v-1.76l.06-.32c.09-.66.14-1.33.28-2a15.51,15.51,0,0,1,13-12.19C100.06,166,100.52,166,101,165.91Zm12.22,24.16a14.15,14.15,0,0,0,2.89-8h-6.15c-.1,1.11-.16,2.19-.31,3.27s-.37,2.14-.55,3.15Zm-25.63-8a14.16,14.16,0,0,0,2.9,8l4.15-1.61a28.86,28.86,0,0,1-.85-6.41Zm28.49-1.25c.13-2.29-1.54-6.81-2.89-8L109,174.41a27.71,27.71,0,0,1,.85,6.39Zm-21.43-6.39-4.15-1.61c-1.5,1.58-3.14,6.12-2.87,8h6.16A27.72,27.72,0,0,1,94.63,174.41Zm7.82,13.2c.92.08,1.81.12,2.69.22s1.77.26,2.67.39c0-.07,0-.16.07-.24a26.68,26.68,0,0,0,.76-5.63c0-.26-.06-.32-.31-.32h-5.6l-.28,0ZM95,182.05a25.59,25.59,0,0,0,.82,6.12l5.35-.61v-5.51Zm13.62-1.25a26.23,26.23,0,0,0-.81-6.11l-5.37.61v5.5Zm-12.8-6.11A25.41,25.41,0,0,0,95,180.8h6.17v-5.5Zm11.61-1.28a14.29,14.29,0,0,0-1.83-3.79,6.41,6.41,0,0,0-2.09-2c-.33-.18-.69-.29-1.07-.45V174A25.35,25.35,0,0,0,107.45,173.41Zm-5,15.48v6.72a3.89,3.89,0,0,0,2-1,10.79,10.79,0,0,0,2.61-4c.14-.35.26-.71.41-1.1A27.34,27.34,0,0,0,102.47,188.89Zm-1.27,6.74v-6.74a27,27,0,0,0-5,.57c.3.72.55,1.4.87,2.06a9.07,9.07,0,0,0,2.27,3.14A4,4,0,0,0,101.2,195.63Zm-5-22.23a27.51,27.51,0,0,0,5,.57v-6.74a3.71,3.71,0,0,0-1.42.62,7.69,7.69,0,0,0-2.37,2.82C97,171.55,96.57,172.46,96.15,173.4Zm16.17,17.72a18,18,0,0,0-3.63-1.38,14.53,14.53,0,0,1-3,5.44A14.26,14.26,0,0,0,112.32,191.12ZM98,167.74c-1.54,0-5.82,2.68-6.63,4.1l3.55,1.33c.45-1,.84-2,1.29-2.89A10.08,10.08,0,0,1,98,167.74Zm-6.64,23.38a14.42,14.42,0,0,0,6.71,4.08A14.34,14.34,0,0,1,95,189.74,17.46,17.46,0,0,0,91.35,191.12Zm14.38-23.38a11.86,11.86,0,0,1,1.74,2.55c.44.92.83,1.86,1.26,2.82a17.19,17.19,0,0,0,3.58-1.36A13.84,13.84,0,0,0,105.73,167.74Z" fill="#d1d3d4"/><circle cx="311.67" cy="155.53" r="16.93" fill="#fff"/><path d="M311.67,173a17.43,17.43,0,1,1,17.42-17.42A17.44,17.44,0,0,1,311.67,173Zm0-33.85a16.43,16.43,0,1,0,16.42,16.43A16.45,16.45,0,0,0,311.67,139.1Z" fill="#d1d3d4"/><path d="M320.66,164.54h-18a3.9,3.9,0,0,1-3.89-3.9V150.41a3.9,3.9,0,0,1,3.89-3.9h18a3.9,3.9,0,0,1,3.89,3.9v10.23A3.9,3.9,0,0,1,320.66,164.54Zm-18-17a2.9,2.9,0,0,0-2.89,2.9v10.23a2.9,2.9,0,0,0,2.89,2.9h18a2.89,2.89,0,0,0,2.89-2.9V150.41a2.89,2.89,0,0,0-2.89-2.9Z" fill="#d1d3d4"/><path d="M307.53,161.22a.52.52,0,0,1-.5-.5V150.33a.49.49,0,0,1,.24-.42.51.51,0,0,1,.48,0l10.69,5.2a.49.49,0,0,1,.28.45.51.51,0,0,1-.28.45l-10.69,5.19A.54.54,0,0,1,307.53,161.22Zm.5-10.09v8.79l9-4.39Z" fill="#d1d3d4"/><circle cx="101.92" cy="115.63" r="30.78" fill="#fff"/><path d="M101.92,146.92a31.29,31.29,0,1,1,31.28-31.29A31.33,31.33,0,0,1,101.92,146.92Zm0-61.57a30.29,30.29,0,1,0,30.28,30.28A30.32,30.32,0,0,0,101.92,85.35Z" fill="#d1d3d4"/><path d="M121.56,129.85H82.28a.5.5,0,0,1-.5-.5V101.92a.5.5,0,0,1,.5-.5h39.28a.5.5,0,0,1,.5.5v27.43A.5.5,0,0,1,121.56,129.85Zm-38.78-1h38.28V102.42H82.78Z" fill="#d1d3d4"/><path d="M82.28,129.85a.47.47,0,0,1-.3-.1.51.51,0,0,1-.11-.7l15.51-20.88a.48.48,0,0,1,.38-.2.5.5,0,0,1,.4.18l12.13,14.38a.5.5,0,1,1-.76.65L97.8,109.27,82.68,129.65A.51.51,0,0,1,82.28,129.85Z" fill="#d1d3d4"/><path d="M106.58,119.41a.51.51,0,0,1-.28-.09.5.5,0,0,1-.13-.69l6.28-9.08a.51.51,0,0,1,.78-.06l8.69,9.07a.51.51,0,0,1-.73.7l-8.26-8.63L107,119.19A.52.52,0,0,1,106.58,119.41Z" fill="#d1d3d4"/><path d="M107.27,110.34a2.93,2.93,0,1,1,2.92-2.93A2.93,2.93,0,0,1,107.27,110.34Zm0-4.86a1.93,1.93,0,1,0,1.92,1.93A1.93,1.93,0,0,0,107.27,105.48Z" fill="#d1d3d4"/><path d="M236.4,180.34a.46.46,0,0,1,0-.91l25.51-1.93a.44.44,0,0,1,.49.42.45.45,0,0,1-.42.49l-25.51,1.93Z" fill="#231f20"/><circle cx="300.61" cy="89.37" r="28.26" fill="#fff"/><path d="M300.61,118.12a28.76,28.76,0,1,1,28.76-28.75A28.79,28.79,0,0,1,300.61,118.12Zm0-56.51a27.76,27.76,0,1,0,27.76,27.76A27.79,27.79,0,0,0,300.61,61.61Z" fill="#d1d3d4"/><path d="M319.05,100H282.17a.5.5,0,0,1-.5-.5V79.21a.5.5,0,0,1,.5-.5h36.88a.5.5,0,0,1,.5.5V99.53A.5.5,0,0,1,319.05,100Zm-36.38-1h35.88V79.71H282.67Z" fill="#d1d3d4"/><path d="M300.62,92.38a.6.6,0,0,1-.29-.08L281.89,79.62a.5.5,0,0,1,.56-.83l18.17,12.49,18.15-12.49a.5.5,0,0,1,.56.83L300.9,92.3A.6.6,0,0,1,300.62,92.38Z" fill="#d1d3d4"/><path d="M282.17,100a.49.49,0,0,1-.41-.22.5.5,0,0,1,.13-.7L296.67,89a.5.5,0,0,1,.56.83L282.45,99.94A.47.47,0,0,1,282.17,100Z" fill="#d1d3d4"/><path d="M319.05,100a.47.47,0,0,1-.28-.09L304,89.78a.5.5,0,0,1,.56-.83l14.77,10.16a.5.5,0,0,1,.13.7A.49.49,0,0,1,319.05,100Z" fill="#d1d3d4"/><circle cx="152.98" cy="56.58" r="23.24" fill="#fff"/><path d="M153,80.32a23.75,23.75,0,1,1,23.75-23.74A23.77,23.77,0,0,1,153,80.32Zm0-46.49a22.75,22.75,0,1,0,22.75,22.75A22.77,22.77,0,0,0,153,33.83Z" fill="#d1d3d4"/><path d="M149.89,60.33H141a4.21,4.21,0,0,1-4.21-4.2V55A4.21,4.21,0,0,1,141,50.8h8.87a.5.5,0,0,1,.5.5v8.53A.5.5,0,0,1,149.89,60.33ZM141,51.8a3.21,3.21,0,0,0-3.21,3.2v1.13a3.21,3.21,0,0,0,3.21,3.2h8.37V51.8Z" fill="#d1d3d4"/><path d="M164.2,67.4a.54.54,0,0,1-.22-.05l-14.31-7.07a.5.5,0,0,1-.28-.45V51.07a.51.51,0,0,1,.28-.45L164,43.56a.48.48,0,0,1,.48,0,.49.49,0,0,1,.24.42V66.9a.52.52,0,0,1-.5.5Zm-13.81-7.88,13.31,6.57V44.81l-13.31,6.57Z" fill="#d1d3d4"/><path d="M164.2,60.4a.5.5,0,0,1-.5-.5.5.5,0,0,1,.5-.5,4,4,0,1,0,0-7.9.5.5,0,0,1-.5-.5.5.5,0,0,1,.5-.5,4.95,4.95,0,1,1,0,9.9Z" fill="#d1d3d4"/><path d="M144.85,69.65a2.52,2.52,0,0,1-2.53-2.52v-7.3a.5.5,0,0,1,.5-.5h4.06a.51.51,0,0,1,.5.5v7.3A2.53,2.53,0,0,1,144.85,69.65Zm-1.53-9.32v6.8a1.53,1.53,0,0,0,3.06,0v-6.8Z" fill="#d1d3d4"/><path d="M144,54.47h-3.75a.5.5,0,0,1,0-1H144a.5.5,0,0,1,0,1Z" fill="#d1d3d4"/><path d="M155.67,185.58h-25.5a.5.5,0,0,1,0-1h25.5a.5.5,0,0,1,0,1Z" fill="#d1d3d4"/><path d="M161.67,179.37h-31.5a.5.5,0,0,1-.5-.5.5.5,0,0,1,.5-.5h31.5a.51.51,0,0,1,.5.5A.5.5,0,0,1,161.67,179.37Z" fill="#d1d3d4"/><path d="M160.21,173.25h-30a.5.5,0,0,1-.5-.5.5.5,0,0,1,.5-.5h30a.5.5,0,0,1,.5.5A.5.5,0,0,1,160.21,173.25Z" fill="#d1d3d4"/></g></svg>