<svg width="1440" height="634" viewBox="0 0 1440 634" fill="none" xmlns="http://www.w3.org/2000/svg">
<rect width="1440" height="634" rx="4" fill="#4B8FE2"/>
<path d="M889.984 530.891C889.984 530.531 890.104 530.24 890.344 530.016C890.589 529.792 890.893 529.68 891.258 529.68C891.628 529.68 891.932 529.792 892.172 530.016C892.417 530.24 892.539 530.531 892.539 530.891C892.539 531.245 892.419 531.534 892.18 531.758C891.94 531.977 891.633 532.086 891.258 532.086C890.888 532.086 890.583 531.977 890.344 531.758C890.104 531.534 889.984 531.245 889.984 530.891ZM894.641 530.891C894.641 530.531 894.76 530.24 895 530.016C895.245 529.792 895.549 529.68 895.914 529.68C896.284 529.68 896.589 529.792 896.828 530.016C897.073 530.24 897.195 530.531 897.195 530.891C897.195 531.245 897.076 531.534 896.836 531.758C896.596 531.977 896.289 532.086 895.914 532.086C895.544 532.086 895.24 531.977 895 531.758C894.76 531.534 894.641 531.245 894.641 530.891ZM899.297 530.891C899.297 530.531 899.417 530.24 899.656 530.016C899.901 529.792 900.206 529.68 900.57 529.68C900.94 529.68 901.245 529.792 901.484 530.016C901.729 530.24 901.852 530.531 901.852 530.891C901.852 531.245 901.732 531.534 901.492 531.758C901.253 531.977 900.945 532.086 900.57 532.086C900.201 532.086 899.896 531.977 899.656 531.758C899.417 531.534 899.297 531.245 899.297 530.891ZM903.953 530.891C903.953 530.531 904.073 530.24 904.312 530.016C904.557 529.792 904.862 529.68 905.227 529.68C905.596 529.68 905.901 529.792 906.141 530.016C906.385 530.24 906.508 530.531 906.508 530.891C906.508 531.245 906.388 531.534 906.148 531.758C905.909 531.977 905.602 532.086 905.227 532.086C904.857 532.086 904.552 531.977 904.312 531.758C904.073 531.534 903.953 531.245 903.953 530.891ZM908.609 530.891C908.609 530.531 908.729 530.24 908.969 530.016C909.214 529.792 909.518 529.68 909.883 529.68C910.253 529.68 910.557 529.792 910.797 530.016C911.042 530.24 911.164 530.531 911.164 530.891C911.164 531.245 911.044 531.534 910.805 531.758C910.565 531.977 910.258 532.086 909.883 532.086C909.513 532.086 909.208 531.977 908.969 531.758C908.729 531.534 908.609 531.245 908.609 530.891ZM913.266 530.891C913.266 530.531 913.385 530.24 913.625 530.016C913.87 529.792 914.174 529.68 914.539 529.68C914.909 529.68 915.214 529.792 915.453 530.016C915.698 530.24 915.82 530.531 915.82 530.891C915.82 531.245 915.701 531.534 915.461 531.758C915.221 531.977 914.914 532.086 914.539 532.086C914.169 532.086 913.865 531.977 913.625 531.758C913.385 531.534 913.266 531.245 913.266 530.891Z" fill="white"/>
<rect x="729" y="504" width="30" height="30" rx="4" fill="white" fill-opacity="0.5"/>
<path d="M745.258 525H743V516.297L740.305 517.133V515.297L745.016 513.609H745.258V525Z" fill="white"/>
<rect x="769" y="504" width="30" height="30" rx="4" fill="white"/>
<path d="M787.57 525H779.773V523.453L783.453 519.531C783.958 518.979 784.331 518.497 784.57 518.086C784.815 517.674 784.938 517.284 784.938 516.914C784.938 516.409 784.81 516.013 784.555 515.727C784.299 515.435 783.935 515.289 783.461 515.289C782.951 515.289 782.547 515.466 782.25 515.82C781.958 516.169 781.812 516.63 781.812 517.203H779.547C779.547 516.51 779.711 515.878 780.039 515.305C780.372 514.732 780.841 514.284 781.445 513.961C782.049 513.633 782.734 513.469 783.5 513.469C784.672 513.469 785.581 513.75 786.227 514.312C786.878 514.875 787.203 515.669 787.203 516.695C787.203 517.258 787.057 517.831 786.766 518.414C786.474 518.997 785.974 519.677 785.266 520.453L782.68 523.18H787.57V525Z" fill="#4B8FE2"/>
<rect x="809" y="504" width="30" height="30" rx="4" fill="white"/>
<path d="M822.07 518.312H823.273C823.846 518.312 824.271 518.169 824.547 517.883C824.823 517.596 824.961 517.216 824.961 516.742C824.961 516.284 824.823 515.927 824.547 515.672C824.276 515.417 823.901 515.289 823.422 515.289C822.99 515.289 822.628 515.409 822.336 515.648C822.044 515.883 821.898 516.19 821.898 516.57H819.641C819.641 515.977 819.799 515.445 820.117 514.977C820.44 514.503 820.888 514.133 821.461 513.867C822.039 513.602 822.674 513.469 823.367 513.469C824.57 513.469 825.513 513.758 826.195 514.336C826.878 514.909 827.219 515.701 827.219 516.711C827.219 517.232 827.06 517.711 826.742 518.148C826.424 518.586 826.008 518.922 825.492 519.156C826.133 519.385 826.609 519.729 826.922 520.188C827.24 520.646 827.398 521.188 827.398 521.812C827.398 522.823 827.029 523.633 826.289 524.242C825.555 524.852 824.581 525.156 823.367 525.156C822.232 525.156 821.302 524.857 820.578 524.258C819.859 523.659 819.5 522.867 819.5 521.883H821.758C821.758 522.31 821.917 522.659 822.234 522.93C822.557 523.201 822.953 523.336 823.422 523.336C823.958 523.336 824.378 523.195 824.68 522.914C824.987 522.628 825.141 522.25 825.141 521.781C825.141 520.646 824.516 520.078 823.266 520.078H822.07V518.312Z" fill="#4B8FE2"/>
<rect x="849" y="504" width="30" height="30" rx="4" fill="white"/>
<path d="M866.453 520.719H867.742V522.539H866.453V525H864.195V522.539H859.531L859.43 521.117L864.172 513.625H866.453V520.719ZM861.68 520.719H864.195V516.703L864.047 516.961L861.68 520.719Z" fill="#4B8FE2"/>
<rect x="927" y="504" width="30" height="30" rx="4" fill="white"/>
<path d="M939.258 525H937V516.297L934.305 517.133V515.297L939.016 513.609H939.258V525ZM950.617 520.297C950.617 521.87 950.292 523.073 949.641 523.906C948.99 524.74 948.036 525.156 946.781 525.156C945.542 525.156 944.594 524.747 943.938 523.93C943.281 523.112 942.945 521.94 942.93 520.414V518.32C942.93 516.732 943.258 515.526 943.914 514.703C944.576 513.88 945.526 513.469 946.766 513.469C948.005 513.469 948.953 513.878 949.609 514.695C950.266 515.508 950.602 516.677 950.617 518.203V520.297ZM948.359 518C948.359 517.057 948.229 516.372 947.969 515.945C947.714 515.513 947.312 515.297 946.766 515.297C946.234 515.297 945.841 515.503 945.586 515.914C945.336 516.32 945.203 516.958 945.188 517.828V520.594C945.188 521.521 945.312 522.211 945.562 522.664C945.818 523.112 946.224 523.336 946.781 523.336C947.333 523.336 947.732 523.12 947.977 522.688C948.221 522.255 948.349 521.594 948.359 520.703V518Z" fill="#4B8FE2"/>
<rect x="977" y="504" width="94" height="30" rx="4" fill="white"/>
<path d="M996.258 525H994V516.297L991.305 517.133V515.297L996.016 513.609H996.258V525ZM1007.62 520.297C1007.62 521.87 1007.29 523.073 1006.64 523.906C1005.99 524.74 1005.04 525.156 1003.78 525.156C1002.54 525.156 1001.59 524.747 1000.94 523.93C1000.28 523.112 999.945 521.94 999.93 520.414V518.32C999.93 516.732 1000.26 515.526 1000.91 514.703C1001.58 513.88 1002.53 513.469 1003.77 513.469C1005.01 513.469 1005.95 513.878 1006.61 514.695C1007.27 515.508 1007.6 516.677 1007.62 518.203V520.297ZM1005.36 518C1005.36 517.057 1005.23 516.372 1004.97 515.945C1004.71 515.513 1004.31 515.297 1003.77 515.297C1003.23 515.297 1002.84 515.503 1002.59 515.914C1002.34 516.32 1002.2 516.958 1002.19 517.828V520.594C1002.19 521.521 1002.31 522.211 1002.56 522.664C1002.82 523.112 1003.22 523.336 1003.78 523.336C1004.33 523.336 1004.73 523.12 1004.98 522.688C1005.22 522.255 1005.35 521.594 1005.36 520.703V518ZM1013.94 525.977H1012.26L1016.45 513.625H1018.12L1013.94 525.977ZM1030.8 520.852C1030.8 522.154 1030.51 523.198 1029.91 523.984C1029.33 524.766 1028.53 525.156 1027.52 525.156C1026.67 525.156 1025.98 524.859 1025.45 524.266V528.25H1023.2V516.547H1025.29L1025.37 517.375C1025.91 516.719 1026.63 516.391 1027.51 516.391C1028.55 516.391 1029.36 516.776 1029.94 517.547C1030.52 518.318 1030.8 519.38 1030.8 520.734V520.852ZM1028.55 520.688C1028.55 519.901 1028.41 519.294 1028.12 518.867C1027.85 518.44 1027.45 518.227 1026.91 518.227C1026.21 518.227 1025.72 518.497 1025.45 519.039V522.5C1025.73 523.057 1026.22 523.336 1026.93 523.336C1028.01 523.336 1028.55 522.453 1028.55 520.688ZM1037.11 525C1037.01 524.797 1036.93 524.544 1036.88 524.242C1036.34 524.852 1035.62 525.156 1034.75 525.156C1033.92 525.156 1033.23 524.917 1032.69 524.438C1032.15 523.958 1031.88 523.354 1031.88 522.625C1031.88 521.729 1032.21 521.042 1032.87 520.562C1033.53 520.083 1034.49 519.841 1035.75 519.836H1036.79V519.352C1036.79 518.961 1036.69 518.648 1036.48 518.414C1036.29 518.18 1035.97 518.062 1035.54 518.062C1035.16 518.062 1034.86 518.154 1034.64 518.336C1034.43 518.518 1034.32 518.768 1034.32 519.086H1032.06C1032.06 518.596 1032.21 518.143 1032.52 517.727C1032.82 517.31 1033.24 516.984 1033.8 516.75C1034.35 516.51 1034.97 516.391 1035.66 516.391C1036.7 516.391 1037.52 516.654 1038.13 517.18C1038.75 517.701 1039.05 518.435 1039.05 519.383V523.047C1039.06 523.849 1039.17 524.456 1039.39 524.867V525H1037.11ZM1035.24 523.43C1035.58 523.43 1035.88 523.357 1036.16 523.211C1036.45 523.06 1036.65 522.859 1036.79 522.609V521.156H1035.95C1034.82 521.156 1034.21 521.547 1034.14 522.328L1034.13 522.461C1034.13 522.742 1034.23 522.974 1034.43 523.156C1034.63 523.339 1034.9 523.43 1035.24 523.43ZM1040.46 520.711C1040.46 519.414 1040.77 518.37 1041.38 517.578C1042 516.786 1042.84 516.391 1043.88 516.391C1044.81 516.391 1045.53 516.708 1046.05 517.344L1046.14 516.547H1048.19V524.719C1048.19 525.458 1048.02 526.102 1047.68 526.648C1047.35 527.195 1046.88 527.612 1046.27 527.898C1045.66 528.185 1044.94 528.328 1044.12 528.328C1043.51 528.328 1042.9 528.203 1042.31 527.953C1041.72 527.708 1041.28 527.391 1040.98 527L1041.98 525.625C1042.54 526.255 1043.22 526.57 1044.02 526.57C1044.62 526.57 1045.09 526.409 1045.42 526.086C1045.76 525.768 1045.92 525.315 1045.92 524.727V524.273C1045.4 524.862 1044.72 525.156 1043.87 525.156C1042.85 525.156 1042.03 524.76 1041.4 523.969C1040.77 523.172 1040.46 522.117 1040.46 520.805V520.711ZM1042.72 520.875C1042.72 521.641 1042.87 522.242 1043.18 522.68C1043.49 523.112 1043.91 523.328 1044.45 523.328C1045.13 523.328 1045.62 523.07 1045.92 522.555V519C1045.62 518.484 1045.13 518.227 1044.46 518.227C1043.92 518.227 1043.49 518.448 1043.18 518.891C1042.87 519.333 1042.72 519.995 1042.72 520.875ZM1053.82 525.156C1052.58 525.156 1051.57 524.776 1050.79 524.016C1050.01 523.255 1049.62 522.242 1049.62 520.977V520.758C1049.62 519.909 1049.79 519.151 1050.12 518.484C1050.45 517.812 1050.91 517.297 1051.51 516.938C1052.11 516.573 1052.8 516.391 1053.57 516.391C1054.73 516.391 1055.64 516.755 1056.3 517.484C1056.96 518.214 1057.3 519.247 1057.3 520.586V521.508H1051.91C1051.99 522.06 1052.21 522.503 1052.57 522.836C1052.94 523.169 1053.41 523.336 1053.97 523.336C1054.84 523.336 1055.52 523.021 1056.01 522.391L1057.12 523.633C1056.78 524.112 1056.32 524.487 1055.74 524.758C1055.16 525.023 1054.52 525.156 1053.82 525.156ZM1053.56 518.219C1053.11 518.219 1052.75 518.37 1052.47 518.672C1052.19 518.974 1052.02 519.406 1051.94 519.969H1055.08V519.789C1055.07 519.289 1054.93 518.904 1054.67 518.633C1054.41 518.357 1054.04 518.219 1053.56 518.219Z" fill="#4B8FE2"/>
<g filter="url(#filter0_d)">
<rect x="370" y="184" width="700" height="300" rx="4" fill="white"/>
</g>
<path d="M370 434H1070V480C1070 482.209 1068.21 484 1066 484H374C371.791 484 370 482.209 370 480V434Z" fill="white"/>
<rect x="422" y="455" width="126" height="8" rx="4" fill="black" fill-opacity="0.5"/>
<rect x="598" y="455" width="422" height="8" rx="4" fill="black" fill-opacity="0.5"/>
<path d="M370 384H1070V434H370V384Z" fill="#F7F7F7"/>
<rect x="422" y="405" width="126" height="8" rx="4" fill="black" fill-opacity="0.5"/>
<rect x="598" y="405" width="422" height="8" rx="4" fill="black" fill-opacity="0.5"/>
<path d="M370 334H1070V384H370V334Z" fill="white"/>
<rect x="422" y="355" width="126" height="8" rx="4" fill="black" fill-opacity="0.5"/>
<rect x="598" y="355" width="422" height="8" rx="4" fill="black" fill-opacity="0.5"/>
<path d="M370 284H1070V334H370V284Z" fill="#F7F7F7"/>
<rect x="422" y="305" width="126" height="8" rx="4" fill="black" fill-opacity="0.5"/>
<rect x="598" y="305" width="422" height="8" rx="4" fill="black" fill-opacity="0.5"/>
<path d="M370 234H1070V284H370V234Z" fill="white"/>
<rect x="422" y="255" width="126" height="8" rx="4" fill="black" fill-opacity="0.5"/>
<rect x="598" y="255" width="422" height="8" rx="4" fill="black" fill-opacity="0.5"/>
<path d="M370 188C370 185.791 371.791 184 374 184H1066C1068.21 184 1070 185.791 1070 188V234H370V188Z" fill="black" fill-opacity="0.1"/>
<rect x="421" y="205" width="126" height="8" rx="4" fill="black" fill-opacity="0.2"/>
<rect x="597" y="205" width="422" height="8" rx="4" fill="black" fill-opacity="0.2"/>
<path d="M1089.38 506.219H1085.83V516H1083.87V506.219H1080.35V504.625H1089.38V506.219ZM1092.56 508.469C1093.18 507.75 1093.97 507.391 1094.91 507.391C1096.72 507.391 1097.63 508.419 1097.66 510.477V516H1095.76V510.547C1095.76 509.964 1095.63 509.552 1095.38 509.312C1095.12 509.068 1094.76 508.945 1094.27 508.945C1093.51 508.945 1092.94 509.284 1092.56 509.961V516H1090.66V504H1092.56V508.469ZM1103.3 516.156C1102.1 516.156 1101.12 515.779 1100.38 515.023C1099.63 514.263 1099.26 513.253 1099.26 511.992V511.758C1099.26 510.914 1099.42 510.161 1099.74 509.5C1100.07 508.833 1100.53 508.315 1101.12 507.945C1101.71 507.576 1102.36 507.391 1103.09 507.391C1104.24 507.391 1105.12 507.758 1105.75 508.492C1106.38 509.227 1106.7 510.266 1106.7 511.609V512.375H1101.17C1101.23 513.073 1101.46 513.625 1101.87 514.031C1102.28 514.438 1102.79 514.641 1103.41 514.641C1104.28 514.641 1104.99 514.289 1105.54 513.586L1106.56 514.562C1106.22 515.068 1105.77 515.461 1105.2 515.742C1104.64 516.018 1104.01 516.156 1103.3 516.156ZM1103.08 508.914C1102.56 508.914 1102.14 509.096 1101.81 509.461C1101.49 509.826 1101.29 510.333 1101.2 510.984H1104.82V510.844C1104.78 510.208 1104.61 509.729 1104.31 509.406C1104.02 509.078 1103.6 508.914 1103.08 508.914ZM1117.28 515.172C1116.72 515.828 1115.93 516.156 1114.91 516.156C1113.99 516.156 1113.29 515.888 1112.82 515.352C1112.35 514.815 1112.12 514.039 1112.12 513.023V507.547H1114.02V513C1114.02 514.073 1114.46 514.609 1115.35 514.609C1116.27 514.609 1116.9 514.279 1117.22 513.617V507.547H1119.12V516H1117.33L1117.28 515.172ZM1125.79 513.703C1125.79 513.365 1125.65 513.107 1125.37 512.93C1125.09 512.753 1124.63 512.596 1123.98 512.461C1123.34 512.326 1122.8 512.154 1122.37 511.945C1121.42 511.487 1120.95 510.823 1120.95 509.953C1120.95 509.224 1121.25 508.615 1121.87 508.125C1122.48 507.635 1123.26 507.391 1124.21 507.391C1125.22 507.391 1126.04 507.641 1126.66 508.141C1127.28 508.641 1127.59 509.289 1127.59 510.086H1125.7C1125.7 509.721 1125.56 509.419 1125.29 509.18C1125.02 508.935 1124.66 508.812 1124.21 508.812C1123.79 508.812 1123.45 508.909 1123.19 509.102C1122.93 509.294 1122.8 509.552 1122.8 509.875C1122.8 510.167 1122.92 510.393 1123.16 510.555C1123.41 510.716 1123.9 510.88 1124.65 511.047C1125.39 511.208 1125.98 511.404 1126.4 511.633C1126.83 511.857 1127.14 512.128 1127.34 512.445C1127.55 512.763 1127.66 513.148 1127.66 513.602C1127.66 514.362 1127.34 514.979 1126.71 515.453C1126.08 515.922 1125.26 516.156 1124.23 516.156C1123.54 516.156 1122.92 516.031 1122.38 515.781C1121.84 515.531 1121.42 515.188 1121.12 514.75C1120.82 514.312 1120.66 513.841 1120.66 513.336H1122.51C1122.53 513.784 1122.7 514.13 1123.02 514.375C1123.33 514.615 1123.74 514.734 1124.26 514.734C1124.76 514.734 1125.14 514.641 1125.4 514.453C1125.66 514.26 1125.79 514.01 1125.79 513.703ZM1133.04 516.156C1131.84 516.156 1130.86 515.779 1130.11 515.023C1129.36 514.263 1128.99 513.253 1128.99 511.992V511.758C1128.99 510.914 1129.15 510.161 1129.48 509.5C1129.8 508.833 1130.26 508.315 1130.85 507.945C1131.44 507.576 1132.1 507.391 1132.82 507.391C1133.97 507.391 1134.86 507.758 1135.48 508.492C1136.11 509.227 1136.43 510.266 1136.43 511.609V512.375H1130.91C1130.96 513.073 1131.2 513.625 1131.6 514.031C1132.01 514.438 1132.53 514.641 1133.15 514.641C1134.02 514.641 1134.73 514.289 1135.27 513.586L1136.3 514.562C1135.96 515.068 1135.51 515.461 1134.94 515.742C1134.38 516.018 1133.74 516.156 1133.04 516.156ZM1132.81 508.914C1132.29 508.914 1131.87 509.096 1131.55 509.461C1131.23 509.826 1131.03 510.333 1130.94 510.984H1134.55V510.844C1134.51 510.208 1134.34 509.729 1134.05 509.406C1133.75 509.078 1133.34 508.914 1132.81 508.914ZM1142.34 509.281C1142.09 509.24 1141.83 509.219 1141.56 509.219C1140.69 509.219 1140.11 509.552 1139.8 510.219V516H1137.91V507.547H1139.72L1139.77 508.492C1140.22 507.758 1140.86 507.391 1141.67 507.391C1141.94 507.391 1142.17 507.427 1142.34 507.5L1142.34 509.281ZM1150.99 514.641C1151.47 514.641 1151.86 514.503 1152.17 514.227C1152.48 513.951 1152.65 513.609 1152.67 513.203H1154.46C1154.44 513.729 1154.28 514.221 1153.97 514.68C1153.66 515.133 1153.24 515.492 1152.72 515.758C1152.19 516.023 1151.62 516.156 1151.02 516.156C1149.83 516.156 1148.9 515.773 1148.2 515.008C1147.51 514.242 1147.16 513.185 1147.16 511.836V511.641C1147.16 510.354 1147.51 509.326 1148.2 508.555C1148.88 507.779 1149.82 507.391 1151.01 507.391C1152.01 507.391 1152.83 507.685 1153.46 508.273C1154.1 508.857 1154.43 509.625 1154.46 510.578H1152.67C1152.65 510.094 1152.48 509.695 1152.17 509.383C1151.86 509.07 1151.47 508.914 1150.99 508.914C1150.38 508.914 1149.9 509.138 1149.57 509.586C1149.24 510.029 1149.07 510.703 1149.06 511.609V511.914C1149.06 512.831 1149.23 513.516 1149.55 513.969C1149.89 514.417 1150.37 514.641 1150.99 514.641ZM1160.95 516C1160.86 515.839 1160.79 515.576 1160.73 515.211C1160.12 515.841 1159.38 516.156 1158.51 516.156C1157.66 516.156 1156.97 515.914 1156.43 515.43C1155.89 514.945 1155.62 514.346 1155.62 513.633C1155.62 512.732 1155.96 512.042 1156.62 511.562C1157.3 511.078 1158.26 510.836 1159.5 510.836H1160.66V510.281C1160.66 509.844 1160.54 509.495 1160.3 509.234C1160.05 508.969 1159.68 508.836 1159.18 508.836C1158.75 508.836 1158.39 508.945 1158.12 509.164C1157.84 509.378 1157.7 509.651 1157.7 509.984H1155.8C1155.8 509.521 1155.96 509.089 1156.27 508.688C1156.57 508.281 1156.99 507.964 1157.52 507.734C1158.05 507.505 1158.64 507.391 1159.29 507.391C1160.28 507.391 1161.07 507.641 1161.66 508.141C1162.24 508.635 1162.55 509.333 1162.56 510.234V514.047C1162.56 514.807 1162.67 515.414 1162.88 515.867V516H1160.95ZM1158.86 514.633C1159.23 514.633 1159.59 514.542 1159.91 514.359C1160.25 514.177 1160.5 513.932 1160.66 513.625V512.031H1159.64C1158.94 512.031 1158.41 512.154 1158.05 512.398C1157.7 512.643 1157.52 512.99 1157.52 513.438C1157.52 513.802 1157.64 514.094 1157.88 514.312C1158.13 514.526 1158.45 514.633 1158.86 514.633ZM1166.31 507.547L1166.37 508.523C1166.99 507.768 1167.81 507.391 1168.83 507.391C1170.59 507.391 1171.48 508.398 1171.52 510.414V516H1169.62V510.523C1169.62 509.987 1169.5 509.591 1169.27 509.336C1169.04 509.076 1168.66 508.945 1168.13 508.945C1167.37 508.945 1166.8 509.292 1166.42 509.984V516H1164.52V507.547H1166.31ZM1179.23 507.547L1179.28 508.43C1179.88 507.737 1180.69 507.391 1181.72 507.391C1182.85 507.391 1183.62 507.823 1184.04 508.688C1184.65 507.823 1185.52 507.391 1186.63 507.391C1187.57 507.391 1188.26 507.648 1188.71 508.164C1189.17 508.68 1189.4 509.44 1189.41 510.445V516H1187.52V510.5C1187.52 509.964 1187.4 509.57 1187.16 509.32C1186.93 509.07 1186.54 508.945 1186 508.945C1185.57 508.945 1185.21 509.062 1184.94 509.297C1184.67 509.526 1184.48 509.828 1184.37 510.203L1184.38 516H1182.48V510.438C1182.45 509.443 1181.94 508.945 1180.95 508.945C1180.19 508.945 1179.65 509.255 1179.34 509.875V516H1177.44V507.547H1179.23ZM1191.01 511.695C1191.01 510.867 1191.17 510.122 1191.5 509.461C1191.83 508.794 1192.29 508.284 1192.88 507.93C1193.48 507.57 1194.16 507.391 1194.93 507.391C1196.07 507.391 1196.99 507.758 1197.7 508.492C1198.42 509.227 1198.8 510.201 1198.86 511.414L1198.87 511.859C1198.87 512.693 1198.71 513.438 1198.38 514.094C1198.07 514.75 1197.61 515.258 1197.01 515.617C1196.41 515.977 1195.73 516.156 1194.95 516.156C1193.75 516.156 1192.8 515.76 1192.08 514.969C1191.36 514.172 1191.01 513.112 1191.01 511.789V511.695ZM1192.91 511.859C1192.91 512.729 1193.09 513.411 1193.45 513.906C1193.8 514.396 1194.3 514.641 1194.95 514.641C1195.59 514.641 1196.08 514.391 1196.44 513.891C1196.8 513.391 1196.98 512.659 1196.98 511.695C1196.98 510.841 1196.79 510.164 1196.42 509.664C1196.06 509.164 1195.56 508.914 1194.93 508.914C1194.31 508.914 1193.82 509.161 1193.45 509.656C1193.09 510.146 1192.91 510.88 1192.91 511.859ZM1200.12 511.711C1200.12 510.409 1200.42 509.365 1201.02 508.578C1201.63 507.786 1202.44 507.391 1203.45 507.391C1204.35 507.391 1205.07 507.703 1205.62 508.328V504H1207.52V516H1205.8L1205.71 515.125C1205.14 515.812 1204.39 516.156 1203.44 516.156C1202.45 516.156 1201.65 515.758 1201.03 514.961C1200.42 514.164 1200.12 513.081 1200.12 511.711ZM1202.02 511.875C1202.02 512.734 1202.18 513.406 1202.51 513.891C1202.84 514.37 1203.31 514.609 1203.92 514.609C1204.7 514.609 1205.27 514.263 1205.62 513.57V509.961C1205.28 509.284 1204.71 508.945 1203.94 508.945C1203.32 508.945 1202.85 509.19 1202.52 509.68C1202.18 510.164 1202.02 510.896 1202.02 511.875ZM1211.52 516H1209.62V507.547H1211.52V516ZM1209.51 505.352C1209.51 505.06 1209.6 504.818 1209.78 504.625C1209.97 504.432 1210.23 504.336 1210.58 504.336C1210.92 504.336 1211.19 504.432 1211.38 504.625C1211.56 504.818 1211.66 505.06 1211.66 505.352C1211.66 505.638 1211.56 505.878 1211.38 506.07C1211.19 506.258 1210.92 506.352 1210.58 506.352C1210.23 506.352 1209.97 506.258 1209.78 506.07C1209.6 505.878 1209.51 505.638 1209.51 505.352ZM1214.27 516V508.953H1212.98V507.547H1214.27V506.773C1214.27 505.836 1214.53 505.112 1215.05 504.602C1215.57 504.091 1216.3 503.836 1217.23 503.836C1217.57 503.836 1217.92 503.883 1218.3 503.977L1218.25 505.461C1218.04 505.419 1217.8 505.398 1217.52 505.398C1216.62 505.398 1216.16 505.865 1216.16 506.797V507.547H1217.88V508.953H1216.16V516H1214.27ZM1222.23 513.281L1223.95 507.547H1225.97L1222.61 517.281C1222.09 518.703 1221.22 519.414 1219.98 519.414C1219.71 519.414 1219.4 519.367 1219.07 519.273V517.805L1219.43 517.828C1219.91 517.828 1220.27 517.74 1220.51 517.562C1220.75 517.391 1220.95 517.099 1221.09 516.688L1221.36 515.961L1218.39 507.547H1220.44L1222.23 513.281ZM1233.43 505.492V507.547H1234.92V508.953H1233.43V513.672C1233.43 513.995 1233.49 514.229 1233.62 514.375C1233.75 514.516 1233.98 514.586 1234.3 514.586C1234.52 514.586 1234.74 514.56 1234.97 514.508V515.977C1234.54 516.096 1234.12 516.156 1233.72 516.156C1232.26 516.156 1231.53 515.352 1231.53 513.742V508.953H1230.14V507.547H1231.53V505.492H1233.43ZM1238.25 508.469C1238.87 507.75 1239.65 507.391 1240.6 507.391C1242.4 507.391 1243.32 508.419 1243.34 510.477V516H1241.45V510.547C1241.45 509.964 1241.32 509.552 1241.06 509.312C1240.81 509.068 1240.44 508.945 1239.95 508.945C1239.19 508.945 1238.62 509.284 1238.25 509.961V516H1236.35V504H1238.25V508.469ZM1247.29 516H1245.39V507.547H1247.29V516ZM1245.27 505.352C1245.27 505.06 1245.36 504.818 1245.55 504.625C1245.73 504.432 1246 504.336 1246.34 504.336C1246.69 504.336 1246.95 504.432 1247.14 504.625C1247.33 504.818 1247.42 505.06 1247.42 505.352C1247.42 505.638 1247.33 505.878 1247.14 506.07C1246.95 506.258 1246.69 506.352 1246.34 506.352C1246 506.352 1245.73 506.258 1245.55 506.07C1245.36 505.878 1245.27 505.638 1245.27 505.352ZM1254.1 513.703C1254.1 513.365 1253.96 513.107 1253.68 512.93C1253.4 512.753 1252.94 512.596 1252.3 512.461C1251.65 512.326 1251.11 512.154 1250.68 511.945C1249.73 511.487 1249.26 510.823 1249.26 509.953C1249.26 509.224 1249.57 508.615 1250.18 508.125C1250.79 507.635 1251.58 507.391 1252.52 507.391C1253.53 507.391 1254.35 507.641 1254.97 508.141C1255.59 508.641 1255.91 509.289 1255.91 510.086H1254.01C1254.01 509.721 1253.87 509.419 1253.6 509.18C1253.33 508.935 1252.97 508.812 1252.52 508.812C1252.11 508.812 1251.77 508.909 1251.5 509.102C1251.24 509.294 1251.11 509.552 1251.11 509.875C1251.11 510.167 1251.23 510.393 1251.48 510.555C1251.72 510.716 1252.22 510.88 1252.96 511.047C1253.71 511.208 1254.29 511.404 1254.71 511.633C1255.14 511.857 1255.45 512.128 1255.66 512.445C1255.86 512.763 1255.97 513.148 1255.97 513.602C1255.97 514.362 1255.65 514.979 1255.02 515.453C1254.39 515.922 1253.57 516.156 1252.55 516.156C1251.85 516.156 1251.24 516.031 1250.7 515.781C1250.15 515.531 1249.73 515.188 1249.43 514.75C1249.13 514.312 1248.98 513.841 1248.98 513.336H1250.82C1250.85 513.784 1251.02 514.13 1251.33 514.375C1251.64 514.615 1252.05 514.734 1252.57 514.734C1253.07 514.734 1253.45 514.641 1253.71 514.453C1253.97 514.26 1254.1 514.01 1254.1 513.703ZM1266.66 516C1266.58 515.839 1266.51 515.576 1266.45 515.211C1265.84 515.841 1265.1 516.156 1264.23 516.156C1263.38 516.156 1262.68 515.914 1262.15 515.43C1261.61 514.945 1261.34 514.346 1261.34 513.633C1261.34 512.732 1261.68 512.042 1262.34 511.562C1263.02 511.078 1263.97 510.836 1265.22 510.836H1266.38V510.281C1266.38 509.844 1266.26 509.495 1266.02 509.234C1265.77 508.969 1265.4 508.836 1264.9 508.836C1264.47 508.836 1264.11 508.945 1263.84 509.164C1263.56 509.378 1263.42 509.651 1263.42 509.984H1261.52C1261.52 509.521 1261.68 509.089 1261.98 508.688C1262.29 508.281 1262.71 507.964 1263.23 507.734C1263.77 507.505 1264.36 507.391 1265.01 507.391C1266 507.391 1266.79 507.641 1267.38 508.141C1267.96 508.635 1268.27 509.333 1268.28 510.234V514.047C1268.28 514.807 1268.39 515.414 1268.6 515.867V516H1266.66ZM1264.58 514.633C1264.95 514.633 1265.3 514.542 1265.63 514.359C1265.97 514.177 1266.22 513.932 1266.38 513.625V512.031H1265.36C1264.66 512.031 1264.13 512.154 1263.77 512.398C1263.42 512.643 1263.24 512.99 1263.24 513.438C1263.24 513.802 1263.36 514.094 1263.6 514.312C1263.85 514.526 1264.17 514.633 1264.58 514.633ZM1272.05 507.547L1272.11 508.43C1272.7 507.737 1273.52 507.391 1274.55 507.391C1275.68 507.391 1276.45 507.823 1276.87 508.688C1277.48 507.823 1278.35 507.391 1279.46 507.391C1280.39 507.391 1281.09 507.648 1281.54 508.164C1282 508.68 1282.23 509.44 1282.24 510.445V516H1280.34V510.5C1280.34 509.964 1280.23 509.57 1279.99 509.32C1279.76 509.07 1279.37 508.945 1278.83 508.945C1278.4 508.945 1278.04 509.062 1277.77 509.297C1277.49 509.526 1277.3 509.828 1277.2 510.203L1277.2 516H1275.3V510.438C1275.28 509.443 1274.77 508.945 1273.78 508.945C1273.02 508.945 1272.48 509.255 1272.16 509.875V516H1270.27V507.547H1272.05ZM1283.84 511.695C1283.84 510.867 1284 510.122 1284.33 509.461C1284.66 508.794 1285.12 508.284 1285.71 507.93C1286.3 507.57 1286.99 507.391 1287.76 507.391C1288.9 507.391 1289.82 507.758 1290.53 508.492C1291.24 509.227 1291.63 510.201 1291.69 511.414L1291.7 511.859C1291.7 512.693 1291.53 513.438 1291.21 514.094C1290.89 514.75 1290.43 515.258 1289.84 515.617C1289.24 515.977 1288.55 516.156 1287.77 516.156C1286.58 516.156 1285.62 515.76 1284.91 514.969C1284.19 514.172 1283.84 513.112 1283.84 511.789V511.695ZM1285.73 511.859C1285.73 512.729 1285.91 513.411 1286.27 513.906C1286.63 514.396 1287.13 514.641 1287.77 514.641C1288.41 514.641 1288.91 514.391 1289.27 513.891C1289.62 513.391 1289.8 512.659 1289.8 511.695C1289.8 510.841 1289.62 510.164 1289.25 509.664C1288.89 509.164 1288.39 508.914 1287.76 508.914C1287.14 508.914 1286.65 509.161 1286.28 509.656C1285.92 510.146 1285.73 510.88 1285.73 511.859ZM1298.42 515.172C1297.86 515.828 1297.07 516.156 1296.05 516.156C1295.13 516.156 1294.43 515.888 1293.96 515.352C1293.49 514.815 1293.26 514.039 1293.26 513.023V507.547H1295.16V513C1295.16 514.073 1295.6 514.609 1296.49 514.609C1297.41 514.609 1298.04 514.279 1298.36 513.617V507.547H1300.26V516H1298.47L1298.42 515.172ZM1303.95 507.547L1304.01 508.523C1304.63 507.768 1305.45 507.391 1306.47 507.391C1308.23 507.391 1309.12 508.398 1309.16 510.414V516H1307.26V510.523C1307.26 509.987 1307.14 509.591 1306.91 509.336C1306.68 509.076 1306.3 508.945 1305.77 508.945C1305.01 508.945 1304.44 509.292 1304.06 509.984V516H1302.16V507.547H1303.95ZM1313.48 505.492V507.547H1314.97V508.953H1313.48V513.672C1313.48 513.995 1313.54 514.229 1313.66 514.375C1313.79 514.516 1314.02 514.586 1314.35 514.586C1314.57 514.586 1314.79 514.56 1315.02 514.508V515.977C1314.58 516.096 1314.17 516.156 1313.77 516.156C1312.31 516.156 1311.58 515.352 1311.58 513.742V508.953H1310.19V507.547H1311.58V505.492H1313.48ZM1320.05 511.695C1320.05 510.867 1320.22 510.122 1320.55 509.461C1320.88 508.794 1321.34 508.284 1321.93 507.93C1322.52 507.57 1323.21 507.391 1323.98 507.391C1325.12 507.391 1326.04 507.758 1326.75 508.492C1327.46 509.227 1327.85 510.201 1327.91 511.414L1327.91 511.859C1327.91 512.693 1327.75 513.438 1327.43 514.094C1327.11 514.75 1326.65 515.258 1326.05 515.617C1325.46 515.977 1324.77 516.156 1323.99 516.156C1322.8 516.156 1321.84 515.76 1321.12 514.969C1320.41 514.172 1320.05 513.112 1320.05 511.789V511.695ZM1321.95 511.859C1321.95 512.729 1322.13 513.411 1322.49 513.906C1322.85 514.396 1323.35 514.641 1323.99 514.641C1324.63 514.641 1325.13 514.391 1325.48 513.891C1325.84 513.391 1326.02 512.659 1326.02 511.695C1326.02 510.841 1325.84 510.164 1325.47 509.664C1325.1 509.164 1324.61 508.914 1323.98 508.914C1323.36 508.914 1322.86 509.161 1322.5 509.656C1322.14 510.146 1321.95 510.88 1321.95 511.859ZM1330.19 516V508.953H1328.9V507.547H1330.19V506.773C1330.19 505.836 1330.45 505.112 1330.97 504.602C1331.49 504.091 1332.22 503.836 1333.16 503.836C1333.49 503.836 1333.84 503.883 1334.22 503.977L1334.17 505.461C1333.96 505.419 1333.72 505.398 1333.45 505.398C1332.54 505.398 1332.09 505.865 1332.09 506.797V507.547H1333.8V508.953H1332.09V516H1330.19ZM1338.82 511.711C1338.82 510.409 1339.12 509.365 1339.73 508.578C1340.33 507.786 1341.14 507.391 1342.16 507.391C1343.05 507.391 1343.78 507.703 1344.33 508.328V504H1346.23V516H1344.51L1344.41 515.125C1343.85 515.812 1343.09 516.156 1342.14 516.156C1341.15 516.156 1340.35 515.758 1339.73 514.961C1339.12 514.164 1338.82 513.081 1338.82 511.711ZM1340.72 511.875C1340.72 512.734 1340.88 513.406 1341.21 513.891C1341.54 514.37 1342.02 514.609 1342.62 514.609C1343.4 514.609 1343.97 514.263 1344.33 513.57V509.961C1343.98 509.284 1343.42 508.945 1342.64 508.945C1342.03 508.945 1341.55 509.19 1341.22 509.68C1340.89 510.164 1340.72 510.896 1340.72 511.875ZM1353.26 516C1353.17 515.839 1353.1 515.576 1353.04 515.211C1352.43 515.841 1351.7 516.156 1350.82 516.156C1349.97 516.156 1349.28 515.914 1348.74 515.43C1348.21 514.945 1347.94 514.346 1347.94 513.633C1347.94 512.732 1348.27 512.042 1348.94 511.562C1349.61 511.078 1350.57 510.836 1351.81 510.836H1352.98V510.281C1352.98 509.844 1352.85 509.495 1352.61 509.234C1352.36 508.969 1351.99 508.836 1351.49 508.836C1351.06 508.836 1350.71 508.945 1350.43 509.164C1350.15 509.378 1350.02 509.651 1350.02 509.984H1348.12C1348.12 509.521 1348.27 509.089 1348.58 508.688C1348.89 508.281 1349.3 507.964 1349.83 507.734C1350.36 507.505 1350.95 507.391 1351.6 507.391C1352.59 507.391 1353.38 507.641 1353.97 508.141C1354.56 508.635 1354.86 509.333 1354.88 510.234V514.047C1354.88 514.807 1354.98 515.414 1355.2 515.867V516H1353.26ZM1351.17 514.633C1351.55 514.633 1351.9 514.542 1352.23 514.359C1352.56 514.177 1352.81 513.932 1352.98 513.625V512.031H1351.95C1351.25 512.031 1350.72 512.154 1350.37 512.398C1350.01 512.643 1349.84 512.99 1349.84 513.438C1349.84 513.802 1349.96 514.094 1350.2 514.312C1350.44 514.526 1350.77 514.633 1351.17 514.633ZM1359.24 505.492V507.547H1360.73V508.953H1359.24V513.672C1359.24 513.995 1359.3 514.229 1359.43 514.375C1359.56 514.516 1359.79 514.586 1360.12 514.586C1360.34 514.586 1360.56 514.56 1360.78 514.508V515.977C1360.35 516.096 1359.93 516.156 1359.53 516.156C1358.07 516.156 1357.34 515.352 1357.34 513.742V508.953H1355.95V507.547H1357.34V505.492H1359.24ZM1367.24 516C1367.16 515.839 1367.09 515.576 1367.02 515.211C1366.42 515.841 1365.68 516.156 1364.8 516.156C1363.96 516.156 1363.26 515.914 1362.73 515.43C1362.19 514.945 1361.92 514.346 1361.92 513.633C1361.92 512.732 1362.26 512.042 1362.92 511.562C1363.59 511.078 1364.55 510.836 1365.8 510.836H1366.96V510.281C1366.96 509.844 1366.84 509.495 1366.59 509.234C1366.35 508.969 1365.98 508.836 1365.48 508.836C1365.04 508.836 1364.69 508.945 1364.41 509.164C1364.14 509.378 1364 509.651 1364 509.984H1362.1C1362.1 509.521 1362.26 509.089 1362.56 508.688C1362.87 508.281 1363.29 507.964 1363.81 507.734C1364.34 507.505 1364.93 507.391 1365.59 507.391C1366.58 507.391 1367.36 507.641 1367.95 508.141C1368.54 508.635 1368.84 509.333 1368.86 510.234V514.047C1368.86 514.807 1368.97 515.414 1369.18 515.867V516H1367.24ZM1365.16 514.633C1365.53 514.633 1365.88 514.542 1366.21 514.359C1366.54 514.177 1366.79 513.932 1366.96 513.625V512.031H1365.94C1365.23 512.031 1364.71 512.154 1364.35 512.398C1364 512.643 1363.82 512.99 1363.82 513.438C1363.82 513.802 1363.94 514.094 1364.18 514.312C1364.42 514.526 1364.75 514.633 1365.16 514.633ZM1083.35 524.492V526.547H1084.84V527.953H1083.35V532.672C1083.35 532.995 1083.41 533.229 1083.54 533.375C1083.67 533.516 1083.9 533.586 1084.23 533.586C1084.45 533.586 1084.67 533.56 1084.89 533.508V534.977C1084.46 535.096 1084.04 535.156 1083.64 535.156C1082.18 535.156 1081.45 534.352 1081.45 532.742V527.953H1080.06V526.547H1081.45V524.492H1083.35ZM1088.17 527.469C1088.79 526.75 1089.58 526.391 1090.52 526.391C1092.33 526.391 1093.24 527.419 1093.27 529.477V535H1091.37V529.547C1091.37 528.964 1091.24 528.552 1090.98 528.312C1090.73 528.068 1090.36 527.945 1089.88 527.945C1089.11 527.945 1088.55 528.284 1088.17 528.961V535H1086.27V523H1088.17V527.469ZM1100.24 535C1100.16 534.839 1100.09 534.576 1100.02 534.211C1099.42 534.841 1098.68 535.156 1097.8 535.156C1096.96 535.156 1096.26 534.914 1095.73 534.43C1095.19 533.945 1094.92 533.346 1094.92 532.633C1094.92 531.732 1095.26 531.042 1095.92 530.562C1096.59 530.078 1097.55 529.836 1098.8 529.836H1099.96V529.281C1099.96 528.844 1099.84 528.495 1099.59 528.234C1099.35 527.969 1098.98 527.836 1098.48 527.836C1098.04 527.836 1097.69 527.945 1097.41 528.164C1097.14 528.378 1097 528.651 1097 528.984H1095.1C1095.1 528.521 1095.26 528.089 1095.56 527.688C1095.87 527.281 1096.29 526.964 1096.81 526.734C1097.34 526.505 1097.93 526.391 1098.59 526.391C1099.58 526.391 1100.36 526.641 1100.95 527.141C1101.54 527.635 1101.84 528.333 1101.86 529.234V533.047C1101.86 533.807 1101.97 534.414 1102.18 534.867V535H1100.24ZM1098.16 533.633C1098.53 533.633 1098.88 533.542 1099.21 533.359C1099.54 533.177 1099.79 532.932 1099.96 532.625V531.031H1098.94C1098.23 531.031 1097.71 531.154 1097.35 531.398C1097 531.643 1096.82 531.99 1096.82 532.438C1096.82 532.802 1096.94 533.094 1097.18 533.312C1097.42 533.526 1097.75 533.633 1098.16 533.633ZM1106.23 524.492V526.547H1107.72V527.953H1106.23V532.672C1106.23 532.995 1106.29 533.229 1106.41 533.375C1106.54 533.516 1106.77 533.586 1107.1 533.586C1107.32 533.586 1107.54 533.56 1107.77 533.508V534.977C1107.33 535.096 1106.92 535.156 1106.52 535.156C1105.06 535.156 1104.33 534.352 1104.33 532.742V527.953H1102.94V526.547H1104.33V524.492H1106.23ZM1115.54 524.492V526.547H1117.03V527.953H1115.54V532.672C1115.54 532.995 1115.6 533.229 1115.73 533.375C1115.86 533.516 1116.09 533.586 1116.41 533.586C1116.63 533.586 1116.85 533.56 1117.08 533.508V534.977C1116.65 535.096 1116.23 535.156 1115.83 535.156C1114.37 535.156 1113.64 534.352 1113.64 532.742V527.953H1112.25V526.547H1113.64V524.492H1115.54ZM1120.36 527.469C1120.98 526.75 1121.76 526.391 1122.71 526.391C1124.51 526.391 1125.43 527.419 1125.45 529.477V535H1123.55V529.547C1123.55 528.964 1123.43 528.552 1123.17 528.312C1122.92 528.068 1122.55 527.945 1122.06 527.945C1121.3 527.945 1120.73 528.284 1120.36 528.961V535H1118.46V523H1120.36V527.469ZM1131.1 535.156C1129.9 535.156 1128.92 534.779 1128.17 534.023C1127.43 533.263 1127.05 532.253 1127.05 530.992V530.758C1127.05 529.914 1127.22 529.161 1127.54 528.5C1127.87 527.833 1128.33 527.315 1128.91 526.945C1129.5 526.576 1130.16 526.391 1130.88 526.391C1132.03 526.391 1132.92 526.758 1133.55 527.492C1134.18 528.227 1134.49 529.266 1134.49 530.609V531.375H1128.97C1129.03 532.073 1129.26 532.625 1129.66 533.031C1130.08 533.438 1130.59 533.641 1131.21 533.641C1132.08 533.641 1132.79 533.289 1133.34 532.586L1134.36 533.562C1134.02 534.068 1133.57 534.461 1133 534.742C1132.44 535.018 1131.8 535.156 1131.1 535.156ZM1130.88 527.914C1130.35 527.914 1129.93 528.096 1129.61 528.461C1129.29 528.826 1129.09 529.333 1129 529.984H1132.62V529.844C1132.58 529.208 1132.41 528.729 1132.11 528.406C1131.81 528.078 1131.4 527.914 1130.88 527.914ZM1138.82 532.281L1140.54 526.547H1142.56L1139.2 536.281C1138.69 537.703 1137.81 538.414 1136.58 538.414C1136.3 538.414 1136 538.367 1135.66 538.273V536.805L1136.02 536.828C1136.5 536.828 1136.86 536.74 1137.1 536.562C1137.35 536.391 1137.54 536.099 1137.68 535.688L1137.95 534.961L1134.98 526.547H1137.03L1138.82 532.281ZM1155.07 532.383L1156.41 526.547H1158.27L1155.96 535H1154.4L1152.59 529.195L1150.8 535H1149.24L1146.93 526.547H1148.78L1150.15 532.32L1151.88 526.547H1153.31L1155.07 532.383ZM1164.59 535C1164.5 534.839 1164.43 534.576 1164.37 534.211C1163.76 534.841 1163.02 535.156 1162.15 535.156C1161.3 535.156 1160.61 534.914 1160.07 534.43C1159.53 533.945 1159.27 533.346 1159.27 532.633C1159.27 531.732 1159.6 531.042 1160.27 530.562C1160.94 530.078 1161.9 529.836 1163.14 529.836H1164.3V529.281C1164.3 528.844 1164.18 528.495 1163.94 528.234C1163.69 527.969 1163.32 527.836 1162.82 527.836C1162.39 527.836 1162.03 527.945 1161.76 528.164C1161.48 528.378 1161.34 528.651 1161.34 528.984H1159.45C1159.45 528.521 1159.6 528.089 1159.91 527.688C1160.21 527.281 1160.63 526.964 1161.16 526.734C1161.69 526.505 1162.28 526.391 1162.93 526.391C1163.92 526.391 1164.71 526.641 1165.3 527.141C1165.89 527.635 1166.19 528.333 1166.2 529.234V533.047C1166.2 533.807 1166.31 534.414 1166.52 534.867V535H1164.59ZM1162.5 533.633C1162.88 533.633 1163.23 533.542 1163.55 533.359C1163.89 533.177 1164.14 532.932 1164.3 532.625V531.031H1163.28C1162.58 531.031 1162.05 531.154 1161.7 531.398C1161.34 531.643 1161.16 531.99 1161.16 532.438C1161.16 532.802 1161.28 533.094 1161.52 533.312C1161.77 533.526 1162.09 533.633 1162.5 533.633ZM1169.95 526.547L1170.01 527.523C1170.63 526.768 1171.45 526.391 1172.47 526.391C1174.23 526.391 1175.12 527.398 1175.16 529.414V535H1173.26V529.523C1173.26 528.987 1173.14 528.591 1172.91 528.336C1172.68 528.076 1172.3 527.945 1171.77 527.945C1171.01 527.945 1170.44 528.292 1170.06 528.984V535H1168.16V526.547H1169.95ZM1179.48 524.492V526.547H1180.97V527.953H1179.48V532.672C1179.48 532.995 1179.54 533.229 1179.66 533.375C1179.79 533.516 1180.02 533.586 1180.35 533.586C1180.57 533.586 1180.79 533.56 1181.02 533.508V534.977C1180.58 535.096 1180.17 535.156 1179.77 535.156C1178.31 535.156 1177.58 534.352 1177.58 532.742V527.953H1176.19V526.547H1177.58V524.492H1179.48ZM1188.79 524.492V526.547H1190.28V527.953H1188.79V532.672C1188.79 532.995 1188.85 533.229 1188.98 533.375C1189.11 533.516 1189.34 533.586 1189.66 533.586C1189.88 533.586 1190.1 533.56 1190.33 533.508V534.977C1189.9 535.096 1189.48 535.156 1189.08 535.156C1187.62 535.156 1186.89 534.352 1186.89 532.742V527.953H1185.5V526.547H1186.89V524.492H1188.79ZM1191.15 530.695C1191.15 529.867 1191.31 529.122 1191.64 528.461C1191.97 527.794 1192.43 527.284 1193.02 526.93C1193.62 526.57 1194.3 526.391 1195.07 526.391C1196.21 526.391 1197.14 526.758 1197.84 527.492C1198.56 528.227 1198.94 529.201 1199 530.414L1199.01 530.859C1199.01 531.693 1198.85 532.438 1198.52 533.094C1198.21 533.75 1197.75 534.258 1197.15 534.617C1196.55 534.977 1195.87 535.156 1195.09 535.156C1193.89 535.156 1192.94 534.76 1192.22 533.969C1191.51 533.172 1191.15 532.112 1191.15 530.789V530.695ZM1193.05 530.859C1193.05 531.729 1193.23 532.411 1193.59 532.906C1193.95 533.396 1194.45 533.641 1195.09 533.641C1195.73 533.641 1196.22 533.391 1196.58 532.891C1196.94 532.391 1197.12 531.659 1197.12 530.695C1197.12 529.841 1196.93 529.164 1196.56 528.664C1196.2 528.164 1195.7 527.914 1195.07 527.914C1194.45 527.914 1193.96 528.161 1193.59 528.656C1193.23 529.146 1193.05 529.88 1193.05 530.859ZM1207.58 532.594L1209.37 526.547H1211.33L1208.4 535H1206.75L1203.8 526.547H1205.77L1207.58 532.594ZM1214.54 535H1212.64V526.547H1214.54V535ZM1212.52 524.352C1212.52 524.06 1212.61 523.818 1212.8 523.625C1212.98 523.432 1213.25 523.336 1213.59 523.336C1213.94 523.336 1214.2 523.432 1214.39 523.625C1214.58 523.818 1214.67 524.06 1214.67 524.352C1214.67 524.638 1214.58 524.878 1214.39 525.07C1214.2 525.258 1213.94 525.352 1213.59 525.352C1213.25 525.352 1212.98 525.258 1212.8 525.07C1212.61 524.878 1212.52 524.638 1212.52 524.352ZM1220.34 535.156C1219.13 535.156 1218.16 534.779 1217.41 534.023C1216.66 533.263 1216.29 532.253 1216.29 530.992V530.758C1216.29 529.914 1216.45 529.161 1216.77 528.5C1217.1 527.833 1217.56 527.315 1218.15 526.945C1218.74 526.576 1219.39 526.391 1220.12 526.391C1221.27 526.391 1222.16 526.758 1222.78 527.492C1223.41 528.227 1223.73 529.266 1223.73 530.609V531.375H1218.2C1218.26 532.073 1218.49 532.625 1218.9 533.031C1219.31 533.438 1219.83 533.641 1220.45 533.641C1221.32 533.641 1222.02 533.289 1222.57 532.586L1223.59 533.562C1223.26 534.068 1222.8 534.461 1222.23 534.742C1221.67 535.018 1221.04 535.156 1220.34 535.156ZM1220.11 527.914C1219.59 527.914 1219.17 528.096 1218.84 528.461C1218.53 528.826 1218.32 529.333 1218.23 529.984H1221.85V529.844C1221.81 529.208 1221.64 528.729 1221.34 528.406C1221.05 528.078 1220.64 527.914 1220.11 527.914ZM1232.63 532.383L1233.98 526.547H1235.83L1233.52 535H1231.96L1230.15 529.195L1228.37 535H1226.8L1224.49 526.547H1226.34L1227.71 532.32L1229.45 526.547H1230.88L1232.63 532.383ZM1240.73 530.695C1240.73 529.867 1240.89 529.122 1241.22 528.461C1241.55 527.794 1242.01 527.284 1242.6 526.93C1243.2 526.57 1243.88 526.391 1244.65 526.391C1245.79 526.391 1246.71 526.758 1247.42 527.492C1248.14 528.227 1248.52 529.201 1248.58 530.414L1248.59 530.859C1248.59 531.693 1248.42 532.438 1248.1 533.094C1247.78 533.75 1247.33 534.258 1246.73 534.617C1246.13 534.977 1245.45 535.156 1244.66 535.156C1243.47 535.156 1242.52 534.76 1241.8 533.969C1241.08 533.172 1240.73 532.112 1240.73 530.789V530.695ZM1242.62 530.859C1242.62 531.729 1242.8 532.411 1243.16 532.906C1243.52 533.396 1244.02 533.641 1244.66 533.641C1245.3 533.641 1245.8 533.391 1246.16 532.891C1246.52 532.391 1246.7 531.659 1246.7 530.695C1246.7 529.841 1246.51 529.164 1246.14 528.664C1245.78 528.164 1245.28 527.914 1244.65 527.914C1244.03 527.914 1243.54 528.161 1243.17 528.656C1242.81 529.146 1242.62 529.88 1242.62 530.859ZM1251.95 526.547L1252.01 527.523C1252.63 526.768 1253.45 526.391 1254.47 526.391C1256.23 526.391 1257.12 527.398 1257.16 529.414V535H1255.26V529.523C1255.26 528.987 1255.14 528.591 1254.91 528.336C1254.68 528.076 1254.3 527.945 1253.77 527.945C1253.01 527.945 1252.44 528.292 1252.06 528.984V535H1250.16V526.547H1251.95ZM1266.8 535.156C1265.6 535.156 1264.62 534.779 1263.88 534.023C1263.13 533.263 1262.76 532.253 1262.76 530.992V530.758C1262.76 529.914 1262.92 529.161 1263.24 528.5C1263.57 527.833 1264.03 527.315 1264.62 526.945C1265.21 526.576 1265.86 526.391 1266.59 526.391C1267.74 526.391 1268.62 526.758 1269.25 527.492C1269.88 528.227 1270.2 529.266 1270.2 530.609V531.375H1264.67C1264.73 532.073 1264.96 532.625 1265.37 533.031C1265.78 533.438 1266.29 533.641 1266.91 533.641C1267.78 533.641 1268.49 533.289 1269.04 532.586L1270.06 533.562C1269.72 534.068 1269.27 534.461 1268.7 534.742C1268.14 535.018 1267.51 535.156 1266.8 535.156ZM1266.58 527.914C1266.06 527.914 1265.64 528.096 1265.31 528.461C1264.99 528.826 1264.79 529.333 1264.7 529.984H1268.32V529.844C1268.28 529.208 1268.11 528.729 1267.81 528.406C1267.52 528.078 1267.1 527.914 1266.58 527.914ZM1276.73 535C1276.64 534.839 1276.57 534.576 1276.51 534.211C1275.9 534.841 1275.16 535.156 1274.29 535.156C1273.44 535.156 1272.75 534.914 1272.21 534.43C1271.67 533.945 1271.41 533.346 1271.41 532.633C1271.41 531.732 1271.74 531.042 1272.41 530.562C1273.08 530.078 1274.04 529.836 1275.28 529.836H1276.45V529.281C1276.45 528.844 1276.32 528.495 1276.08 528.234C1275.83 527.969 1275.46 527.836 1274.96 527.836C1274.53 527.836 1274.17 527.945 1273.9 528.164C1273.62 528.378 1273.48 528.651 1273.48 528.984H1271.59C1271.59 528.521 1271.74 528.089 1272.05 527.688C1272.35 527.281 1272.77 526.964 1273.3 526.734C1273.83 526.505 1274.42 526.391 1275.07 526.391C1276.06 526.391 1276.85 526.641 1277.44 527.141C1278.03 527.635 1278.33 528.333 1278.34 529.234V533.047C1278.34 533.807 1278.45 534.414 1278.66 534.867V535H1276.73ZM1274.64 533.633C1275.02 533.633 1275.37 533.542 1275.7 533.359C1276.03 533.177 1276.28 532.932 1276.45 532.625V531.031H1275.42C1274.72 531.031 1274.19 531.154 1273.84 531.398C1273.48 531.643 1273.3 531.99 1273.3 532.438C1273.3 532.802 1273.42 533.094 1273.66 533.312C1273.91 533.526 1274.23 533.633 1274.64 533.633ZM1283.8 533.641C1284.28 533.641 1284.67 533.503 1284.98 533.227C1285.3 532.951 1285.46 532.609 1285.48 532.203H1287.27C1287.25 532.729 1287.09 533.221 1286.78 533.68C1286.47 534.133 1286.06 534.492 1285.53 534.758C1285.01 535.023 1284.44 535.156 1283.83 535.156C1282.65 535.156 1281.71 534.773 1281.02 534.008C1280.32 533.242 1279.98 532.185 1279.98 530.836V530.641C1279.98 529.354 1280.32 528.326 1281.01 527.555C1281.7 526.779 1282.63 526.391 1283.82 526.391C1284.83 526.391 1285.64 526.685 1286.27 527.273C1286.91 527.857 1287.24 528.625 1287.27 529.578H1285.48C1285.46 529.094 1285.3 528.695 1284.98 528.383C1284.68 528.07 1284.28 527.914 1283.8 527.914C1283.19 527.914 1282.72 528.138 1282.38 528.586C1282.05 529.029 1281.88 529.703 1281.88 530.609V530.914C1281.88 531.831 1282.04 532.516 1282.37 532.969C1282.7 533.417 1283.18 533.641 1283.8 533.641ZM1290.58 527.469C1291.2 526.75 1291.98 526.391 1292.93 526.391C1294.73 526.391 1295.65 527.419 1295.67 529.477V535H1293.77V529.547C1293.77 528.964 1293.65 528.552 1293.39 528.312C1293.14 528.068 1292.77 527.945 1292.28 527.945C1291.52 527.945 1290.95 528.284 1290.58 528.961V535H1288.68V523H1290.58V527.469ZM1308.98 530.859C1308.98 532.167 1308.69 533.211 1308.09 533.992C1307.5 534.768 1306.7 535.156 1305.7 535.156C1304.78 535.156 1304.03 534.852 1303.48 534.242V538.25H1301.58V526.547H1303.33L1303.41 527.406C1303.96 526.729 1304.72 526.391 1305.68 526.391C1306.71 526.391 1307.52 526.776 1308.1 527.547C1308.69 528.312 1308.98 529.378 1308.98 530.742V530.859ZM1307.09 530.695C1307.09 529.852 1306.92 529.182 1306.59 528.688C1306.25 528.193 1305.77 527.945 1305.15 527.945C1304.37 527.945 1303.82 528.266 1303.48 528.906V532.656C1303.82 533.312 1304.38 533.641 1305.16 533.641C1305.77 533.641 1306.24 533.398 1306.58 532.914C1306.92 532.424 1307.09 531.685 1307.09 530.695ZM1315.65 535C1315.57 534.839 1315.49 534.576 1315.43 534.211C1314.83 534.841 1314.09 535.156 1313.21 535.156C1312.36 535.156 1311.67 534.914 1311.13 534.43C1310.6 533.945 1310.33 533.346 1310.33 532.633C1310.33 531.732 1310.66 531.042 1311.33 530.562C1312 530.078 1312.96 529.836 1314.2 529.836H1315.37V529.281C1315.37 528.844 1315.24 528.495 1315 528.234C1314.76 527.969 1314.38 527.836 1313.88 527.836C1313.45 527.836 1313.1 527.945 1312.82 528.164C1312.54 528.378 1312.41 528.651 1312.41 528.984H1310.51C1310.51 528.521 1310.66 528.089 1310.97 527.688C1311.28 527.281 1311.69 526.964 1312.22 526.734C1312.75 526.505 1313.34 526.391 1313.99 526.391C1314.98 526.391 1315.77 526.641 1316.36 527.141C1316.95 527.635 1317.25 528.333 1317.27 529.234V533.047C1317.27 533.807 1317.37 534.414 1317.59 534.867V535H1315.65ZM1313.56 533.633C1313.94 533.633 1314.29 533.542 1314.62 533.359C1314.95 533.177 1315.2 532.932 1315.37 532.625V531.031H1314.34C1313.64 531.031 1313.11 531.154 1312.76 531.398C1312.4 531.643 1312.23 531.99 1312.23 532.438C1312.23 532.802 1312.35 533.094 1312.59 533.312C1312.83 533.526 1313.16 533.633 1313.56 533.633ZM1318.92 530.711C1318.92 529.398 1319.23 528.352 1319.84 527.57C1320.46 526.784 1321.28 526.391 1322.3 526.391C1323.27 526.391 1324.03 526.727 1324.58 527.398L1324.66 526.547H1326.38V534.742C1326.38 535.852 1326.03 536.727 1325.34 537.367C1324.65 538.008 1323.72 538.328 1322.55 538.328C1321.93 538.328 1321.32 538.198 1320.73 537.938C1320.14 537.682 1319.69 537.346 1319.38 536.93L1320.28 535.789C1320.86 536.482 1321.58 536.828 1322.44 536.828C1323.07 536.828 1323.57 536.656 1323.93 536.312C1324.29 535.974 1324.48 535.474 1324.48 534.812V534.242C1323.93 534.852 1323.2 535.156 1322.29 535.156C1321.3 535.156 1320.49 534.763 1319.86 533.977C1319.23 533.19 1318.92 532.102 1318.92 530.711ZM1320.81 530.875C1320.81 531.724 1320.98 532.393 1321.33 532.883C1321.68 533.367 1322.16 533.609 1322.77 533.609C1323.54 533.609 1324.11 533.281 1324.48 532.625V528.906C1324.12 528.266 1323.55 527.945 1322.79 527.945C1322.16 527.945 1321.68 528.193 1321.33 528.688C1320.98 529.182 1320.81 529.911 1320.81 530.875ZM1332.05 535.156C1330.85 535.156 1329.88 534.779 1329.12 534.023C1328.38 533.263 1328.01 532.253 1328.01 530.992V530.758C1328.01 529.914 1328.17 529.161 1328.49 528.5C1328.82 527.833 1329.28 527.315 1329.87 526.945C1330.46 526.576 1331.11 526.391 1331.84 526.391C1332.99 526.391 1333.88 526.758 1334.5 527.492C1335.13 528.227 1335.45 529.266 1335.45 530.609V531.375H1329.92C1329.98 532.073 1330.21 532.625 1330.62 533.031C1331.03 533.438 1331.54 533.641 1332.16 533.641C1333.03 533.641 1333.74 533.289 1334.29 532.586L1335.31 533.562C1334.97 534.068 1334.52 534.461 1333.95 534.742C1333.39 535.018 1332.76 535.156 1332.05 535.156ZM1331.83 527.914C1331.31 527.914 1330.89 528.096 1330.56 528.461C1330.24 528.826 1330.04 529.333 1329.95 529.984H1333.57V529.844C1333.53 529.208 1333.36 528.729 1333.06 528.406C1332.77 528.078 1332.35 527.914 1331.83 527.914ZM1338.11 533C1338.46 533 1338.74 533.102 1338.93 533.305C1339.12 533.503 1339.22 533.753 1339.22 534.055C1339.22 534.352 1339.12 534.599 1338.93 534.797C1338.74 534.99 1338.46 535.086 1338.11 535.086C1337.77 535.086 1337.5 534.99 1337.3 534.797C1337.11 534.604 1337.01 534.357 1337.01 534.055C1337.01 533.753 1337.1 533.503 1337.3 533.305C1337.49 533.102 1337.76 533 1338.11 533Z" fill="white"/>
<path d="M63.0469 66.9492L69.4922 45.5625H76.0156L66.1133 74H60L50.1367 45.5625H56.6406L63.0469 66.9492ZM84.2969 74H78.6328V52.8672H84.2969V74ZM78.3008 47.3984C78.3008 46.5521 78.5807 45.8555 79.1406 45.3086C79.7135 44.7617 80.4883 44.4883 81.4648 44.4883C82.4284 44.4883 83.1966 44.7617 83.7695 45.3086C84.3424 45.8555 84.6289 46.5521 84.6289 47.3984C84.6289 48.2578 84.3359 48.9609 83.75 49.5078C83.1771 50.0547 82.4154 50.3281 81.4648 50.3281C80.5143 50.3281 79.7461 50.0547 79.1602 49.5078C78.5872 48.9609 78.3008 48.2578 78.3008 47.3984ZM98.6914 74.3906C95.5924 74.3906 93.0664 73.4401 91.1133 71.5391C89.1732 69.638 88.2031 67.1055 88.2031 63.9414V63.3945C88.2031 61.2721 88.6133 59.3776 89.4336 57.7109C90.2539 56.0312 91.4128 54.7422 92.9102 53.8438C94.4206 52.9323 96.1393 52.4766 98.0664 52.4766C100.957 52.4766 103.229 53.388 104.883 55.2109C106.549 57.0339 107.383 59.6185 107.383 62.9648V65.2695H93.9258C94.1081 66.6497 94.6549 67.7565 95.5664 68.5898C96.4909 69.4232 97.6562 69.8398 99.0625 69.8398C101.237 69.8398 102.936 69.0521 104.16 67.4766L106.934 70.582C106.087 71.7799 104.941 72.7174 103.496 73.3945C102.051 74.0586 100.449 74.3906 98.6914 74.3906ZM98.0469 57.0469C96.9271 57.0469 96.0156 57.4245 95.3125 58.1797C94.6224 58.9349 94.1797 60.0156 93.9844 61.4219H101.836V60.9727C101.81 59.7227 101.471 58.7591 100.82 58.082C100.169 57.3919 99.2448 57.0469 98.0469 57.0469ZM128.984 66.3242L131.758 52.8672H137.207L131.816 74H127.09L123.086 60.6992L119.082 74H114.375L108.984 52.8672H114.434L117.188 66.3047L121.055 52.8672H125.137L128.984 66.3242ZM168.359 66.3242L171.133 52.8672H176.582L171.191 74H166.465L162.461 60.6992L158.457 74H153.75L148.359 52.8672H153.809L156.562 66.3047L160.43 52.8672H164.512L168.359 66.3242ZM185.352 74H179.688V52.8672H185.352V74ZM179.355 47.3984C179.355 46.5521 179.635 45.8555 180.195 45.3086C180.768 44.7617 181.543 44.4883 182.52 44.4883C183.483 44.4883 184.251 44.7617 184.824 45.3086C185.397 45.8555 185.684 46.5521 185.684 47.3984C185.684 48.2578 185.391 48.9609 184.805 49.5078C184.232 50.0547 183.47 50.3281 182.52 50.3281C181.569 50.3281 180.801 50.0547 180.215 49.5078C179.642 48.9609 179.355 48.2578 179.355 47.3984ZM196.777 47.6719V52.8672H200.391V57.0078H196.777V67.5547C196.777 68.3359 196.927 68.8958 197.227 69.2344C197.526 69.5729 198.099 69.7422 198.945 69.7422C199.57 69.7422 200.124 69.6966 200.605 69.6055V73.8828C199.499 74.2214 198.359 74.3906 197.188 74.3906C193.229 74.3906 191.211 72.3919 191.133 68.3945V57.0078H188.047V52.8672H191.133V47.6719H196.777ZM209.043 55.1719C210.54 53.375 212.422 52.4766 214.688 52.4766C219.271 52.4766 221.595 55.1393 221.66 60.4648V74H216.016V60.6211C216.016 59.4102 215.755 58.5182 215.234 57.9453C214.714 57.3594 213.848 57.0664 212.637 57.0664C210.983 57.0664 209.785 57.7044 209.043 58.9805V74H203.398V44H209.043V55.1719ZM254.902 63.6289C254.902 66.8841 254.16 69.4948 252.676 71.4609C251.204 73.4141 249.212 74.3906 246.699 74.3906C244.564 74.3906 242.839 73.6484 241.523 72.1641V82.125H235.879V52.8672H241.113L241.309 54.9375C242.676 53.2969 244.46 52.4766 246.66 52.4766C249.264 52.4766 251.289 53.4401 252.734 55.3672C254.18 57.2943 254.902 59.9505 254.902 63.3359V63.6289ZM249.258 63.2188C249.258 61.2526 248.906 59.7357 248.203 58.668C247.513 57.6003 246.504 57.0664 245.176 57.0664C243.405 57.0664 242.188 57.7435 241.523 59.0977V67.75C242.214 69.1432 243.444 69.8398 245.215 69.8398C247.91 69.8398 249.258 67.6328 249.258 63.2188ZM270.664 74C270.404 73.4922 270.215 72.8607 270.098 72.1055C268.73 73.6289 266.953 74.3906 264.766 74.3906C262.695 74.3906 260.977 73.7917 259.609 72.5938C258.255 71.3958 257.578 69.8854 257.578 68.0625C257.578 65.8229 258.405 64.1042 260.059 62.9062C261.725 61.7083 264.128 61.1029 267.266 61.0898H269.863V59.8789C269.863 58.9023 269.609 58.1211 269.102 57.5352C268.607 56.9492 267.819 56.6562 266.738 56.6562C265.788 56.6562 265.039 56.8841 264.492 57.3398C263.958 57.7956 263.691 58.4206 263.691 59.2148H258.047C258.047 57.9909 258.424 56.8581 259.18 55.8164C259.935 54.7747 261.003 53.9609 262.383 53.375C263.763 52.776 265.312 52.4766 267.031 52.4766C269.635 52.4766 271.699 53.1341 273.223 54.4492C274.759 55.7513 275.527 57.5872 275.527 59.957V69.1172C275.54 71.1224 275.82 72.6393 276.367 73.668V74H270.664ZM265.996 70.0742C266.829 70.0742 267.598 69.8919 268.301 69.5273C269.004 69.1497 269.525 68.6484 269.863 68.0234V64.3906H267.754C264.928 64.3906 263.424 65.3672 263.242 67.3203L263.223 67.6523C263.223 68.3555 263.47 68.9349 263.965 69.3906C264.46 69.8464 265.137 70.0742 265.996 70.0742ZM279.043 63.2773C279.043 60.0352 279.811 57.4245 281.348 55.4453C282.897 53.4661 284.98 52.4766 287.598 52.4766C289.915 52.4766 291.719 53.2708 293.008 54.8594L293.242 52.8672H298.359V73.2969C298.359 75.1458 297.936 76.7539 297.09 78.1211C296.257 79.4883 295.078 80.5299 293.555 81.2461C292.031 81.9622 290.247 82.3203 288.203 82.3203C286.654 82.3203 285.143 82.0078 283.672 81.3828C282.201 80.7708 281.087 79.9766 280.332 79L282.832 75.5625C284.238 77.138 285.944 77.9258 287.949 77.9258C289.447 77.9258 290.612 77.5221 291.445 76.7148C292.279 75.9206 292.695 74.7878 292.695 73.3164V72.1836C291.393 73.6549 289.681 74.3906 287.559 74.3906C285.02 74.3906 282.962 73.401 281.387 71.4219C279.824 69.4297 279.043 66.793 279.043 63.5117V63.2773ZM284.688 63.6875C284.688 65.6016 285.072 67.1055 285.84 68.1992C286.608 69.2799 287.663 69.8203 289.004 69.8203C290.723 69.8203 291.953 69.1758 292.695 67.8867V59C291.94 57.7109 290.723 57.0664 289.043 57.0664C287.689 57.0664 286.621 57.6198 285.84 58.7266C285.072 59.8333 284.688 61.487 284.688 63.6875ZM312.441 74.3906C309.342 74.3906 306.816 73.4401 304.863 71.5391C302.923 69.638 301.953 67.1055 301.953 63.9414V63.3945C301.953 61.2721 302.363 59.3776 303.184 57.7109C304.004 56.0312 305.163 54.7422 306.66 53.8438C308.171 52.9323 309.889 52.4766 311.816 52.4766C314.707 52.4766 316.979 53.388 318.633 55.2109C320.299 57.0339 321.133 59.6185 321.133 62.9648V65.2695H307.676C307.858 66.6497 308.405 67.7565 309.316 68.5898C310.241 69.4232 311.406 69.8398 312.812 69.8398C314.987 69.8398 316.686 69.0521 317.91 67.4766L320.684 70.582C319.837 71.7799 318.691 72.7174 317.246 73.3945C315.801 74.0586 314.199 74.3906 312.441 74.3906ZM311.797 57.0469C310.677 57.0469 309.766 57.4245 309.062 58.1797C308.372 58.9349 307.93 60.0156 307.734 61.4219H315.586V60.9727C315.56 59.7227 315.221 58.7591 314.57 58.082C313.919 57.3919 312.995 57.0469 311.797 57.0469ZM335.332 64.0977H324.336V59.5469H335.332V64.0977ZM351.309 68.1602C351.309 67.4701 350.964 66.9297 350.273 66.5391C349.596 66.1354 348.503 65.7773 346.992 65.4648C341.966 64.4102 339.453 62.2747 339.453 59.0586C339.453 57.1836 340.228 55.6211 341.777 54.3711C343.34 53.1081 345.378 52.4766 347.891 52.4766C350.573 52.4766 352.715 53.1081 354.316 54.3711C355.931 55.6341 356.738 57.2747 356.738 59.293H351.094C351.094 58.4857 350.833 57.8216 350.312 57.3008C349.792 56.7669 348.978 56.5 347.871 56.5C346.921 56.5 346.185 56.7148 345.664 57.1445C345.143 57.5742 344.883 58.1211 344.883 58.7852C344.883 59.4102 345.176 59.918 345.762 60.3086C346.361 60.6862 347.363 61.0182 348.77 61.3047C350.176 61.5781 351.361 61.8906 352.324 62.2422C355.306 63.3359 356.797 65.2305 356.797 67.9258C356.797 69.8529 355.97 71.4154 354.316 72.6133C352.663 73.7982 350.527 74.3906 347.91 74.3906C346.139 74.3906 344.564 74.0781 343.184 73.4531C341.816 72.8151 340.742 71.9492 339.961 70.8555C339.18 69.7487 338.789 68.5573 338.789 67.2812H344.141C344.193 68.2839 344.564 69.0521 345.254 69.5859C345.944 70.1198 346.868 70.3867 348.027 70.3867C349.108 70.3867 349.922 70.1849 350.469 69.7812C351.029 69.3646 351.309 68.8242 351.309 68.1602ZM366.406 74H360.742V52.8672H366.406V74ZM360.41 47.3984C360.41 46.5521 360.69 45.8555 361.25 45.3086C361.823 44.7617 362.598 44.4883 363.574 44.4883C364.538 44.4883 365.306 44.7617 365.879 45.3086C366.452 45.8555 366.738 46.5521 366.738 47.3984C366.738 48.2578 366.445 48.9609 365.859 49.5078C365.286 50.0547 364.525 50.3281 363.574 50.3281C362.624 50.3281 361.855 50.0547 361.27 49.5078C360.697 48.9609 360.41 48.2578 360.41 47.3984ZM377.559 69.4492H387.891V74H370.352V70.5625L380.293 57.4375H370.645V52.8672H387.578V56.207L377.559 69.4492ZM400.84 74.3906C397.741 74.3906 395.215 73.4401 393.262 71.5391C391.322 69.638 390.352 67.1055 390.352 63.9414V63.3945C390.352 61.2721 390.762 59.3776 391.582 57.7109C392.402 56.0312 393.561 54.7422 395.059 53.8438C396.569 52.9323 398.288 52.4766 400.215 52.4766C403.105 52.4766 405.378 53.388 407.031 55.2109C408.698 57.0339 409.531 59.6185 409.531 62.9648V65.2695H396.074C396.257 66.6497 396.803 67.7565 397.715 68.5898C398.639 69.4232 399.805 69.8398 401.211 69.8398C403.385 69.8398 405.085 69.0521 406.309 67.4766L409.082 70.582C408.236 71.7799 407.09 72.7174 405.645 73.3945C404.199 74.0586 402.598 74.3906 400.84 74.3906ZM400.195 57.0469C399.076 57.0469 398.164 57.4245 397.461 58.1797C396.771 58.9349 396.328 60.0156 396.133 61.4219H403.984V60.9727C403.958 59.7227 403.62 58.7591 402.969 58.082C402.318 57.3919 401.393 57.0469 400.195 57.0469ZM434.16 68.1602C434.16 67.4701 433.815 66.9297 433.125 66.5391C432.448 66.1354 431.354 65.7773 429.844 65.4648C424.818 64.4102 422.305 62.2747 422.305 59.0586C422.305 57.1836 423.079 55.6211 424.629 54.3711C426.191 53.1081 428.229 52.4766 430.742 52.4766C433.424 52.4766 435.566 53.1081 437.168 54.3711C438.783 55.6341 439.59 57.2747 439.59 59.293H433.945C433.945 58.4857 433.685 57.8216 433.164 57.3008C432.643 56.7669 431.829 56.5 430.723 56.5C429.772 56.5 429.036 56.7148 428.516 57.1445C427.995 57.5742 427.734 58.1211 427.734 58.7852C427.734 59.4102 428.027 59.918 428.613 60.3086C429.212 60.6862 430.215 61.0182 431.621 61.3047C433.027 61.5781 434.212 61.8906 435.176 62.2422C438.158 63.3359 439.648 65.2305 439.648 67.9258C439.648 69.8529 438.822 71.4154 437.168 72.6133C435.514 73.7982 433.379 74.3906 430.762 74.3906C428.991 74.3906 427.415 74.0781 426.035 73.4531C424.668 72.8151 423.594 71.9492 422.812 70.8555C422.031 69.7487 421.641 68.5573 421.641 67.2812H426.992C427.044 68.2839 427.415 69.0521 428.105 69.5859C428.796 70.1198 429.72 70.3867 430.879 70.3867C431.96 70.3867 432.773 70.1849 433.32 69.7812C433.88 69.3646 434.16 68.8242 434.16 68.1602ZM453.027 74.3906C449.928 74.3906 447.402 73.4401 445.449 71.5391C443.509 69.638 442.539 67.1055 442.539 63.9414V63.3945C442.539 61.2721 442.949 59.3776 443.77 57.7109C444.59 56.0312 445.749 54.7422 447.246 53.8438C448.757 52.9323 450.475 52.4766 452.402 52.4766C455.293 52.4766 457.565 53.388 459.219 55.2109C460.885 57.0339 461.719 59.6185 461.719 62.9648V65.2695H448.262C448.444 66.6497 448.991 67.7565 449.902 68.5898C450.827 69.4232 451.992 69.8398 453.398 69.8398C455.573 69.8398 457.272 69.0521 458.496 67.4766L461.27 70.582C460.423 71.7799 459.277 72.7174 457.832 73.3945C456.387 74.0586 454.785 74.3906 453.027 74.3906ZM452.383 57.0469C451.263 57.0469 450.352 57.4245 449.648 58.1797C448.958 58.9349 448.516 60.0156 448.32 61.4219H456.172V60.9727C456.146 59.7227 455.807 58.7591 455.156 58.082C454.505 57.3919 453.581 57.0469 452.383 57.0469ZM470.898 74H465.234V44H470.898V74ZM485.293 74.3906C482.194 74.3906 479.668 73.4401 477.715 71.5391C475.775 69.638 474.805 67.1055 474.805 63.9414V63.3945C474.805 61.2721 475.215 59.3776 476.035 57.7109C476.855 56.0312 478.014 54.7422 479.512 53.8438C481.022 52.9323 482.741 52.4766 484.668 52.4766C487.559 52.4766 489.831 53.388 491.484 55.2109C493.151 57.0339 493.984 59.6185 493.984 62.9648V65.2695H480.527C480.71 66.6497 481.257 67.7565 482.168 68.5898C483.092 69.4232 484.258 69.8398 485.664 69.8398C487.839 69.8398 489.538 69.0521 490.762 67.4766L493.535 70.582C492.689 71.7799 491.543 72.7174 490.098 73.3945C488.652 74.0586 487.051 74.3906 485.293 74.3906ZM484.648 57.0469C483.529 57.0469 482.617 57.4245 481.914 58.1797C481.224 58.9349 480.781 60.0156 480.586 61.4219H488.438V60.9727C488.411 59.7227 488.073 58.7591 487.422 58.082C486.771 57.3919 485.846 57.0469 484.648 57.0469ZM505.996 69.8398C507.038 69.8398 507.884 69.5534 508.535 68.9805C509.186 68.4076 509.525 67.6458 509.551 66.6953H514.844C514.831 68.1276 514.44 69.4427 513.672 70.6406C512.904 71.8255 511.849 72.75 510.508 73.4141C509.18 74.0651 507.708 74.3906 506.094 74.3906C503.073 74.3906 500.69 73.4336 498.945 71.5195C497.201 69.5924 496.328 66.9362 496.328 63.5508V63.1797C496.328 59.9245 497.194 57.3268 498.926 55.3867C500.658 53.4466 503.034 52.4766 506.055 52.4766C508.698 52.4766 510.814 53.2318 512.402 54.7422C514.004 56.2396 514.818 58.2383 514.844 60.7383H509.551C509.525 59.6445 509.186 58.7591 508.535 58.082C507.884 57.3919 507.025 57.0469 505.957 57.0469C504.642 57.0469 503.646 57.5286 502.969 58.4922C502.305 59.4427 501.973 60.9922 501.973 63.1406V63.7266C501.973 65.901 502.305 67.4635 502.969 68.4141C503.633 69.3646 504.642 69.8398 505.996 69.8398ZM524.824 47.6719V52.8672H528.438V57.0078H524.824V67.5547C524.824 68.3359 524.974 68.8958 525.273 69.2344C525.573 69.5729 526.146 69.7422 526.992 69.7422C527.617 69.7422 528.171 69.6966 528.652 69.6055V73.8828C527.546 74.2214 526.406 74.3906 525.234 74.3906C521.276 74.3906 519.258 72.3919 519.18 68.3945V57.0078H516.094V52.8672H519.18V47.6719H524.824ZM530.117 63.2383C530.117 61.1419 530.521 59.2734 531.328 57.6328C532.135 55.9922 533.294 54.7227 534.805 53.8242C536.328 52.9258 538.092 52.4766 540.098 52.4766C542.949 52.4766 545.273 53.349 547.07 55.0938C548.88 56.8385 549.889 59.2083 550.098 62.2031L550.137 63.6484C550.137 66.8906 549.232 69.4948 547.422 71.4609C545.612 73.4141 543.184 74.3906 540.137 74.3906C537.09 74.3906 534.655 73.4141 532.832 71.4609C531.022 69.5078 530.117 66.8516 530.117 63.4922V63.2383ZM535.762 63.6484C535.762 65.6536 536.139 67.1901 536.895 68.2578C537.65 69.3125 538.73 69.8398 540.137 69.8398C541.504 69.8398 542.572 69.319 543.34 68.2773C544.108 67.2227 544.492 65.543 544.492 63.2383C544.492 61.2721 544.108 59.7487 543.34 58.668C542.572 57.5872 541.491 57.0469 540.098 57.0469C538.717 57.0469 537.65 57.5872 536.895 58.668C536.139 59.7357 535.762 61.3958 535.762 63.6484ZM565.488 58.1602C564.72 58.056 564.043 58.0039 563.457 58.0039C561.322 58.0039 559.922 58.7266 559.258 60.1719V74H553.613V52.8672H558.945L559.102 55.3867C560.234 53.4466 561.803 52.4766 563.809 52.4766C564.434 52.4766 565.02 52.5612 565.566 52.7305L565.488 58.1602Z" fill="white"/>
<defs>
<filter id="filter0_d" x="355" y="169" width="750" height="350" filterUnits="userSpaceOnUse" color-interpolation-filters="sRGB">
<feFlood flood-opacity="0" result="BackgroundImageFix"/>
<feColorMatrix in="SourceAlpha" type="matrix" values="0 0 0 0 0 0 0 0 0 0 0 0 0 0 0 0 0 0 127 0"/>
<feOffset dx="10" dy="10"/>
<feGaussianBlur stdDeviation="12.5"/>
<feColorMatrix type="matrix" values="0 0 0 0 0 0 0 0 0 0 0 0 0 0 0 0 0 0 0.1 0"/>
<feBlend mode="normal" in2="BackgroundImageFix" result="effect1_dropShadow"/>
<feBlend mode="normal" in="SourceGraphic" in2="effect1_dropShadow" result="shape"/>
</filter>
</defs>
</svg>
