<svg width="1440" height="634" viewBox="0 0 1440 634" fill="none" xmlns="http://www.w3.org/2000/svg">
<rect width="1440" height="634" rx="4" fill="#4B8FE2"/>
<path d="M745.984 530.891C745.984 530.531 746.104 530.24 746.344 530.016C746.589 529.792 746.893 529.68 747.258 529.68C747.628 529.68 747.932 529.792 748.172 530.016C748.417 530.24 748.539 530.531 748.539 530.891C748.539 531.245 748.419 531.534 748.18 531.758C747.94 531.977 747.633 532.086 747.258 532.086C746.888 532.086 746.583 531.977 746.344 531.758C746.104 531.534 745.984 531.245 745.984 530.891ZM750.641 530.891C750.641 530.531 750.76 530.24 751 530.016C751.245 529.792 751.549 529.68 751.914 529.68C752.284 529.68 752.589 529.792 752.828 530.016C753.073 530.24 753.195 530.531 753.195 530.891C753.195 531.245 753.076 531.534 752.836 531.758C752.596 531.977 752.289 532.086 751.914 532.086C751.544 532.086 751.24 531.977 751 531.758C750.76 531.534 750.641 531.245 750.641 530.891ZM755.297 530.891C755.297 530.531 755.417 530.24 755.656 530.016C755.901 529.792 756.206 529.68 756.57 529.68C756.94 529.68 757.245 529.792 757.484 530.016C757.729 530.24 757.852 530.531 757.852 530.891C757.852 531.245 757.732 531.534 757.492 531.758C757.253 531.977 756.945 532.086 756.57 532.086C756.201 532.086 755.896 531.977 755.656 531.758C755.417 531.534 755.297 531.245 755.297 530.891ZM759.953 530.891C759.953 530.531 760.073 530.24 760.312 530.016C760.557 529.792 760.862 529.68 761.227 529.68C761.596 529.68 761.901 529.792 762.141 530.016C762.385 530.24 762.508 530.531 762.508 530.891C762.508 531.245 762.388 531.534 762.148 531.758C761.909 531.977 761.602 532.086 761.227 532.086C760.857 532.086 760.552 531.977 760.312 531.758C760.073 531.534 759.953 531.245 759.953 530.891ZM764.609 530.891C764.609 530.531 764.729 530.24 764.969 530.016C765.214 529.792 765.518 529.68 765.883 529.68C766.253 529.68 766.557 529.792 766.797 530.016C767.042 530.24 767.164 530.531 767.164 530.891C767.164 531.245 767.044 531.534 766.805 531.758C766.565 531.977 766.258 532.086 765.883 532.086C765.513 532.086 765.208 531.977 764.969 531.758C764.729 531.534 764.609 531.245 764.609 530.891ZM769.266 530.891C769.266 530.531 769.385 530.24 769.625 530.016C769.87 529.792 770.174 529.68 770.539 529.68C770.909 529.68 771.214 529.792 771.453 530.016C771.698 530.24 771.82 530.531 771.82 530.891C771.82 531.245 771.701 531.534 771.461 531.758C771.221 531.977 770.914 532.086 770.539 532.086C770.169 532.086 769.865 531.977 769.625 531.758C769.385 531.534 769.266 531.245 769.266 530.891Z" fill="white"/>
<rect x="585" y="504" width="30" height="30" rx="4" fill="white" fill-opacity="0.5"/>
<path d="M601.258 525H599V516.297L596.305 517.133V515.297L601.016 513.609H601.258V525Z" fill="white"/>
<rect x="625" y="504" width="30" height="30" rx="4" fill="white"/>
<path d="M643.57 525H635.773V523.453L639.453 519.531C639.958 518.979 640.331 518.497 640.57 518.086C640.815 517.674 640.938 517.284 640.938 516.914C640.938 516.409 640.81 516.013 640.555 515.727C640.299 515.435 639.935 515.289 639.461 515.289C638.951 515.289 638.547 515.466 638.25 515.82C637.958 516.169 637.812 516.63 637.812 517.203H635.547C635.547 516.51 635.711 515.878 636.039 515.305C636.372 514.732 636.841 514.284 637.445 513.961C638.049 513.633 638.734 513.469 639.5 513.469C640.672 513.469 641.581 513.75 642.227 514.312C642.878 514.875 643.203 515.669 643.203 516.695C643.203 517.258 643.057 517.831 642.766 518.414C642.474 518.997 641.974 519.677 641.266 520.453L638.68 523.18H643.57V525Z" fill="#4B8FE2"/>
<rect x="665" y="504" width="30" height="30" rx="4" fill="white"/>
<path d="M678.07 518.312H679.273C679.846 518.312 680.271 518.169 680.547 517.883C680.823 517.596 680.961 517.216 680.961 516.742C680.961 516.284 680.823 515.927 680.547 515.672C680.276 515.417 679.901 515.289 679.422 515.289C678.99 515.289 678.628 515.409 678.336 515.648C678.044 515.883 677.898 516.19 677.898 516.57H675.641C675.641 515.977 675.799 515.445 676.117 514.977C676.44 514.503 676.888 514.133 677.461 513.867C678.039 513.602 678.674 513.469 679.367 513.469C680.57 513.469 681.513 513.758 682.195 514.336C682.878 514.909 683.219 515.701 683.219 516.711C683.219 517.232 683.06 517.711 682.742 518.148C682.424 518.586 682.008 518.922 681.492 519.156C682.133 519.385 682.609 519.729 682.922 520.188C683.24 520.646 683.398 521.188 683.398 521.812C683.398 522.823 683.029 523.633 682.289 524.242C681.555 524.852 680.581 525.156 679.367 525.156C678.232 525.156 677.302 524.857 676.578 524.258C675.859 523.659 675.5 522.867 675.5 521.883H677.758C677.758 522.31 677.917 522.659 678.234 522.93C678.557 523.201 678.953 523.336 679.422 523.336C679.958 523.336 680.378 523.195 680.68 522.914C680.987 522.628 681.141 522.25 681.141 521.781C681.141 520.646 680.516 520.078 679.266 520.078H678.07V518.312Z" fill="#4B8FE2"/>
<rect x="705" y="504" width="30" height="30" rx="4" fill="white"/>
<path d="M722.453 520.719H723.742V522.539H722.453V525H720.195V522.539H715.531L715.43 521.117L720.172 513.625H722.453V520.719ZM717.68 520.719H720.195V516.703L720.047 516.961L717.68 520.719Z" fill="#4B8FE2"/>
<rect x="783" y="504" width="30" height="30" rx="4" fill="white"/>
<path d="M795.258 525H793V516.297L790.305 517.133V515.297L795.016 513.609H795.258V525ZM806.617 520.297C806.617 521.87 806.292 523.073 805.641 523.906C804.99 524.74 804.036 525.156 802.781 525.156C801.542 525.156 800.594 524.747 799.938 523.93C799.281 523.112 798.945 521.94 798.93 520.414V518.32C798.93 516.732 799.258 515.526 799.914 514.703C800.576 513.88 801.526 513.469 802.766 513.469C804.005 513.469 804.953 513.878 805.609 514.695C806.266 515.508 806.602 516.677 806.617 518.203V520.297ZM804.359 518C804.359 517.057 804.229 516.372 803.969 515.945C803.714 515.513 803.312 515.297 802.766 515.297C802.234 515.297 801.841 515.503 801.586 515.914C801.336 516.32 801.203 516.958 801.188 517.828V520.594C801.188 521.521 801.312 522.211 801.562 522.664C801.818 523.112 802.224 523.336 802.781 523.336C803.333 523.336 803.732 523.12 803.977 522.688C804.221 522.255 804.349 521.594 804.359 520.703V518Z" fill="#4B8FE2"/>
<rect x="833" y="504" width="94" height="30" rx="4" fill="white"/>
<path d="M852.258 525H850V516.297L847.305 517.133V515.297L852.016 513.609H852.258V525ZM863.617 520.297C863.617 521.87 863.292 523.073 862.641 523.906C861.99 524.74 861.036 525.156 859.781 525.156C858.542 525.156 857.594 524.747 856.938 523.93C856.281 523.112 855.945 521.94 855.93 520.414V518.32C855.93 516.732 856.258 515.526 856.914 514.703C857.576 513.88 858.526 513.469 859.766 513.469C861.005 513.469 861.953 513.878 862.609 514.695C863.266 515.508 863.602 516.677 863.617 518.203V520.297ZM861.359 518C861.359 517.057 861.229 516.372 860.969 515.945C860.714 515.513 860.312 515.297 859.766 515.297C859.234 515.297 858.841 515.503 858.586 515.914C858.336 516.32 858.203 516.958 858.188 517.828V520.594C858.188 521.521 858.312 522.211 858.562 522.664C858.818 523.112 859.224 523.336 859.781 523.336C860.333 523.336 860.732 523.12 860.977 522.688C861.221 522.255 861.349 521.594 861.359 520.703V518ZM869.938 525.977H868.258L872.445 513.625H874.125L869.938 525.977ZM886.805 520.852C886.805 522.154 886.508 523.198 885.914 523.984C885.326 524.766 884.529 525.156 883.523 525.156C882.669 525.156 881.979 524.859 881.453 524.266V528.25H879.195V516.547H881.289L881.367 517.375C881.914 516.719 882.628 516.391 883.508 516.391C884.549 516.391 885.359 516.776 885.938 517.547C886.516 518.318 886.805 519.38 886.805 520.734V520.852ZM884.547 520.688C884.547 519.901 884.406 519.294 884.125 518.867C883.849 518.44 883.445 518.227 882.914 518.227C882.206 518.227 881.719 518.497 881.453 519.039V522.5C881.729 523.057 882.221 523.336 882.93 523.336C884.008 523.336 884.547 522.453 884.547 520.688ZM893.109 525C893.005 524.797 892.93 524.544 892.883 524.242C892.336 524.852 891.625 525.156 890.75 525.156C889.922 525.156 889.234 524.917 888.688 524.438C888.146 523.958 887.875 523.354 887.875 522.625C887.875 521.729 888.206 521.042 888.867 520.562C889.534 520.083 890.495 519.841 891.75 519.836H892.789V519.352C892.789 518.961 892.688 518.648 892.484 518.414C892.286 518.18 891.971 518.062 891.539 518.062C891.159 518.062 890.859 518.154 890.641 518.336C890.427 518.518 890.32 518.768 890.32 519.086H888.062C888.062 518.596 888.214 518.143 888.516 517.727C888.818 517.31 889.245 516.984 889.797 516.75C890.349 516.51 890.969 516.391 891.656 516.391C892.698 516.391 893.523 516.654 894.133 517.18C894.747 517.701 895.055 518.435 895.055 519.383V523.047C895.06 523.849 895.172 524.456 895.391 524.867V525H893.109ZM891.242 523.43C891.576 523.43 891.883 523.357 892.164 523.211C892.445 523.06 892.654 522.859 892.789 522.609V521.156H891.945C890.815 521.156 890.214 521.547 890.141 522.328L890.133 522.461C890.133 522.742 890.232 522.974 890.43 523.156C890.628 523.339 890.898 523.43 891.242 523.43ZM896.461 520.711C896.461 519.414 896.768 518.37 897.383 517.578C898.003 516.786 898.836 516.391 899.883 516.391C900.81 516.391 901.531 516.708 902.047 517.344L902.141 516.547H904.188V524.719C904.188 525.458 904.018 526.102 903.68 526.648C903.346 527.195 902.875 527.612 902.266 527.898C901.656 528.185 900.943 528.328 900.125 528.328C899.505 528.328 898.901 528.203 898.312 527.953C897.724 527.708 897.279 527.391 896.977 527L897.977 525.625C898.539 526.255 899.221 526.57 900.023 526.57C900.622 526.57 901.089 526.409 901.422 526.086C901.755 525.768 901.922 525.315 901.922 524.727V524.273C901.401 524.862 900.716 525.156 899.867 525.156C898.852 525.156 898.029 524.76 897.398 523.969C896.773 523.172 896.461 522.117 896.461 520.805V520.711ZM898.719 520.875C898.719 521.641 898.872 522.242 899.18 522.68C899.487 523.112 899.909 523.328 900.445 523.328C901.133 523.328 901.625 523.07 901.922 522.555V519C901.62 518.484 901.133 518.227 900.461 518.227C899.919 518.227 899.492 518.448 899.18 518.891C898.872 519.333 898.719 519.995 898.719 520.875ZM909.82 525.156C908.581 525.156 907.57 524.776 906.789 524.016C906.013 523.255 905.625 522.242 905.625 520.977V520.758C905.625 519.909 905.789 519.151 906.117 518.484C906.445 517.812 906.909 517.297 907.508 516.938C908.112 516.573 908.799 516.391 909.57 516.391C910.727 516.391 911.635 516.755 912.297 517.484C912.964 518.214 913.297 519.247 913.297 520.586V521.508H907.914C907.987 522.06 908.206 522.503 908.57 522.836C908.94 523.169 909.406 523.336 909.969 523.336C910.839 523.336 911.518 523.021 912.008 522.391L913.117 523.633C912.779 524.112 912.32 524.487 911.742 524.758C911.164 525.023 910.523 525.156 909.82 525.156ZM909.562 518.219C909.115 518.219 908.75 518.37 908.469 518.672C908.193 518.974 908.016 519.406 907.938 519.969H911.078V519.789C911.068 519.289 910.932 518.904 910.672 518.633C910.411 518.357 910.042 518.219 909.562 518.219Z" fill="#4B8FE2"/>
<rect x="1035.5" y="504.5" width="35" height="29" rx="3.5" stroke="white"/>
<path d="M957.016 523.562C956.594 524.068 955.997 524.461 955.227 524.742C954.456 525.018 953.602 525.156 952.664 525.156C951.68 525.156 950.815 524.943 950.07 524.516C949.331 524.083 948.758 523.458 948.352 522.641C947.951 521.823 947.745 520.862 947.734 519.758V518.984C947.734 517.849 947.924 516.867 948.305 516.039C948.69 515.206 949.242 514.57 949.961 514.133C950.685 513.69 951.531 513.469 952.5 513.469C953.849 513.469 954.904 513.792 955.664 514.438C956.424 515.078 956.875 516.013 957.016 517.242H954.734C954.63 516.591 954.398 516.115 954.039 515.812C953.685 515.51 953.195 515.359 952.57 515.359C951.773 515.359 951.167 515.659 950.75 516.258C950.333 516.857 950.122 517.747 950.117 518.93V519.656C950.117 520.849 950.344 521.75 950.797 522.359C951.25 522.969 951.914 523.273 952.789 523.273C953.669 523.273 954.297 523.086 954.672 522.711V520.75H952.539V519.023H957.016V523.562ZM958.422 520.695C958.422 519.857 958.583 519.109 958.906 518.453C959.229 517.797 959.693 517.289 960.297 516.93C960.906 516.57 961.612 516.391 962.414 516.391C963.555 516.391 964.484 516.74 965.203 517.438C965.927 518.135 966.331 519.083 966.414 520.281L966.43 520.859C966.43 522.156 966.068 523.198 965.344 523.984C964.62 524.766 963.648 525.156 962.43 525.156C961.211 525.156 960.237 524.766 959.508 523.984C958.784 523.203 958.422 522.141 958.422 520.797V520.695ZM960.68 520.859C960.68 521.661 960.831 522.276 961.133 522.703C961.435 523.125 961.867 523.336 962.43 523.336C962.977 523.336 963.404 523.128 963.711 522.711C964.018 522.289 964.172 521.617 964.172 520.695C964.172 519.909 964.018 519.299 963.711 518.867C963.404 518.435 962.971 518.219 962.414 518.219C961.862 518.219 961.435 518.435 961.133 518.867C960.831 519.294 960.68 519.958 960.68 520.859ZM974.508 514.469V516.547H975.953V518.203H974.508V522.422C974.508 522.734 974.568 522.958 974.688 523.094C974.807 523.229 975.036 523.297 975.375 523.297C975.625 523.297 975.846 523.279 976.039 523.242V524.953C975.596 525.089 975.141 525.156 974.672 525.156C973.089 525.156 972.281 524.357 972.25 522.758V518.203H971.016V516.547H972.25V514.469H974.508ZM976.625 520.695C976.625 519.857 976.786 519.109 977.109 518.453C977.432 517.797 977.896 517.289 978.5 516.93C979.109 516.57 979.815 516.391 980.617 516.391C981.758 516.391 982.688 516.74 983.406 517.438C984.13 518.135 984.534 519.083 984.617 520.281L984.633 520.859C984.633 522.156 984.271 523.198 983.547 523.984C982.823 524.766 981.852 525.156 980.633 525.156C979.414 525.156 978.44 524.766 977.711 523.984C976.987 523.203 976.625 522.141 976.625 520.797V520.695ZM978.883 520.859C978.883 521.661 979.034 522.276 979.336 522.703C979.638 523.125 980.07 523.336 980.633 523.336C981.18 523.336 981.607 523.128 981.914 522.711C982.221 522.289 982.375 521.617 982.375 520.695C982.375 519.909 982.221 519.299 981.914 518.867C981.607 518.435 981.174 518.219 980.617 518.219C980.065 518.219 979.638 518.435 979.336 518.867C979.034 519.294 978.883 519.958 978.883 520.859ZM997.617 520.852C997.617 522.154 997.32 523.198 996.727 523.984C996.138 524.766 995.341 525.156 994.336 525.156C993.482 525.156 992.792 524.859 992.266 524.266V528.25H990.008V516.547H992.102L992.18 517.375C992.727 516.719 993.44 516.391 994.32 516.391C995.362 516.391 996.172 516.776 996.75 517.547C997.328 518.318 997.617 519.38 997.617 520.734V520.852ZM995.359 520.688C995.359 519.901 995.219 519.294 994.938 518.867C994.661 518.44 994.258 518.227 993.727 518.227C993.018 518.227 992.531 518.497 992.266 519.039V522.5C992.542 523.057 993.034 523.336 993.742 523.336C994.82 523.336 995.359 522.453 995.359 520.688ZM1003.92 525C1003.82 524.797 1003.74 524.544 1003.7 524.242C1003.15 524.852 1002.44 525.156 1001.56 525.156C1000.73 525.156 1000.05 524.917 999.5 524.438C998.958 523.958 998.688 523.354 998.688 522.625C998.688 521.729 999.018 521.042 999.68 520.562C1000.35 520.083 1001.31 519.841 1002.56 519.836H1003.6V519.352C1003.6 518.961 1003.5 518.648 1003.3 518.414C1003.1 518.18 1002.78 518.062 1002.35 518.062C1001.97 518.062 1001.67 518.154 1001.45 518.336C1001.24 518.518 1001.13 518.768 1001.13 519.086H998.875C998.875 518.596 999.026 518.143 999.328 517.727C999.63 517.31 1000.06 516.984 1000.61 516.75C1001.16 516.51 1001.78 516.391 1002.47 516.391C1003.51 516.391 1004.34 516.654 1004.95 517.18C1005.56 517.701 1005.87 518.435 1005.87 519.383V523.047C1005.87 523.849 1005.98 524.456 1006.2 524.867V525H1003.92ZM1002.05 523.43C1002.39 523.43 1002.7 523.357 1002.98 523.211C1003.26 523.06 1003.47 522.859 1003.6 522.609V521.156H1002.76C1001.63 521.156 1001.03 521.547 1000.95 522.328L1000.95 522.461C1000.95 522.742 1001.04 522.974 1001.24 523.156C1001.44 523.339 1001.71 523.43 1002.05 523.43ZM1007.27 520.711C1007.27 519.414 1007.58 518.37 1008.2 517.578C1008.82 516.786 1009.65 516.391 1010.7 516.391C1011.62 516.391 1012.34 516.708 1012.86 517.344L1012.95 516.547H1015V524.719C1015 525.458 1014.83 526.102 1014.49 526.648C1014.16 527.195 1013.69 527.612 1013.08 527.898C1012.47 528.185 1011.76 528.328 1010.94 528.328C1010.32 528.328 1009.71 528.203 1009.12 527.953C1008.54 527.708 1008.09 527.391 1007.79 527L1008.79 525.625C1009.35 526.255 1010.03 526.57 1010.84 526.57C1011.43 526.57 1011.9 526.409 1012.23 526.086C1012.57 525.768 1012.73 525.315 1012.73 524.727V524.273C1012.21 524.862 1011.53 525.156 1010.68 525.156C1009.66 525.156 1008.84 524.76 1008.21 523.969C1007.59 523.172 1007.27 522.117 1007.27 520.805V520.711ZM1009.53 520.875C1009.53 521.641 1009.68 522.242 1009.99 522.68C1010.3 523.112 1010.72 523.328 1011.26 523.328C1011.95 523.328 1012.44 523.07 1012.73 522.555V519C1012.43 518.484 1011.95 518.227 1011.27 518.227C1010.73 518.227 1010.3 518.448 1009.99 518.891C1009.68 519.333 1009.53 519.995 1009.53 520.875ZM1020.63 525.156C1019.39 525.156 1018.38 524.776 1017.6 524.016C1016.83 523.255 1016.44 522.242 1016.44 520.977V520.758C1016.44 519.909 1016.6 519.151 1016.93 518.484C1017.26 517.812 1017.72 517.297 1018.32 516.938C1018.92 516.573 1019.61 516.391 1020.38 516.391C1021.54 516.391 1022.45 516.755 1023.11 517.484C1023.78 518.214 1024.11 519.247 1024.11 520.586V521.508H1018.73C1018.8 522.06 1019.02 522.503 1019.38 522.836C1019.75 523.169 1020.22 523.336 1020.78 523.336C1021.65 523.336 1022.33 523.021 1022.82 522.391L1023.93 523.633C1023.59 524.112 1023.13 524.487 1022.55 524.758C1021.98 525.023 1021.34 525.156 1020.63 525.156ZM1020.38 518.219C1019.93 518.219 1019.56 518.37 1019.28 518.672C1019.01 518.974 1018.83 519.406 1018.75 519.969H1021.89V519.789C1021.88 519.289 1021.74 518.904 1021.48 518.633C1021.22 518.357 1020.85 518.219 1020.38 518.219Z" fill="white"/>
<g filter="url(#filter0_d)">
<rect x="370" y="184" width="700" height="300" rx="4" fill="white"/>
</g>
<path d="M370 434H1070V480C1070 482.209 1068.21 484 1066 484H374C371.791 484 370 482.209 370 480V434Z" fill="white"/>
<rect x="422" y="455" width="126" height="8" rx="4" fill="black" fill-opacity="0.5"/>
<rect x="598" y="455" width="422" height="8" rx="4" fill="black" fill-opacity="0.5"/>
<path d="M370 384H1070V434H370V384Z" fill="#F7F7F7"/>
<rect x="422" y="405" width="126" height="8" rx="4" fill="black" fill-opacity="0.5"/>
<rect x="598" y="405" width="422" height="8" rx="4" fill="black" fill-opacity="0.5"/>
<path d="M370 334H1070V384H370V334Z" fill="white"/>
<rect x="422" y="355" width="126" height="8" rx="4" fill="black" fill-opacity="0.5"/>
<rect x="598" y="355" width="422" height="8" rx="4" fill="black" fill-opacity="0.5"/>
<path d="M370 284H1070V334H370V284Z" fill="#F7F7F7"/>
<rect x="422" y="305" width="126" height="8" rx="4" fill="black" fill-opacity="0.5"/>
<rect x="598" y="305" width="422" height="8" rx="4" fill="black" fill-opacity="0.5"/>
<path d="M370 234H1070V284H370V234Z" fill="white"/>
<rect x="422" y="255" width="126" height="8" rx="4" fill="black" fill-opacity="0.5"/>
<rect x="598" y="255" width="422" height="8" rx="4" fill="black" fill-opacity="0.5"/>
<path d="M370 188C370 185.791 371.791 184 374 184H1066C1068.21 184 1070 185.791 1070 188V234H370V188Z" fill="black" fill-opacity="0.1"/>
<rect x="421" y="205" width="126" height="8" rx="4" fill="black" fill-opacity="0.2"/>
<rect x="597" y="205" width="422" height="8" rx="4" fill="black" fill-opacity="0.2"/>
<path d="M1090.38 506.219H1086.83V516H1084.87V506.219H1081.35V504.625H1090.38V506.219ZM1093.56 508.469C1094.18 507.75 1094.97 507.391 1095.91 507.391C1097.72 507.391 1098.63 508.419 1098.66 510.477V516H1096.76V510.547C1096.76 509.964 1096.63 509.552 1096.38 509.312C1096.12 509.068 1095.76 508.945 1095.27 508.945C1094.51 508.945 1093.94 509.284 1093.56 509.961V516H1091.66V504H1093.56V508.469ZM1104.3 516.156C1103.1 516.156 1102.12 515.779 1101.38 515.023C1100.63 514.263 1100.26 513.253 1100.26 511.992V511.758C1100.26 510.914 1100.42 510.161 1100.74 509.5C1101.07 508.833 1101.53 508.315 1102.12 507.945C1102.71 507.576 1103.36 507.391 1104.09 507.391C1105.24 507.391 1106.12 507.758 1106.75 508.492C1107.38 509.227 1107.7 510.266 1107.7 511.609V512.375H1102.17C1102.23 513.073 1102.46 513.625 1102.87 514.031C1103.28 514.438 1103.79 514.641 1104.41 514.641C1105.28 514.641 1105.99 514.289 1106.54 513.586L1107.56 514.562C1107.22 515.068 1106.77 515.461 1106.2 515.742C1105.64 516.018 1105.01 516.156 1104.3 516.156ZM1104.08 508.914C1103.56 508.914 1103.14 509.096 1102.81 509.461C1102.49 509.826 1102.29 510.333 1102.2 510.984H1105.82V510.844C1105.78 510.208 1105.61 509.729 1105.31 509.406C1105.02 509.078 1104.6 508.914 1104.08 508.914ZM1118.28 515.172C1117.72 515.828 1116.93 516.156 1115.91 516.156C1114.99 516.156 1114.29 515.888 1113.82 515.352C1113.35 514.815 1113.12 514.039 1113.12 513.023V507.547H1115.02V513C1115.02 514.073 1115.46 514.609 1116.35 514.609C1117.27 514.609 1117.9 514.279 1118.22 513.617V507.547H1120.12V516H1118.33L1118.28 515.172ZM1126.79 513.703C1126.79 513.365 1126.65 513.107 1126.37 512.93C1126.09 512.753 1125.63 512.596 1124.98 512.461C1124.34 512.326 1123.8 512.154 1123.37 511.945C1122.42 511.487 1121.95 510.823 1121.95 509.953C1121.95 509.224 1122.25 508.615 1122.87 508.125C1123.48 507.635 1124.26 507.391 1125.21 507.391C1126.22 507.391 1127.04 507.641 1127.66 508.141C1128.28 508.641 1128.59 509.289 1128.59 510.086H1126.7C1126.7 509.721 1126.56 509.419 1126.29 509.18C1126.02 508.935 1125.66 508.812 1125.21 508.812C1124.79 508.812 1124.45 508.909 1124.19 509.102C1123.93 509.294 1123.8 509.552 1123.8 509.875C1123.8 510.167 1123.92 510.393 1124.16 510.555C1124.41 510.716 1124.9 510.88 1125.65 511.047C1126.39 511.208 1126.98 511.404 1127.4 511.633C1127.83 511.857 1128.14 512.128 1128.34 512.445C1128.55 512.763 1128.66 513.148 1128.66 513.602C1128.66 514.362 1128.34 514.979 1127.71 515.453C1127.08 515.922 1126.26 516.156 1125.23 516.156C1124.54 516.156 1123.92 516.031 1123.38 515.781C1122.84 515.531 1122.42 515.188 1122.12 514.75C1121.82 514.312 1121.66 513.841 1121.66 513.336H1123.51C1123.53 513.784 1123.7 514.13 1124.02 514.375C1124.33 514.615 1124.74 514.734 1125.26 514.734C1125.76 514.734 1126.14 514.641 1126.4 514.453C1126.66 514.26 1126.79 514.01 1126.79 513.703ZM1134.04 516.156C1132.84 516.156 1131.86 515.779 1131.11 515.023C1130.36 514.263 1129.99 513.253 1129.99 511.992V511.758C1129.99 510.914 1130.15 510.161 1130.48 509.5C1130.8 508.833 1131.26 508.315 1131.85 507.945C1132.44 507.576 1133.1 507.391 1133.82 507.391C1134.97 507.391 1135.86 507.758 1136.48 508.492C1137.11 509.227 1137.43 510.266 1137.43 511.609V512.375H1131.91C1131.96 513.073 1132.2 513.625 1132.6 514.031C1133.01 514.438 1133.53 514.641 1134.15 514.641C1135.02 514.641 1135.73 514.289 1136.27 513.586L1137.3 514.562C1136.96 515.068 1136.51 515.461 1135.94 515.742C1135.38 516.018 1134.74 516.156 1134.04 516.156ZM1133.81 508.914C1133.29 508.914 1132.87 509.096 1132.55 509.461C1132.23 509.826 1132.03 510.333 1131.94 510.984H1135.55V510.844C1135.51 510.208 1135.34 509.729 1135.05 509.406C1134.75 509.078 1134.34 508.914 1133.81 508.914ZM1143.34 509.281C1143.09 509.24 1142.83 509.219 1142.56 509.219C1141.69 509.219 1141.11 509.552 1140.8 510.219V516H1138.91V507.547H1140.72L1140.77 508.492C1141.22 507.758 1141.86 507.391 1142.67 507.391C1142.94 507.391 1143.17 507.427 1143.34 507.5L1143.34 509.281ZM1151.99 514.641C1152.47 514.641 1152.86 514.503 1153.17 514.227C1153.48 513.951 1153.65 513.609 1153.67 513.203H1155.46C1155.44 513.729 1155.28 514.221 1154.97 514.68C1154.66 515.133 1154.24 515.492 1153.72 515.758C1153.19 516.023 1152.62 516.156 1152.02 516.156C1150.83 516.156 1149.9 515.773 1149.2 515.008C1148.51 514.242 1148.16 513.185 1148.16 511.836V511.641C1148.16 510.354 1148.51 509.326 1149.2 508.555C1149.88 507.779 1150.82 507.391 1152.01 507.391C1153.01 507.391 1153.83 507.685 1154.46 508.273C1155.1 508.857 1155.43 509.625 1155.46 510.578H1153.67C1153.65 510.094 1153.48 509.695 1153.17 509.383C1152.86 509.07 1152.47 508.914 1151.99 508.914C1151.38 508.914 1150.9 509.138 1150.57 509.586C1150.24 510.029 1150.07 510.703 1150.06 511.609V511.914C1150.06 512.831 1150.23 513.516 1150.55 513.969C1150.89 514.417 1151.37 514.641 1151.99 514.641ZM1161.95 516C1161.86 515.839 1161.79 515.576 1161.73 515.211C1161.12 515.841 1160.38 516.156 1159.51 516.156C1158.66 516.156 1157.97 515.914 1157.43 515.43C1156.89 514.945 1156.62 514.346 1156.62 513.633C1156.62 512.732 1156.96 512.042 1157.62 511.562C1158.3 511.078 1159.26 510.836 1160.5 510.836H1161.66V510.281C1161.66 509.844 1161.54 509.495 1161.3 509.234C1161.05 508.969 1160.68 508.836 1160.18 508.836C1159.75 508.836 1159.39 508.945 1159.12 509.164C1158.84 509.378 1158.7 509.651 1158.7 509.984H1156.8C1156.8 509.521 1156.96 509.089 1157.27 508.688C1157.57 508.281 1157.99 507.964 1158.52 507.734C1159.05 507.505 1159.64 507.391 1160.29 507.391C1161.28 507.391 1162.07 507.641 1162.66 508.141C1163.24 508.635 1163.55 509.333 1163.56 510.234V514.047C1163.56 514.807 1163.67 515.414 1163.88 515.867V516H1161.95ZM1159.86 514.633C1160.23 514.633 1160.59 514.542 1160.91 514.359C1161.25 514.177 1161.5 513.932 1161.66 513.625V512.031H1160.64C1159.94 512.031 1159.41 512.154 1159.05 512.398C1158.7 512.643 1158.52 512.99 1158.52 513.438C1158.52 513.802 1158.64 514.094 1158.88 514.312C1159.13 514.526 1159.45 514.633 1159.86 514.633ZM1167.31 507.547L1167.37 508.523C1167.99 507.768 1168.81 507.391 1169.83 507.391C1171.59 507.391 1172.48 508.398 1172.52 510.414V516H1170.62V510.523C1170.62 509.987 1170.5 509.591 1170.27 509.336C1170.04 509.076 1169.66 508.945 1169.13 508.945C1168.37 508.945 1167.8 509.292 1167.42 509.984V516H1165.52V507.547H1167.31ZM1183.18 513.703C1183.18 513.365 1183.04 513.107 1182.76 512.93C1182.48 512.753 1182.02 512.596 1181.38 512.461C1180.73 512.326 1180.19 512.154 1179.76 511.945C1178.81 511.487 1178.34 510.823 1178.34 509.953C1178.34 509.224 1178.64 508.615 1179.26 508.125C1179.87 507.635 1180.65 507.391 1181.6 507.391C1182.61 507.391 1183.43 507.641 1184.05 508.141C1184.67 508.641 1184.98 509.289 1184.98 510.086H1183.09C1183.09 509.721 1182.95 509.419 1182.68 509.18C1182.41 508.935 1182.05 508.812 1181.6 508.812C1181.18 508.812 1180.84 508.909 1180.58 509.102C1180.32 509.294 1180.19 509.552 1180.19 509.875C1180.19 510.167 1180.31 510.393 1180.55 510.555C1180.8 510.716 1181.29 510.88 1182.04 511.047C1182.78 511.208 1183.37 511.404 1183.79 511.633C1184.22 511.857 1184.53 512.128 1184.73 512.445C1184.94 512.763 1185.05 513.148 1185.05 513.602C1185.05 514.362 1184.73 514.979 1184.1 515.453C1183.47 515.922 1182.65 516.156 1181.62 516.156C1180.93 516.156 1180.32 516.031 1179.77 515.781C1179.23 515.531 1178.81 515.188 1178.51 514.75C1178.21 514.312 1178.05 513.841 1178.05 513.336H1179.9C1179.92 513.784 1180.09 514.13 1180.41 514.375C1180.72 514.615 1181.13 514.734 1181.65 514.734C1182.15 514.734 1182.53 514.641 1182.79 514.453C1183.05 514.26 1183.18 514.01 1183.18 513.703ZM1190.43 516.156C1189.23 516.156 1188.25 515.779 1187.5 515.023C1186.76 514.263 1186.38 513.253 1186.38 511.992V511.758C1186.38 510.914 1186.54 510.161 1186.87 509.5C1187.2 508.833 1187.65 508.315 1188.24 507.945C1188.83 507.576 1189.49 507.391 1190.21 507.391C1191.36 507.391 1192.25 507.758 1192.88 508.492C1193.51 509.227 1193.82 510.266 1193.82 511.609V512.375H1188.3C1188.35 513.073 1188.59 513.625 1188.99 514.031C1189.4 514.438 1189.92 514.641 1190.54 514.641C1191.41 514.641 1192.12 514.289 1192.66 513.586L1193.69 514.562C1193.35 515.068 1192.9 515.461 1192.33 515.742C1191.77 516.018 1191.13 516.156 1190.43 516.156ZM1190.2 508.914C1189.68 508.914 1189.26 509.096 1188.94 509.461C1188.62 509.826 1188.42 510.333 1188.33 510.984H1191.95V510.844C1191.9 510.208 1191.73 509.729 1191.44 509.406C1191.14 509.078 1190.73 508.914 1190.2 508.914ZM1197.32 516H1195.42V504H1197.32V516ZM1203.12 516.156C1201.91 516.156 1200.94 515.779 1200.19 515.023C1199.44 514.263 1199.07 513.253 1199.07 511.992V511.758C1199.07 510.914 1199.23 510.161 1199.55 509.5C1199.88 508.833 1200.34 508.315 1200.93 507.945C1201.52 507.576 1202.17 507.391 1202.9 507.391C1204.05 507.391 1204.94 507.758 1205.56 508.492C1206.19 509.227 1206.51 510.266 1206.51 511.609V512.375H1200.98C1201.04 513.073 1201.27 513.625 1201.68 514.031C1202.09 514.438 1202.61 514.641 1203.23 514.641C1204.1 514.641 1204.8 514.289 1205.35 513.586L1206.38 514.562C1206.04 515.068 1205.58 515.461 1205.02 515.742C1204.45 516.018 1203.82 516.156 1203.12 516.156ZM1202.89 508.914C1202.37 508.914 1201.95 509.096 1201.62 509.461C1201.31 509.826 1201.1 510.333 1201.02 510.984H1204.63V510.844C1204.59 510.208 1204.42 509.729 1204.12 509.406C1203.83 509.078 1203.42 508.914 1202.89 508.914ZM1211.46 514.641C1211.93 514.641 1212.33 514.503 1212.64 514.227C1212.95 513.951 1213.12 513.609 1213.14 513.203H1214.93C1214.91 513.729 1214.74 514.221 1214.44 514.68C1214.13 515.133 1213.71 515.492 1213.19 515.758C1212.66 516.023 1212.09 516.156 1211.48 516.156C1210.3 516.156 1209.36 515.773 1208.67 515.008C1207.98 514.242 1207.63 513.185 1207.63 511.836V511.641C1207.63 510.354 1207.98 509.326 1208.66 508.555C1209.35 507.779 1210.29 507.391 1211.48 507.391C1212.48 507.391 1213.3 507.685 1213.93 508.273C1214.57 508.857 1214.9 509.625 1214.93 510.578H1213.14C1213.12 510.094 1212.95 509.695 1212.64 509.383C1212.33 509.07 1211.94 508.914 1211.46 508.914C1210.85 508.914 1210.37 509.138 1210.04 509.586C1209.71 510.029 1209.54 510.703 1209.53 511.609V511.914C1209.53 512.831 1209.7 513.516 1210.02 513.969C1210.36 514.417 1210.84 514.641 1211.46 514.641ZM1218.74 505.492V507.547H1220.23V508.953H1218.74V513.672C1218.74 513.995 1218.8 514.229 1218.93 514.375C1219.06 514.516 1219.29 514.586 1219.62 514.586C1219.84 514.586 1220.06 514.56 1220.28 514.508V515.977C1219.85 516.096 1219.43 516.156 1219.03 516.156C1217.57 516.156 1216.84 515.352 1216.84 513.742V508.953H1215.45V507.547H1216.84V505.492H1218.74ZM1228.05 505.492V507.547H1229.55V508.953H1228.05V513.672C1228.05 513.995 1228.12 514.229 1228.24 514.375C1228.37 514.516 1228.6 514.586 1228.93 514.586C1229.15 514.586 1229.37 514.56 1229.59 514.508V515.977C1229.16 516.096 1228.74 516.156 1228.34 516.156C1226.89 516.156 1226.16 515.352 1226.16 513.742V508.953H1224.77V507.547H1226.16V505.492H1228.05ZM1232.88 508.469C1233.49 507.75 1234.28 507.391 1235.23 507.391C1237.03 507.391 1237.94 508.419 1237.97 510.477V516H1236.07V510.547C1236.07 509.964 1235.94 509.552 1235.69 509.312C1235.44 509.068 1235.07 508.945 1234.58 508.945C1233.82 508.945 1233.25 509.284 1232.88 509.961V516H1230.98V504H1232.88V508.469ZM1243.62 516.156C1242.41 516.156 1241.44 515.779 1240.69 515.023C1239.94 514.263 1239.57 513.253 1239.57 511.992V511.758C1239.57 510.914 1239.73 510.161 1240.05 509.5C1240.38 508.833 1240.84 508.315 1241.43 507.945C1242.02 507.576 1242.67 507.391 1243.4 507.391C1244.55 507.391 1245.44 507.758 1246.06 508.492C1246.69 509.227 1247.01 510.266 1247.01 511.609V512.375H1241.48C1241.54 513.073 1241.77 513.625 1242.18 514.031C1242.59 514.438 1243.11 514.641 1243.73 514.641C1244.6 514.641 1245.3 514.289 1245.85 513.586L1246.88 514.562C1246.54 515.068 1246.08 515.461 1245.52 515.742C1244.95 516.018 1244.32 516.156 1243.62 516.156ZM1243.39 508.914C1242.87 508.914 1242.45 509.096 1242.12 509.461C1241.81 509.826 1241.6 510.333 1241.52 510.984H1245.13V510.844C1245.09 510.208 1244.92 509.729 1244.62 509.406C1244.33 509.078 1243.92 508.914 1243.39 508.914ZM1252.12 511.711C1252.12 510.409 1252.42 509.365 1253.02 508.578C1253.63 507.786 1254.44 507.391 1255.45 507.391C1256.35 507.391 1257.07 507.703 1257.62 508.328V504H1259.52V516H1257.8L1257.71 515.125C1257.14 515.812 1256.39 516.156 1255.44 516.156C1254.45 516.156 1253.65 515.758 1253.03 514.961C1252.42 514.164 1252.12 513.081 1252.12 511.711ZM1254.02 511.875C1254.02 512.734 1254.18 513.406 1254.51 513.891C1254.84 514.37 1255.31 514.609 1255.92 514.609C1256.7 514.609 1257.27 514.263 1257.62 513.57V509.961C1257.28 509.284 1256.71 508.945 1255.94 508.945C1255.32 508.945 1254.85 509.19 1254.52 509.68C1254.18 510.164 1254.02 510.896 1254.02 511.875ZM1266.55 516C1266.47 515.839 1266.4 515.576 1266.34 515.211C1265.73 515.841 1264.99 516.156 1264.12 516.156C1263.27 516.156 1262.58 515.914 1262.04 515.43C1261.5 514.945 1261.23 514.346 1261.23 513.633C1261.23 512.732 1261.57 512.042 1262.23 511.562C1262.91 511.078 1263.86 510.836 1265.11 510.836H1266.27V510.281C1266.27 509.844 1266.15 509.495 1265.91 509.234C1265.66 508.969 1265.29 508.836 1264.79 508.836C1264.36 508.836 1264 508.945 1263.73 509.164C1263.45 509.378 1263.31 509.651 1263.31 509.984H1261.41C1261.41 509.521 1261.57 509.089 1261.88 508.688C1262.18 508.281 1262.6 507.964 1263.12 507.734C1263.66 507.505 1264.25 507.391 1264.9 507.391C1265.89 507.391 1266.68 507.641 1267.27 508.141C1267.85 508.635 1268.16 509.333 1268.17 510.234V514.047C1268.17 514.807 1268.28 515.414 1268.49 515.867V516H1266.55ZM1264.47 514.633C1264.84 514.633 1265.2 514.542 1265.52 514.359C1265.86 514.177 1266.11 513.932 1266.27 513.625V512.031H1265.25C1264.55 512.031 1264.02 512.154 1263.66 512.398C1263.31 512.643 1263.13 512.99 1263.13 513.438C1263.13 513.802 1263.25 514.094 1263.49 514.312C1263.74 514.526 1264.06 514.633 1264.47 514.633ZM1272.54 505.492V507.547H1274.03V508.953H1272.54V513.672C1272.54 513.995 1272.6 514.229 1272.73 514.375C1272.86 514.516 1273.09 514.586 1273.41 514.586C1273.63 514.586 1273.85 514.56 1274.08 514.508V515.977C1273.65 516.096 1273.23 516.156 1272.83 516.156C1271.37 516.156 1270.64 515.352 1270.64 513.742V508.953H1269.25V507.547H1270.64V505.492H1272.54ZM1280.54 516C1280.46 515.839 1280.38 515.576 1280.32 515.211C1279.72 515.841 1278.98 516.156 1278.1 516.156C1277.25 516.156 1276.56 515.914 1276.02 515.43C1275.49 514.945 1275.22 514.346 1275.22 513.633C1275.22 512.732 1275.55 512.042 1276.22 511.562C1276.89 511.078 1277.85 510.836 1279.09 510.836H1280.26V510.281C1280.26 509.844 1280.14 509.495 1279.89 509.234C1279.65 508.969 1279.27 508.836 1278.77 508.836C1278.34 508.836 1277.99 508.945 1277.71 509.164C1277.43 509.378 1277.3 509.651 1277.3 509.984H1275.4C1275.4 509.521 1275.55 509.089 1275.86 508.688C1276.17 508.281 1276.58 507.964 1277.11 507.734C1277.64 507.505 1278.23 507.391 1278.88 507.391C1279.87 507.391 1280.66 507.641 1281.25 508.141C1281.84 508.635 1282.14 509.333 1282.16 510.234V514.047C1282.16 514.807 1282.26 515.414 1282.48 515.867V516H1280.54ZM1278.45 514.633C1278.83 514.633 1279.18 514.542 1279.51 514.359C1279.84 514.177 1280.09 513.932 1280.26 513.625V512.031H1279.23C1278.53 512.031 1278 512.154 1277.65 512.398C1277.29 512.643 1277.12 512.99 1277.12 513.438C1277.12 513.802 1277.24 514.094 1277.48 514.312C1277.72 514.526 1278.05 514.633 1278.45 514.633ZM1288.8 516V508.953H1287.51V507.547H1288.8V506.773C1288.8 505.836 1289.06 505.112 1289.58 504.602C1290.1 504.091 1290.83 503.836 1291.77 503.836C1292.1 503.836 1292.45 503.883 1292.83 503.977L1292.78 505.461C1292.57 505.419 1292.33 505.398 1292.05 505.398C1291.15 505.398 1290.7 505.865 1290.7 506.797V507.547H1292.41V508.953H1290.7V516H1288.8ZM1293.45 511.695C1293.45 510.867 1293.61 510.122 1293.94 509.461C1294.27 508.794 1294.73 508.284 1295.32 507.93C1295.91 507.57 1296.6 507.391 1297.37 507.391C1298.51 507.391 1299.43 507.758 1300.14 508.492C1300.85 509.227 1301.24 510.201 1301.3 511.414L1301.3 511.859C1301.3 512.693 1301.14 513.438 1300.82 514.094C1300.5 514.75 1300.04 515.258 1299.45 515.617C1298.85 515.977 1298.16 516.156 1297.38 516.156C1296.19 516.156 1295.23 515.76 1294.52 514.969C1293.8 514.172 1293.45 513.112 1293.45 511.789V511.695ZM1295.34 511.859C1295.34 512.729 1295.52 513.411 1295.88 513.906C1296.24 514.396 1296.74 514.641 1297.38 514.641C1298.02 514.641 1298.52 514.391 1298.88 513.891C1299.23 513.391 1299.41 512.659 1299.41 511.695C1299.41 510.841 1299.23 510.164 1298.86 509.664C1298.49 509.164 1298 508.914 1297.37 508.914C1296.75 508.914 1296.26 509.161 1295.89 509.656C1295.53 510.146 1295.34 510.88 1295.34 511.859ZM1307.34 509.281C1307.09 509.24 1306.83 509.219 1306.56 509.219C1305.69 509.219 1305.11 509.552 1304.8 510.219V516H1302.91V507.547H1304.72L1304.77 508.492C1305.22 507.758 1305.86 507.391 1306.67 507.391C1306.94 507.391 1307.17 507.427 1307.34 507.5L1307.34 509.281ZM1319.95 513.383L1321.29 507.547H1323.14L1320.84 516H1319.27L1317.46 510.195L1315.68 516H1314.12L1311.8 507.547H1313.66L1315.02 513.32L1316.76 507.547H1318.19L1319.95 513.383ZM1326.28 508.469C1326.9 507.75 1327.68 507.391 1328.63 507.391C1330.43 507.391 1331.35 508.419 1331.38 510.477V516H1329.48V510.547C1329.48 509.964 1329.35 509.552 1329.09 509.312C1328.84 509.068 1328.47 508.945 1327.98 508.945C1327.22 508.945 1326.66 509.284 1326.28 509.961V516H1324.38V504H1326.28V508.469ZM1335.32 516H1333.42V507.547H1335.32V516ZM1333.3 505.352C1333.3 505.06 1333.4 504.818 1333.58 504.625C1333.77 504.432 1334.03 504.336 1334.38 504.336C1334.72 504.336 1334.98 504.432 1335.17 504.625C1335.36 504.818 1335.45 505.06 1335.45 505.352C1335.45 505.638 1335.36 505.878 1335.17 506.07C1334.98 506.258 1334.72 506.352 1334.38 506.352C1334.03 506.352 1333.77 506.258 1333.58 506.07C1333.4 505.878 1333.3 505.638 1333.3 505.352ZM1340.87 514.641C1341.34 514.641 1341.73 514.503 1342.05 514.227C1342.36 513.951 1342.53 513.609 1342.55 513.203H1344.34C1344.32 513.729 1344.15 514.221 1343.84 514.68C1343.54 515.133 1343.12 515.492 1342.59 515.758C1342.07 516.023 1341.5 516.156 1340.89 516.156C1339.71 516.156 1338.77 515.773 1338.08 515.008C1337.39 514.242 1337.04 513.185 1337.04 511.836V511.641C1337.04 510.354 1337.38 509.326 1338.07 508.555C1338.76 507.779 1339.7 507.391 1340.88 507.391C1341.89 507.391 1342.71 507.685 1343.34 508.273C1343.97 508.857 1344.3 509.625 1344.34 510.578H1342.55C1342.53 510.094 1342.36 509.695 1342.05 509.383C1341.74 509.07 1341.35 508.914 1340.87 508.914C1340.25 508.914 1339.78 509.138 1339.45 509.586C1339.11 510.029 1338.94 510.703 1338.94 511.609V511.914C1338.94 512.831 1339.1 513.516 1339.43 513.969C1339.76 514.417 1340.24 514.641 1340.87 514.641ZM1347.64 508.469C1348.26 507.75 1349.04 507.391 1349.99 507.391C1351.79 507.391 1352.71 508.419 1352.73 510.477V516H1350.84V510.547C1350.84 509.964 1350.71 509.552 1350.45 509.312C1350.2 509.068 1349.83 508.945 1349.34 508.945C1348.58 508.945 1348.02 509.284 1347.64 509.961V516H1345.74V504H1347.64V508.469ZM1089.38 530.859C1089.38 532.167 1089.08 533.211 1088.48 533.992C1087.89 534.768 1087.09 535.156 1086.09 535.156C1085.17 535.156 1084.42 534.852 1083.87 534.242V538.25H1081.97V526.547H1083.72L1083.8 527.406C1084.35 526.729 1085.11 526.391 1086.07 526.391C1087.1 526.391 1087.91 526.776 1088.49 527.547C1089.08 528.312 1089.38 529.378 1089.38 530.742V530.859ZM1087.48 530.695C1087.48 529.852 1087.32 529.182 1086.98 528.688C1086.64 528.193 1086.16 527.945 1085.54 527.945C1084.76 527.945 1084.21 528.266 1083.87 528.906V532.656C1084.21 533.312 1084.77 533.641 1085.55 533.641C1086.16 533.641 1086.63 533.398 1086.97 532.914C1087.31 532.424 1087.48 531.685 1087.48 530.695ZM1096.04 535C1095.96 534.839 1095.88 534.576 1095.82 534.211C1095.22 534.841 1094.48 535.156 1093.6 535.156C1092.75 535.156 1092.06 534.914 1091.52 534.43C1090.99 533.945 1090.72 533.346 1090.72 532.633C1090.72 531.732 1091.05 531.042 1091.72 530.562C1092.39 530.078 1093.35 529.836 1094.59 529.836H1095.76V529.281C1095.76 528.844 1095.64 528.495 1095.39 528.234C1095.15 527.969 1094.77 527.836 1094.27 527.836C1093.84 527.836 1093.49 527.945 1093.21 528.164C1092.93 528.378 1092.8 528.651 1092.8 528.984H1090.9C1090.9 528.521 1091.05 528.089 1091.36 527.688C1091.67 527.281 1092.08 526.964 1092.61 526.734C1093.14 526.505 1093.73 526.391 1094.38 526.391C1095.37 526.391 1096.16 526.641 1096.75 527.141C1097.34 527.635 1097.64 528.333 1097.66 529.234V533.047C1097.66 533.807 1097.76 534.414 1097.98 534.867V535H1096.04ZM1093.95 533.633C1094.33 533.633 1094.68 533.542 1095.01 533.359C1095.34 533.177 1095.59 532.932 1095.76 532.625V531.031H1094.73C1094.03 531.031 1093.5 531.154 1093.15 531.398C1092.79 531.643 1092.62 531.99 1092.62 532.438C1092.62 532.802 1092.74 533.094 1092.98 533.312C1093.22 533.526 1093.55 533.633 1093.95 533.633ZM1099.31 530.711C1099.31 529.398 1099.62 528.352 1100.23 527.57C1100.85 526.784 1101.67 526.391 1102.7 526.391C1103.66 526.391 1104.42 526.727 1104.97 527.398L1105.05 526.547H1106.77V534.742C1106.77 535.852 1106.42 536.727 1105.73 537.367C1105.04 538.008 1104.11 538.328 1102.94 538.328C1102.32 538.328 1101.71 538.198 1101.12 537.938C1100.53 537.682 1100.08 537.346 1099.77 536.93L1100.67 535.789C1101.26 536.482 1101.97 536.828 1102.83 536.828C1103.46 536.828 1103.96 536.656 1104.32 536.312C1104.68 535.974 1104.87 535.474 1104.87 534.812V534.242C1104.32 534.852 1103.59 535.156 1102.68 535.156C1101.69 535.156 1100.88 534.763 1100.25 533.977C1099.62 533.19 1099.31 532.102 1099.31 530.711ZM1101.2 530.875C1101.2 531.724 1101.38 532.393 1101.72 532.883C1102.07 533.367 1102.55 533.609 1103.16 533.609C1103.93 533.609 1104.5 533.281 1104.87 532.625V528.906C1104.51 528.266 1103.95 527.945 1103.18 527.945C1102.55 527.945 1102.07 528.193 1101.72 528.688C1101.38 529.182 1101.2 529.911 1101.2 530.875ZM1112.45 535.156C1111.24 535.156 1110.27 534.779 1109.52 534.023C1108.77 533.263 1108.4 532.253 1108.4 530.992V530.758C1108.4 529.914 1108.56 529.161 1108.88 528.5C1109.21 527.833 1109.67 527.315 1110.26 526.945C1110.85 526.576 1111.5 526.391 1112.23 526.391C1113.38 526.391 1114.27 526.758 1114.89 527.492C1115.52 528.227 1115.84 529.266 1115.84 530.609V531.375H1110.31C1110.37 532.073 1110.6 532.625 1111.01 533.031C1111.42 533.438 1111.93 533.641 1112.55 533.641C1113.42 533.641 1114.13 533.289 1114.68 532.586L1115.7 533.562C1115.36 534.068 1114.91 534.461 1114.34 534.742C1113.78 535.018 1113.15 535.156 1112.45 535.156ZM1112.22 527.914C1111.7 527.914 1111.28 528.096 1110.95 528.461C1110.64 528.826 1110.43 529.333 1110.34 529.984H1113.96V529.844C1113.92 529.208 1113.75 528.729 1113.45 528.406C1113.16 528.078 1112.74 527.914 1112.22 527.914ZM1123.68 524.492V526.547H1125.17V527.953H1123.68V532.672C1123.68 532.995 1123.74 533.229 1123.87 533.375C1124 533.516 1124.23 533.586 1124.55 533.586C1124.77 533.586 1124.99 533.56 1125.22 533.508V534.977C1124.79 535.096 1124.37 535.156 1123.97 535.156C1122.51 535.156 1121.78 534.352 1121.78 532.742V527.953H1120.39V526.547H1121.78V524.492H1123.68ZM1128.5 527.469C1129.12 526.75 1129.9 526.391 1130.85 526.391C1132.65 526.391 1133.57 527.419 1133.59 529.477V535H1131.7V529.547C1131.7 528.964 1131.57 528.552 1131.31 528.312C1131.06 528.068 1130.69 527.945 1130.2 527.945C1129.44 527.945 1128.88 528.284 1128.5 528.961V535H1126.6V523H1128.5V527.469ZM1139.24 535.156C1138.04 535.156 1137.06 534.779 1136.31 534.023C1135.57 533.263 1135.2 532.253 1135.2 530.992V530.758C1135.2 529.914 1135.36 529.161 1135.68 528.5C1136.01 527.833 1136.47 527.315 1137.05 526.945C1137.64 526.576 1138.3 526.391 1139.02 526.391C1140.17 526.391 1141.06 526.758 1141.69 527.492C1142.32 528.227 1142.63 529.266 1142.63 530.609V531.375H1137.11C1137.17 532.073 1137.4 532.625 1137.8 533.031C1138.22 533.438 1138.73 533.641 1139.35 533.641C1140.22 533.641 1140.93 533.289 1141.48 532.586L1142.5 533.562C1142.16 534.068 1141.71 534.461 1141.14 534.742C1140.58 535.018 1139.95 535.156 1139.24 535.156ZM1139.02 527.914C1138.49 527.914 1138.07 528.096 1137.75 528.461C1137.43 528.826 1137.23 529.333 1137.14 529.984H1140.76V529.844C1140.72 529.208 1140.55 528.729 1140.25 528.406C1139.95 528.078 1139.54 527.914 1139.02 527.914ZM1146.96 532.281L1148.68 526.547H1150.7L1147.34 536.281C1146.83 537.703 1145.95 538.414 1144.72 538.414C1144.44 538.414 1144.14 538.367 1143.8 538.273V536.805L1144.16 536.828C1144.64 536.828 1145 536.74 1145.24 536.562C1145.49 536.391 1145.68 536.099 1145.82 535.688L1146.09 534.961L1143.12 526.547H1145.17L1146.96 532.281ZM1163.21 532.383L1164.55 526.547H1166.41L1164.1 535H1162.54L1160.73 529.195L1158.95 535H1157.38L1155.07 526.547H1156.92L1158.29 532.32L1160.02 526.547H1161.45L1163.21 532.383ZM1172.73 535C1172.64 534.839 1172.57 534.576 1172.51 534.211C1171.9 534.841 1171.16 535.156 1170.29 535.156C1169.44 535.156 1168.75 534.914 1168.21 534.43C1167.67 533.945 1167.41 533.346 1167.41 532.633C1167.41 531.732 1167.74 531.042 1168.41 530.562C1169.08 530.078 1170.04 529.836 1171.28 529.836H1172.45V529.281C1172.45 528.844 1172.32 528.495 1172.08 528.234C1171.83 527.969 1171.46 527.836 1170.96 527.836C1170.53 527.836 1170.17 527.945 1169.9 528.164C1169.62 528.378 1169.48 528.651 1169.48 528.984H1167.59C1167.59 528.521 1167.74 528.089 1168.05 527.688C1168.35 527.281 1168.77 526.964 1169.3 526.734C1169.83 526.505 1170.42 526.391 1171.07 526.391C1172.06 526.391 1172.85 526.641 1173.44 527.141C1174.03 527.635 1174.33 528.333 1174.34 529.234V533.047C1174.34 533.807 1174.45 534.414 1174.66 534.867V535H1172.73ZM1170.64 533.633C1171.02 533.633 1171.37 533.542 1171.7 533.359C1172.03 533.177 1172.28 532.932 1172.45 532.625V531.031H1171.42C1170.72 531.031 1170.19 531.154 1169.84 531.398C1169.48 531.643 1169.3 531.99 1169.3 532.438C1169.3 532.802 1169.42 533.094 1169.66 533.312C1169.91 533.526 1170.23 533.633 1170.64 533.633ZM1178.09 526.547L1178.15 527.523C1178.77 526.768 1179.59 526.391 1180.61 526.391C1182.37 526.391 1183.27 527.398 1183.3 529.414V535H1181.4V529.523C1181.4 528.987 1181.28 528.591 1181.05 528.336C1180.82 528.076 1180.44 527.945 1179.91 527.945C1179.15 527.945 1178.58 528.292 1178.2 528.984V535H1176.3V526.547H1178.09ZM1187.62 524.492V526.547H1189.11V527.953H1187.62V532.672C1187.62 532.995 1187.68 533.229 1187.8 533.375C1187.93 533.516 1188.16 533.586 1188.49 533.586C1188.71 533.586 1188.93 533.56 1189.16 533.508V534.977C1188.72 535.096 1188.31 535.156 1187.91 535.156C1186.45 535.156 1185.72 534.352 1185.72 532.742V527.953H1184.33V526.547H1185.72V524.492H1187.62ZM1196.93 524.492V526.547H1198.42V527.953H1196.93V532.672C1196.93 532.995 1196.99 533.229 1197.12 533.375C1197.25 533.516 1197.48 533.586 1197.8 533.586C1198.02 533.586 1198.24 533.56 1198.47 533.508V534.977C1198.04 535.096 1197.62 535.156 1197.22 535.156C1195.76 535.156 1195.03 534.352 1195.03 532.742V527.953H1193.64V526.547H1195.03V524.492H1196.93ZM1199.29 530.695C1199.29 529.867 1199.45 529.122 1199.78 528.461C1200.11 527.794 1200.57 527.284 1201.16 526.93C1201.76 526.57 1202.44 526.391 1203.21 526.391C1204.35 526.391 1205.28 526.758 1205.98 527.492C1206.7 528.227 1207.08 529.201 1207.14 530.414L1207.15 530.859C1207.15 531.693 1206.99 532.438 1206.66 533.094C1206.35 533.75 1205.89 534.258 1205.29 534.617C1204.7 534.977 1204.01 535.156 1203.23 535.156C1202.03 535.156 1201.08 534.76 1200.36 533.969C1199.65 533.172 1199.29 532.112 1199.29 530.789V530.695ZM1201.19 530.859C1201.19 531.729 1201.37 532.411 1201.73 532.906C1202.09 533.396 1202.59 533.641 1203.23 533.641C1203.87 533.641 1204.36 533.391 1204.72 532.891C1205.08 532.391 1205.26 531.659 1205.26 530.695C1205.26 529.841 1205.07 529.164 1204.7 528.664C1204.34 528.164 1203.84 527.914 1203.21 527.914C1202.59 527.914 1202.1 528.161 1201.73 528.656C1201.37 529.146 1201.19 529.88 1201.19 530.859ZM1215.72 532.594L1217.51 526.547H1219.47L1216.54 535H1214.89L1211.94 526.547H1213.91L1215.72 532.594ZM1222.68 535H1220.78V526.547H1222.68V535ZM1220.66 524.352C1220.66 524.06 1220.76 523.818 1220.94 523.625C1221.12 523.432 1221.39 523.336 1221.73 523.336C1222.08 523.336 1222.34 523.432 1222.53 523.625C1222.72 523.818 1222.81 524.06 1222.81 524.352C1222.81 524.638 1222.72 524.878 1222.53 525.07C1222.34 525.258 1222.08 525.352 1221.73 525.352C1221.39 525.352 1221.12 525.258 1220.94 525.07C1220.76 524.878 1220.66 524.638 1220.66 524.352ZM1228.48 535.156C1227.27 535.156 1226.3 534.779 1225.55 534.023C1224.8 533.263 1224.43 532.253 1224.43 530.992V530.758C1224.43 529.914 1224.59 529.161 1224.91 528.5C1225.24 527.833 1225.7 527.315 1226.29 526.945C1226.88 526.576 1227.53 526.391 1228.26 526.391C1229.41 526.391 1230.3 526.758 1230.92 527.492C1231.55 528.227 1231.87 529.266 1231.87 530.609V531.375H1226.34C1226.4 532.073 1226.63 532.625 1227.04 533.031C1227.45 533.438 1227.97 533.641 1228.59 533.641C1229.46 533.641 1230.16 533.289 1230.71 532.586L1231.73 533.562C1231.4 534.068 1230.94 534.461 1230.38 534.742C1229.81 535.018 1229.18 535.156 1228.48 535.156ZM1228.25 527.914C1227.73 527.914 1227.31 528.096 1226.98 528.461C1226.67 528.826 1226.46 529.333 1226.38 529.984H1229.99V529.844C1229.95 529.208 1229.78 528.729 1229.48 528.406C1229.19 528.078 1228.78 527.914 1228.25 527.914ZM1240.77 532.383L1242.12 526.547H1243.97L1241.66 535H1240.1L1238.29 529.195L1236.51 535H1234.95L1232.63 526.547H1234.48L1235.85 532.32L1237.59 526.547H1239.02L1240.77 532.383ZM1245.45 533C1245.81 533 1246.08 533.102 1246.27 533.305C1246.47 533.503 1246.56 533.753 1246.56 534.055C1246.56 534.352 1246.47 534.599 1246.27 534.797C1246.08 534.99 1245.81 535.086 1245.45 535.086C1245.11 535.086 1244.85 534.99 1244.65 534.797C1244.45 534.604 1244.35 534.357 1244.35 534.055C1244.35 533.753 1244.45 533.503 1244.64 533.305C1244.83 533.102 1245.1 533 1245.45 533Z" fill="white"/>
<path d="M63.0469 66.9492L69.4922 45.5625H76.0156L66.1133 74H60L50.1367 45.5625H56.6406L63.0469 66.9492ZM84.2969 74H78.6328V52.8672H84.2969V74ZM78.3008 47.3984C78.3008 46.5521 78.5807 45.8555 79.1406 45.3086C79.7135 44.7617 80.4883 44.4883 81.4648 44.4883C82.4284 44.4883 83.1966 44.7617 83.7695 45.3086C84.3424 45.8555 84.6289 46.5521 84.6289 47.3984C84.6289 48.2578 84.3359 48.9609 83.75 49.5078C83.1771 50.0547 82.4154 50.3281 81.4648 50.3281C80.5143 50.3281 79.7461 50.0547 79.1602 49.5078C78.5872 48.9609 78.3008 48.2578 78.3008 47.3984ZM98.6914 74.3906C95.5924 74.3906 93.0664 73.4401 91.1133 71.5391C89.1732 69.638 88.2031 67.1055 88.2031 63.9414V63.3945C88.2031 61.2721 88.6133 59.3776 89.4336 57.7109C90.2539 56.0312 91.4128 54.7422 92.9102 53.8438C94.4206 52.9323 96.1393 52.4766 98.0664 52.4766C100.957 52.4766 103.229 53.388 104.883 55.2109C106.549 57.0339 107.383 59.6185 107.383 62.9648V65.2695H93.9258C94.1081 66.6497 94.6549 67.7565 95.5664 68.5898C96.4909 69.4232 97.6562 69.8398 99.0625 69.8398C101.237 69.8398 102.936 69.0521 104.16 67.4766L106.934 70.582C106.087 71.7799 104.941 72.7174 103.496 73.3945C102.051 74.0586 100.449 74.3906 98.6914 74.3906ZM98.0469 57.0469C96.9271 57.0469 96.0156 57.4245 95.3125 58.1797C94.6224 58.9349 94.1797 60.0156 93.9844 61.4219H101.836V60.9727C101.81 59.7227 101.471 58.7591 100.82 58.082C100.169 57.3919 99.2448 57.0469 98.0469 57.0469ZM128.984 66.3242L131.758 52.8672H137.207L131.816 74H127.09L123.086 60.6992L119.082 74H114.375L108.984 52.8672H114.434L117.188 66.3047L121.055 52.8672H125.137L128.984 66.3242ZM168.359 66.3242L171.133 52.8672H176.582L171.191 74H166.465L162.461 60.6992L158.457 74H153.75L148.359 52.8672H153.809L156.562 66.3047L160.43 52.8672H164.512L168.359 66.3242ZM185.352 74H179.688V52.8672H185.352V74ZM179.355 47.3984C179.355 46.5521 179.635 45.8555 180.195 45.3086C180.768 44.7617 181.543 44.4883 182.52 44.4883C183.483 44.4883 184.251 44.7617 184.824 45.3086C185.397 45.8555 185.684 46.5521 185.684 47.3984C185.684 48.2578 185.391 48.9609 184.805 49.5078C184.232 50.0547 183.47 50.3281 182.52 50.3281C181.569 50.3281 180.801 50.0547 180.215 49.5078C179.642 48.9609 179.355 48.2578 179.355 47.3984ZM196.777 47.6719V52.8672H200.391V57.0078H196.777V67.5547C196.777 68.3359 196.927 68.8958 197.227 69.2344C197.526 69.5729 198.099 69.7422 198.945 69.7422C199.57 69.7422 200.124 69.6966 200.605 69.6055V73.8828C199.499 74.2214 198.359 74.3906 197.188 74.3906C193.229 74.3906 191.211 72.3919 191.133 68.3945V57.0078H188.047V52.8672H191.133V47.6719H196.777ZM209.043 55.1719C210.54 53.375 212.422 52.4766 214.688 52.4766C219.271 52.4766 221.595 55.1393 221.66 60.4648V74H216.016V60.6211C216.016 59.4102 215.755 58.5182 215.234 57.9453C214.714 57.3594 213.848 57.0664 212.637 57.0664C210.983 57.0664 209.785 57.7044 209.043 58.9805V74H203.398V44H209.043V55.1719ZM254.902 63.6289C254.902 66.8841 254.16 69.4948 252.676 71.4609C251.204 73.4141 249.212 74.3906 246.699 74.3906C244.564 74.3906 242.839 73.6484 241.523 72.1641V82.125H235.879V52.8672H241.113L241.309 54.9375C242.676 53.2969 244.46 52.4766 246.66 52.4766C249.264 52.4766 251.289 53.4401 252.734 55.3672C254.18 57.2943 254.902 59.9505 254.902 63.3359V63.6289ZM249.258 63.2188C249.258 61.2526 248.906 59.7357 248.203 58.668C247.513 57.6003 246.504 57.0664 245.176 57.0664C243.405 57.0664 242.188 57.7435 241.523 59.0977V67.75C242.214 69.1432 243.444 69.8398 245.215 69.8398C247.91 69.8398 249.258 67.6328 249.258 63.2188ZM270.664 74C270.404 73.4922 270.215 72.8607 270.098 72.1055C268.73 73.6289 266.953 74.3906 264.766 74.3906C262.695 74.3906 260.977 73.7917 259.609 72.5938C258.255 71.3958 257.578 69.8854 257.578 68.0625C257.578 65.8229 258.405 64.1042 260.059 62.9062C261.725 61.7083 264.128 61.1029 267.266 61.0898H269.863V59.8789C269.863 58.9023 269.609 58.1211 269.102 57.5352C268.607 56.9492 267.819 56.6562 266.738 56.6562C265.788 56.6562 265.039 56.8841 264.492 57.3398C263.958 57.7956 263.691 58.4206 263.691 59.2148H258.047C258.047 57.9909 258.424 56.8581 259.18 55.8164C259.935 54.7747 261.003 53.9609 262.383 53.375C263.763 52.776 265.312 52.4766 267.031 52.4766C269.635 52.4766 271.699 53.1341 273.223 54.4492C274.759 55.7513 275.527 57.5872 275.527 59.957V69.1172C275.54 71.1224 275.82 72.6393 276.367 73.668V74H270.664ZM265.996 70.0742C266.829 70.0742 267.598 69.8919 268.301 69.5273C269.004 69.1497 269.525 68.6484 269.863 68.0234V64.3906H267.754C264.928 64.3906 263.424 65.3672 263.242 67.3203L263.223 67.6523C263.223 68.3555 263.47 68.9349 263.965 69.3906C264.46 69.8464 265.137 70.0742 265.996 70.0742ZM279.043 63.2773C279.043 60.0352 279.811 57.4245 281.348 55.4453C282.897 53.4661 284.98 52.4766 287.598 52.4766C289.915 52.4766 291.719 53.2708 293.008 54.8594L293.242 52.8672H298.359V73.2969C298.359 75.1458 297.936 76.7539 297.09 78.1211C296.257 79.4883 295.078 80.5299 293.555 81.2461C292.031 81.9622 290.247 82.3203 288.203 82.3203C286.654 82.3203 285.143 82.0078 283.672 81.3828C282.201 80.7708 281.087 79.9766 280.332 79L282.832 75.5625C284.238 77.138 285.944 77.9258 287.949 77.9258C289.447 77.9258 290.612 77.5221 291.445 76.7148C292.279 75.9206 292.695 74.7878 292.695 73.3164V72.1836C291.393 73.6549 289.681 74.3906 287.559 74.3906C285.02 74.3906 282.962 73.401 281.387 71.4219C279.824 69.4297 279.043 66.793 279.043 63.5117V63.2773ZM284.688 63.6875C284.688 65.6016 285.072 67.1055 285.84 68.1992C286.608 69.2799 287.663 69.8203 289.004 69.8203C290.723 69.8203 291.953 69.1758 292.695 67.8867V59C291.94 57.7109 290.723 57.0664 289.043 57.0664C287.689 57.0664 286.621 57.6198 285.84 58.7266C285.072 59.8333 284.688 61.487 284.688 63.6875ZM312.441 74.3906C309.342 74.3906 306.816 73.4401 304.863 71.5391C302.923 69.638 301.953 67.1055 301.953 63.9414V63.3945C301.953 61.2721 302.363 59.3776 303.184 57.7109C304.004 56.0312 305.163 54.7422 306.66 53.8438C308.171 52.9323 309.889 52.4766 311.816 52.4766C314.707 52.4766 316.979 53.388 318.633 55.2109C320.299 57.0339 321.133 59.6185 321.133 62.9648V65.2695H307.676C307.858 66.6497 308.405 67.7565 309.316 68.5898C310.241 69.4232 311.406 69.8398 312.812 69.8398C314.987 69.8398 316.686 69.0521 317.91 67.4766L320.684 70.582C319.837 71.7799 318.691 72.7174 317.246 73.3945C315.801 74.0586 314.199 74.3906 312.441 74.3906ZM311.797 57.0469C310.677 57.0469 309.766 57.4245 309.062 58.1797C308.372 58.9349 307.93 60.0156 307.734 61.4219H315.586V60.9727C315.56 59.7227 315.221 58.7591 314.57 58.082C313.919 57.3919 312.995 57.0469 311.797 57.0469ZM335.332 64.0977H324.336V59.5469H335.332V64.0977ZM345.059 52.8672L345.234 55.3086C346.745 53.4206 348.77 52.4766 351.309 52.4766C353.548 52.4766 355.215 53.1341 356.309 54.4492C357.402 55.7643 357.962 57.7305 357.988 60.3477V74H352.344V60.4844C352.344 59.2865 352.083 58.4206 351.562 57.8867C351.042 57.3398 350.176 57.0664 348.965 57.0664C347.376 57.0664 346.185 57.7435 345.391 59.0977V74H339.746V52.8672H345.059ZM374.941 71.8516C373.548 73.5443 371.621 74.3906 369.16 74.3906C366.895 74.3906 365.163 73.7396 363.965 72.4375C362.78 71.1354 362.174 69.2279 362.148 66.7148V52.8672H367.793V66.5195C367.793 68.7201 368.796 69.8203 370.801 69.8203C372.715 69.8203 374.03 69.1562 374.746 67.8281V52.8672H380.41V74H375.098L374.941 71.8516ZM389.961 52.8672L390.137 55.2305C391.634 53.3945 393.659 52.4766 396.211 52.4766C398.932 52.4766 400.801 53.5508 401.816 55.6992C403.301 53.5508 405.417 52.4766 408.164 52.4766C410.456 52.4766 412.161 53.1471 413.281 54.4883C414.401 55.8164 414.961 57.8216 414.961 60.5039V74H409.297V60.5234C409.297 59.3255 409.062 58.4531 408.594 57.9062C408.125 57.3464 407.298 57.0664 406.113 57.0664C404.421 57.0664 403.249 57.8737 402.598 59.4883L402.617 74H396.973V60.543C396.973 59.319 396.732 58.4336 396.25 57.8867C395.768 57.3398 394.948 57.0664 393.789 57.0664C392.188 57.0664 391.029 57.7305 390.312 59.0586V74H384.668V52.8672H389.961ZM438.359 63.6289C438.359 67.0143 437.637 69.6576 436.191 71.5586C434.746 73.4466 432.728 74.3906 430.137 74.3906C427.845 74.3906 426.016 73.5117 424.648 71.7539L424.395 74H419.316V44H424.961V54.7617C426.263 53.2383 427.975 52.4766 430.098 52.4766C432.676 52.4766 434.694 53.4271 436.152 55.3281C437.624 57.2161 438.359 59.8789 438.359 63.3164V63.6289ZM432.715 63.2188C432.715 61.0833 432.376 59.5273 431.699 58.5508C431.022 57.5612 430.013 57.0664 428.672 57.0664C426.875 57.0664 425.638 57.8021 424.961 59.2734V67.6133C425.651 69.0977 426.901 69.8398 428.711 69.8398C430.534 69.8398 431.732 68.9414 432.305 67.1445C432.578 66.2852 432.715 64.9766 432.715 63.2188ZM451.582 74.3906C448.483 74.3906 445.957 73.4401 444.004 71.5391C442.064 69.638 441.094 67.1055 441.094 63.9414V63.3945C441.094 61.2721 441.504 59.3776 442.324 57.7109C443.145 56.0312 444.303 54.7422 445.801 53.8438C447.311 52.9323 449.03 52.4766 450.957 52.4766C453.848 52.4766 456.12 53.388 457.773 55.2109C459.44 57.0339 460.273 59.6185 460.273 62.9648V65.2695H446.816C446.999 66.6497 447.546 67.7565 448.457 68.5898C449.382 69.4232 450.547 69.8398 451.953 69.8398C454.128 69.8398 455.827 69.0521 457.051 67.4766L459.824 70.582C458.978 71.7799 457.832 72.7174 456.387 73.3945C454.941 74.0586 453.34 74.3906 451.582 74.3906ZM450.938 57.0469C449.818 57.0469 448.906 57.4245 448.203 58.1797C447.513 58.9349 447.07 60.0156 446.875 61.4219H454.727V60.9727C454.701 59.7227 454.362 58.7591 453.711 58.082C453.06 57.3919 452.135 57.0469 450.938 57.0469ZM475.371 58.1602C474.603 58.056 473.926 58.0039 473.34 58.0039C471.204 58.0039 469.805 58.7266 469.141 60.1719V74H463.496V52.8672H468.828L468.984 55.3867C470.117 53.4466 471.686 52.4766 473.691 52.4766C474.316 52.4766 474.902 52.5612 475.449 52.7305L475.371 58.1602ZM499.512 68.1602C499.512 67.4701 499.167 66.9297 498.477 66.5391C497.799 66.1354 496.706 65.7773 495.195 65.4648C490.169 64.4102 487.656 62.2747 487.656 59.0586C487.656 57.1836 488.431 55.6211 489.98 54.3711C491.543 53.1081 493.581 52.4766 496.094 52.4766C498.776 52.4766 500.918 53.1081 502.52 54.3711C504.134 55.6341 504.941 57.2747 504.941 59.293H499.297C499.297 58.4857 499.036 57.8216 498.516 57.3008C497.995 56.7669 497.181 56.5 496.074 56.5C495.124 56.5 494.388 56.7148 493.867 57.1445C493.346 57.5742 493.086 58.1211 493.086 58.7852C493.086 59.4102 493.379 59.918 493.965 60.3086C494.564 60.6862 495.566 61.0182 496.973 61.3047C498.379 61.5781 499.564 61.8906 500.527 62.2422C503.509 63.3359 505 65.2305 505 67.9258C505 69.8529 504.173 71.4154 502.52 72.6133C500.866 73.7982 498.73 74.3906 496.113 74.3906C494.342 74.3906 492.767 74.0781 491.387 73.4531C490.02 72.8151 488.945 71.9492 488.164 70.8555C487.383 69.7487 486.992 68.5573 486.992 67.2812H492.344C492.396 68.2839 492.767 69.0521 493.457 69.5859C494.147 70.1198 495.072 70.3867 496.23 70.3867C497.311 70.3867 498.125 70.1849 498.672 69.7812C499.232 69.3646 499.512 68.8242 499.512 68.1602ZM518.379 74.3906C515.28 74.3906 512.754 73.4401 510.801 71.5391C508.861 69.638 507.891 67.1055 507.891 63.9414V63.3945C507.891 61.2721 508.301 59.3776 509.121 57.7109C509.941 56.0312 511.1 54.7422 512.598 53.8438C514.108 52.9323 515.827 52.4766 517.754 52.4766C520.645 52.4766 522.917 53.388 524.57 55.2109C526.237 57.0339 527.07 59.6185 527.07 62.9648V65.2695H513.613C513.796 66.6497 514.342 67.7565 515.254 68.5898C516.178 69.4232 517.344 69.8398 518.75 69.8398C520.924 69.8398 522.624 69.0521 523.848 67.4766L526.621 70.582C525.775 71.7799 524.629 72.7174 523.184 73.3945C521.738 74.0586 520.137 74.3906 518.379 74.3906ZM517.734 57.0469C516.615 57.0469 515.703 57.4245 515 58.1797C514.31 58.9349 513.867 60.0156 513.672 61.4219H521.523V60.9727C521.497 59.7227 521.159 58.7591 520.508 58.082C519.857 57.3919 518.932 57.0469 517.734 57.0469ZM536.25 74H530.586V44H536.25V74ZM550.645 74.3906C547.546 74.3906 545.02 73.4401 543.066 71.5391C541.126 69.638 540.156 67.1055 540.156 63.9414V63.3945C540.156 61.2721 540.566 59.3776 541.387 57.7109C542.207 56.0312 543.366 54.7422 544.863 53.8438C546.374 52.9323 548.092 52.4766 550.02 52.4766C552.91 52.4766 555.182 53.388 556.836 55.2109C558.503 57.0339 559.336 59.6185 559.336 62.9648V65.2695H545.879C546.061 66.6497 546.608 67.7565 547.52 68.5898C548.444 69.4232 549.609 69.8398 551.016 69.8398C553.19 69.8398 554.889 69.0521 556.113 67.4766L558.887 70.582C558.04 71.7799 556.895 72.7174 555.449 73.3945C554.004 74.0586 552.402 74.3906 550.645 74.3906ZM550 57.0469C548.88 57.0469 547.969 57.4245 547.266 58.1797C546.576 58.9349 546.133 60.0156 545.938 61.4219H553.789V60.9727C553.763 59.7227 553.424 58.7591 552.773 58.082C552.122 57.3919 551.198 57.0469 550 57.0469ZM571.348 69.8398C572.389 69.8398 573.236 69.5534 573.887 68.9805C574.538 68.4076 574.876 67.6458 574.902 66.6953H580.195C580.182 68.1276 579.792 69.4427 579.023 70.6406C578.255 71.8255 577.201 72.75 575.859 73.4141C574.531 74.0651 573.06 74.3906 571.445 74.3906C568.424 74.3906 566.042 73.4336 564.297 71.5195C562.552 69.5924 561.68 66.9362 561.68 63.5508V63.1797C561.68 59.9245 562.546 57.3268 564.277 55.3867C566.009 53.4466 568.385 52.4766 571.406 52.4766C574.049 52.4766 576.165 53.2318 577.754 54.7422C579.355 56.2396 580.169 58.2383 580.195 60.7383H574.902C574.876 59.6445 574.538 58.7591 573.887 58.082C573.236 57.3919 572.376 57.0469 571.309 57.0469C569.993 57.0469 568.997 57.5286 568.32 58.4922C567.656 59.4427 567.324 60.9922 567.324 63.1406V63.7266C567.324 65.901 567.656 67.4635 568.32 68.4141C568.984 69.3646 569.993 69.8398 571.348 69.8398ZM590.176 47.6719V52.8672H593.789V57.0078H590.176V67.5547C590.176 68.3359 590.326 68.8958 590.625 69.2344C590.924 69.5729 591.497 69.7422 592.344 69.7422C592.969 69.7422 593.522 69.6966 594.004 69.6055V73.8828C592.897 74.2214 591.758 74.3906 590.586 74.3906C586.628 74.3906 584.609 72.3919 584.531 68.3945V57.0078H581.445V52.8672H584.531V47.6719H590.176ZM595.469 63.2383C595.469 61.1419 595.872 59.2734 596.68 57.6328C597.487 55.9922 598.646 54.7227 600.156 53.8242C601.68 52.9258 603.444 52.4766 605.449 52.4766C608.301 52.4766 610.625 53.349 612.422 55.0938C614.232 56.8385 615.241 59.2083 615.449 62.2031L615.488 63.6484C615.488 66.8906 614.583 69.4948 612.773 71.4609C610.964 73.4141 608.535 74.3906 605.488 74.3906C602.441 74.3906 600.007 73.4141 598.184 71.4609C596.374 69.5078 595.469 66.8516 595.469 63.4922V63.2383ZM601.113 63.6484C601.113 65.6536 601.491 67.1901 602.246 68.2578C603.001 69.3125 604.082 69.8398 605.488 69.8398C606.855 69.8398 607.923 69.319 608.691 68.2773C609.46 67.2227 609.844 65.543 609.844 63.2383C609.844 61.2721 609.46 59.7487 608.691 58.668C607.923 57.5872 606.842 57.0469 605.449 57.0469C604.069 57.0469 603.001 57.5872 602.246 58.668C601.491 59.7357 601.113 61.3958 601.113 63.6484ZM630.84 58.1602C630.072 58.056 629.395 58.0039 628.809 58.0039C626.673 58.0039 625.273 58.7266 624.609 60.1719V74H618.965V52.8672H624.297L624.453 55.3867C625.586 53.4466 627.155 52.4766 629.16 52.4766C629.785 52.4766 630.371 52.5612 630.918 52.7305L630.84 58.1602Z" fill="white"/>
<defs>
<filter id="filter0_d" x="355" y="169" width="750" height="350" filterUnits="userSpaceOnUse" color-interpolation-filters="sRGB">
<feFlood flood-opacity="0" result="BackgroundImageFix"/>
<feColorMatrix in="SourceAlpha" type="matrix" values="0 0 0 0 0 0 0 0 0 0 0 0 0 0 0 0 0 0 127 0"/>
<feOffset dx="10" dy="10"/>
<feGaussianBlur stdDeviation="12.5"/>
<feColorMatrix type="matrix" values="0 0 0 0 0 0 0 0 0 0 0 0 0 0 0 0 0 0 0.1 0"/>
<feBlend mode="normal" in2="BackgroundImageFix" result="effect1_dropShadow"/>
<feBlend mode="normal" in="SourceGraphic" in2="effect1_dropShadow" result="shape"/>
</filter>
</defs>
</svg>
